<svg id="Layer_1" data-name="Layer 1" xmlns="http://www.w3.org/2000/svg" viewBox="0 0 237.78 28.87"><defs><style>.cls-1,.cls-2{fill:#fff;}.cls-2{fill-rule:evenodd;}</style></defs><title>YOSANT WHITE LOGO</title><path class="cls-1" d="M218.56,396.68l-5.07-15.32a.54.54,0,0,1,.52-.71h3.52a.55.55,0,0,1,.53.39L221,391H221l2.89-9.91a.56.56,0,0,1,.53-.39h3.12a.54.54,0,0,1,.52.71L223,396.68a1.11,1.11,0,0,0,0,.17v11.32a.55.55,0,0,1-.55.55h-3.32a.55.55,0,0,1-.55-.55V396.85A.52.52,0,0,0,218.56,396.68Z" transform="translate(-176.3 -380.25)"/><path class="cls-1" d="M230.29,402.06V387.3c0-4.49,2.37-7.05,6.7-7.05s6.7,2.56,6.7,7.05v14.76c0,4.49-2.37,7.06-6.7,7.06S230.29,406.55,230.29,402.06Zm9,.28V387c0-2-.88-2.76-2.29-2.76s-2.28.76-2.28,2.76v15.32c0,2,.88,2.77,2.28,2.77S239.28,404.34,239.28,402.34Z" transform="translate(-176.3 -380.25)"/><path class="cls-1" d="M246.9,402.06V401a.54.54,0,0,1,.54-.54h3.08a.55.55,0,0,1,.55.54v1.38c0,2,.88,2.73,2.28,2.73s2.29-.73,2.29-2.81c0-2.33-.88-3.81-3.77-6.34-3.69-3.24-4.89-5.53-4.89-8.74,0-4.41,2.28-7,6.57-7s6.42,2.56,6.42,7.05v1.16h-3.62a.54.54,0,0,1-.55-.54V387c0-2-.8-2.76-2.21-2.76s-2.2.76-2.2,2.68.92,3.53,3.81,6.06c3.69,3.25,4.85,5.49,4.85,9,0,4.57-2.33,7.14-6.66,7.14S246.9,406.55,246.9,402.06Z" transform="translate(-176.3 -380.25)"/><path class="cls-1" d="M267.33,380.65h5.05a.55.55,0,0,1,.54.45l4.39,27a.55.55,0,0,1-.54.64h-3.29a.53.53,0,0,1-.54-.47l-.74-5.11v.08h-4.54a.55.55,0,0,0-.54.47l-.67,4.56a.53.53,0,0,1-.54.47h-3a.55.55,0,0,1-.54-.64l4.39-27A.55.55,0,0,1,267.33,380.65Zm3.72,18.76a.54.54,0,0,0,.54-.62l-1.88-13.25h-.08l-1.83,13.25a.54.54,0,0,0,.54.62Z" transform="translate(-176.3 -380.25)"/><path class="cls-1" d="M281.09,380.65h4.56a.54.54,0,0,1,.53.41l4.19,16.39h.08V381.19a.54.54,0,0,1,.54-.54h2.84a.55.55,0,0,1,.55.54v27a.55.55,0,0,1-.55.55h-3.56a.55.55,0,0,1-.53-.41l-5.19-20.09h-.08v19.95a.55.55,0,0,1-.55.55h-2.83a.55.55,0,0,1-.55-.55v-27A.55.55,0,0,1,281.09,380.65Z" transform="translate(-176.3 -380.25)"/><path class="cls-1" d="M301.57,384.66h-3.52a.55.55,0,0,1-.55-.55v-2.92a.55.55,0,0,1,.55-.54h12.54a.55.55,0,0,1,.55.54v2.92a.55.55,0,0,1-.55.55h-3.52a.54.54,0,0,0-.54.54v23a.55.55,0,0,1-.55.55h-3.32a.55.55,0,0,1-.54-.55v-23A.55.55,0,0,0,301.57,384.66Z" transform="translate(-176.3 -380.25)"/><path class="cls-1" d="M321.68,381.19a.55.55,0,0,1,.55-.54h5.95c4.41,0,6.58,2.44,6.58,6.93v2.77c0,4.49-2.17,6.94-6.58,6.94h-1.54a.54.54,0,0,0-.54.54v10.34a.55.55,0,0,1-.55.55h-3.32a.55.55,0,0,1-.55-.55Zm6.5,12.09c1.4,0,2.17-.64,2.17-2.65V387.3c0-2-.77-2.64-2.17-2.64h-1.54a.54.54,0,0,0-.54.54v7.53a.55.55,0,0,0,.54.55Z" transform="translate(-176.3 -380.25)"/><path class="cls-1" d="M340.64,380.65h5a.54.54,0,0,1,.54.45l4.39,27a.55.55,0,0,1-.54.64h-3.29a.55.55,0,0,1-.54-.47l-.74-5.11v.08H341a.55.55,0,0,0-.54.47l-.66,4.56a.55.55,0,0,1-.54.47h-3a.56.56,0,0,1-.54-.64l4.4-27A.54.54,0,0,1,340.64,380.65Zm3.71,18.76a.55.55,0,0,0,.55-.62L343,385.54h-.08l-1.84,13.25a.54.54,0,0,0,.54.62Z" transform="translate(-176.3 -380.25)"/><path class="cls-1" d="M354.9,384.66h-3.52a.55.55,0,0,1-.54-.55v-2.92a.54.54,0,0,1,.54-.54h12.55a.54.54,0,0,1,.54.54v2.92a.55.55,0,0,1-.54.55h-3.52a.55.55,0,0,0-.55.54v23a.55.55,0,0,1-.55.55H356a.55.55,0,0,1-.55-.55v-23A.55.55,0,0,0,354.9,384.66Z" transform="translate(-176.3 -380.25)"/><path class="cls-1" d="M368.15,380.65h10.93a.54.54,0,0,1,.55.54v2.92a.55.55,0,0,1-.55.55h-6.52a.55.55,0,0,0-.55.54v6.33a.55.55,0,0,0,.55.54h5a.55.55,0,0,1,.55.55v2.92a.55.55,0,0,1-.55.54h-5a.55.55,0,0,0-.55.55v7.53a.55.55,0,0,0,.55.55h6.52a.54.54,0,0,1,.55.54v2.92a.55.55,0,0,1-.55.55H368.15a.55.55,0,0,1-.55-.55v-27A.55.55,0,0,1,368.15,380.65Z" transform="translate(-176.3 -380.25)"/><path class="cls-1" d="M383.71,380.65H387a.54.54,0,0,1,.55.54v23a.55.55,0,0,0,.55.55h6.16a.55.55,0,0,1,.55.54v2.92a.55.55,0,0,1-.55.55H383.71a.55.55,0,0,1-.55-.55v-27A.54.54,0,0,1,383.71,380.65Z" transform="translate(-176.3 -380.25)"/><path class="cls-2" d="M186,401.09l-3.6-1.83a1.65,1.65,0,0,0-2.21.69l-3.67,6.22a1.65,1.65,0,0,0,.58,2.26,1.71,1.71,0,0,0,.95.22h7.22a1.64,1.64,0,0,0,1.64-1.64h0l0-4.3A1.64,1.64,0,0,0,186,401.09Z" transform="translate(-176.3 -380.25)"/><path class="cls-2" d="M208.37,406.17,204.7,400a1.64,1.64,0,0,0-2.2-.69l-3.61,1.83a1.64,1.64,0,0,0-.89,1.6l0,4.3h0a1.64,1.64,0,0,0,1.64,1.64h7.22a1.71,1.71,0,0,0,.95-.22A1.65,1.65,0,0,0,208.37,406.17Z" transform="translate(-176.3 -380.25)"/><path class="cls-2" d="M201.36,394.2l-.94-1.58a1.05,1.05,0,0,0-1.44-.36l-5.39,3.22-.22.12a1,1,0,0,1-.17.1h-.06a1.7,1.7,0,0,1-.66.14h-.07a1.7,1.7,0,0,1-.66-.14h-.06a1,1,0,0,1-.17-.1l-.11-.06-5.51-3.29a1.05,1.05,0,0,0-1.44.36l-.94,1.58a1,1,0,0,0,.36,1.44l5.73,3.43h0a1.64,1.64,0,0,1,.86,1.32v7.23a1.06,1.06,0,0,0,1.05,1.05h1.84a1.06,1.06,0,0,0,1-1.05v-7.23a1.61,1.61,0,0,1,.67-1.2l5.92-3.54A1,1,0,0,0,201.36,394.2Z" transform="translate(-176.3 -380.25)"/><path class="cls-2" d="M192.45,388.71a.79.79,0,1,0-.8-.79A.79.79,0,0,0,192.45,388.71Z" transform="translate(-176.3 -380.25)"/><path class="cls-2" d="M188,389.63l3.51,1.95a1,1,0,0,0,.17.1h.06a1.7,1.7,0,0,0,.66.14h.07a1.7,1.7,0,0,0,.66-.14h.06a1,1,0,0,0,.17-.1l3.51-1.95c.87-.55.92-1.51.34-2.51l-3.33-5.71a1.92,1.92,0,0,0-1.43-.7h0a1.92,1.92,0,0,0-1.43.7l-3.33,5.71C187.09,388.12,187.14,389.08,188,389.63Zm1.28-2.12a5.28,5.28,0,0,1,6.32,0,.5.5,0,0,1,0,.82,5.28,5.28,0,0,1-6.32,0A.49.49,0,0,1,189.29,387.51Z" transform="translate(-176.3 -380.25)"/><path class="cls-1" d="M407.43,401.57a6.89,6.89,0,1,0-6.67-6.89A6.59,6.59,0,0,0,407.43,401.57Zm0-1.34a5.56,5.56,0,1,1,5.28-5.55A5.22,5.22,0,0,1,407.43,400.23Zm-2.11-1.46h1.45v-3.31h.5c.67,0,1,.3,1,1.19v1a2.67,2.67,0,0,0,.13,1.14h1.5a2.54,2.54,0,0,1-.18-1.13v-1c0-1-.25-1.64-1-2v0a1.73,1.73,0,0,0,1-1.78v-.17a1.88,1.88,0,0,0-2.16-2.15h-2.23v8.2Zm1.45-4.65v-2.21h.7c.55,0,.78.31.78,1v.25c0,.75-.35,1-.88,1Z" transform="translate(-176.3 -380.25)"/></svg>