<svg xmlns="http://www.w3.org/2000/svg" xmlns:xlink="http://www.w3.org/1999/xlink" viewBox="0,0,255.99332,255.99332" width="454px" height="454px" fill-rule="nonzero"><g fill="none" fill-rule="nonzero" stroke="none" stroke-width="1" stroke-linecap="butt" stroke-linejoin="miter" stroke-miterlimit="10" stroke-dasharray="" stroke-dashoffset="0" font-family="none" font-weight="none" font-size="none" text-anchor="none" style="mix-blend-mode: normal"><g transform="scale(8.53333,8.53333)"><path d="M3.515,21.833l-0.105,-0.181c-1.175,-2.034 -1.795,-4.356 -1.794,-6.717c0.004,-7.408 6.033,-13.435 13.442,-13.435c3.594,0.001 6.971,1.4 9.508,3.94c2.537,2.539 3.935,5.915 3.935,9.507c-0.004,7.409 -6.033,13.437 -13.441,13.437c-2.249,-0.002 -4.471,-0.567 -6.429,-1.636l-0.174,-0.095l-6.745,1.769z" fill="#203b72"></path><path d="M15.058,2v0c3.46,0.001 6.711,1.348 9.154,3.793c2.443,2.446 3.788,5.696 3.788,9.153c-0.003,7.133 -5.809,12.937 -12.946,12.937c-2.16,-0.001 -4.299,-0.545 -6.184,-1.574l-0.349,-0.19l-0.384,0.101l-5.715,1.498l1.52,-5.552l0.11,-0.403l-0.209,-0.362c-1.131,-1.958 -1.728,-4.194 -1.727,-6.466c0.004,-7.132 5.809,-12.935 12.942,-12.935M15.058,1c-7.684,0 -13.938,6.252 -13.941,13.935c-0.001,2.456 0.64,4.854 1.861,6.967l-1.978,7.223l7.391,-1.938c2.036,1.111 4.329,1.695 6.663,1.696h0.006c7.683,0 13.938,-6.252 13.941,-13.936c0,-3.724 -1.449,-7.226 -4.081,-9.86c-2.633,-2.635 -6.133,-4.086 -9.862,-4.087z" fill="#fdfefe"></path><path d="M15.055,25.883c-1.827,-0.001 -3.634,-0.461 -5.227,-1.33l-1.046,-0.57l-1.152,0.302l-2.364,0.62l0.605,-2.21l0.331,-1.208l-0.626,-1.085c-0.955,-1.654 -1.459,-3.544 -1.459,-5.465c0.002,-6.031 4.91,-10.936 10.94,-10.937c2.926,0.001 5.674,1.14 7.74,3.207c2.065,2.067 3.203,4.816 3.203,7.739c-0.003,6.031 -4.911,10.937 -10.945,10.937z" fill="#203b72"></path><path d="M21.101,17.717c-0.332,-0.165 -1.96,-0.967 -2.263,-1.077c-0.304,-0.111 -0.525,-0.165 -0.745,0.165c-0.221,0.332 -0.855,1.077 -1.048,1.298c-0.193,0.221 -0.386,0.248 -0.718,0.083c-0.332,-0.165 -1.399,-0.516 -2.664,-1.644c-0.985,-0.878 -1.65,-1.962 -1.843,-2.294c-0.193,-0.332 -0.021,-0.51 0.145,-0.676c0.149,-0.149 0.332,-0.387 0.497,-0.58c0.165,-0.193 0.221,-0.332 0.332,-0.552c0.111,-0.22 0.055,-0.415 -0.028,-0.58c-0.083,-0.165 -0.745,-1.796 -1.022,-2.458c-0.267,-0.646 -0.541,-0.558 -0.744,-0.568c-0.193,-0.01 -0.414,-0.011 -0.635,-0.011c-0.221,0 -0.58,0.083 -0.883,0.415c-0.303,0.331 -1.159,1.132 -1.159,2.762c0,1.63 1.187,3.205 1.352,3.426c0.165,0.221 2.335,3.565 5.659,5c0.79,0.341 1.408,0.545 1.888,0.698c0.793,0.252 1.515,0.216 2.087,0.131c0.637,-0.095 1.96,-0.801 2.235,-1.574c0.276,-0.773 0.276,-1.437 0.193,-1.574c-0.083,-0.141 -0.304,-0.224 -0.636,-0.39z" fill="#ffffff"></path></g></g></svg>