<?xml version="1.0" encoding="UTF-8"?>
<svg id="Layer_1" data-name="Layer 1" xmlns="http://www.w3.org/2000/svg" viewBox="0 0 644.47 95.85">
  <defs>
    <style>
      .cls-1, .cls-2 {
        fill: #203b72;
      }

      .cls-2 {
        fill-rule: evenodd;
      }
    </style>
  </defs>
  <path class="cls-1" d="M123.47,56.1l-13.32-40.26c-.31-.93.38-1.89,1.36-1.89h9.27c.64,0,1.2.42,1.38,1.03l7.6,26.05h.21l7.6-26.05c.18-.61.74-1.03,1.38-1.03h8.21c.98,0,1.67.96,1.36,1.89l-13.32,40.26c-.05.15-.07.3-.07.45v29.74c0,.79-.64,1.44-1.44,1.44h-8.72c-.79,0-1.44-.64-1.44-1.44v-29.74c0-.15-.02-.31-.07-.45Z"/>
  <path class="cls-1" d="M154.32,70.23V31.45c0-11.8,6.22-18.55,17.6-18.55s17.6,6.75,17.6,18.55v38.78c0,11.8-6.22,18.55-17.6,18.55s-17.6-6.75-17.6-18.55ZM177.92,70.97V30.71c0-5.27-2.32-7.27-6.01-7.27s-6.01,2-6.01,7.27v40.26c0,5.27,2.32,7.27,6.01,7.27s6.01-2,6.01-7.27Z"/>
  <path class="cls-1" d="M197.95,70.23v-2.78c0-.79.64-1.44,1.44-1.44h8.09c.79,0,1.44.64,1.44,1.44v3.62c0,5.27,2.32,7.17,6.01,7.17s6.01-1.9,6.01-7.38c0-6.11-2.32-10.01-9.91-16.65-9.7-8.54-12.86-14.54-12.86-22.98,0-11.59,6.01-18.34,17.28-18.34s16.86,6.75,16.86,18.55v3.05h-9.53c-.79,0-1.44-.64-1.44-1.44v-2.36c0-5.27-2.11-7.27-5.8-7.27s-5.8,2-5.8,7.06c0,5.37,2.42,9.28,10.01,15.92,9.7,8.54,12.75,14.44,12.75,23.61,0,12.01-6.11,18.76-17.5,18.76s-17.07-6.75-17.07-18.55Z"/>
  <path class="cls-1" d="M251.66,13.95h13.26c.7,0,1.3.51,1.42,1.21l11.55,70.9c.14.87-.53,1.67-1.42,1.67h-8.66c-.71,0-1.32-.52-1.42-1.23l-1.93-13.42v.21h-11.93c-.71,0-1.32.52-1.42,1.23l-1.75,11.98c-.1.71-.71,1.23-1.42,1.23h-7.82c-.89,0-1.56-.79-1.42-1.67l11.55-70.9c.11-.7.71-1.21,1.42-1.21ZM261.43,63.27c.87,0,1.54-.77,1.42-1.64l-4.93-34.83h-.21l-4.83,34.83c-.12.86.55,1.63,1.42,1.63h7.13Z"/>
  <path class="cls-1" d="M287.81,13.95h11.99c.66,0,1.23.45,1.39,1.08l11,43.08h.21V15.38c0-.79.64-1.44,1.44-1.44h7.45c.79,0,1.44.64,1.44,1.44v70.9c0,.79-.64,1.44-1.44,1.44h-9.36c-.66,0-1.23-.44-1.39-1.08l-13.63-52.78h-.21v52.42c0,.79-.64,1.44-1.44,1.44h-7.45c-.79,0-1.44-.64-1.44-1.44V15.38c0-.79.64-1.44,1.44-1.44Z"/>
  <path class="cls-1" d="M341.64,24.49h-9.25c-.79,0-1.44-.64-1.44-1.44v-7.67c0-.79.64-1.44,1.44-1.44h32.96c.79,0,1.44.64,1.44,1.44v7.67c0,.79-.64,1.44-1.44,1.44h-9.25c-.79,0-1.44.64-1.44,1.44v60.36c0,.79-.64,1.44-1.44,1.44h-8.72c-.79,0-1.44-.64-1.44-1.44V25.92c0-.79-.64-1.44-1.44-1.44Z"/>
  <path class="cls-1" d="M394.51,15.38c0-.79.64-1.44,1.44-1.44h15.64c11.59,0,17.28,6.43,17.28,18.23v7.27c0,11.8-5.69,18.23-17.28,18.23h-4.04c-.79,0-1.44.64-1.44,1.44v27.16c0,.79-.64,1.44-1.44,1.44h-8.72c-.79,0-1.44-.64-1.44-1.44V15.38ZM411.58,47.15c3.69,0,5.69-1.69,5.69-6.96v-8.75c0-5.27-2-6.96-5.69-6.96h-4.04c-.79,0-1.44.64-1.44,1.44v19.79c0,.79.64,1.44,1.44,1.44h4.04Z"/>
  <path class="cls-1" d="M444.32,13.95h13.26c.7,0,1.3.51,1.42,1.21l11.55,70.9c.14.87-.53,1.67-1.42,1.67h-8.66c-.71,0-1.32-.52-1.42-1.23l-1.93-13.42v.21h-11.93c-.71,0-1.32.52-1.42,1.23l-1.75,11.98c-.1.71-.71,1.23-1.42,1.23h-7.82c-.89,0-1.56-.79-1.42-1.67l11.55-70.9c.11-.7.71-1.21,1.42-1.21ZM454.09,63.27c.87,0,1.54-.77,1.42-1.64l-4.93-34.83h-.21l-4.83,34.83c-.12.86.55,1.63,1.42,1.63h7.13Z"/>
  <path class="cls-1" d="M481.82,24.49h-9.25c-.79,0-1.44-.64-1.44-1.44v-7.67c0-.79.64-1.44,1.44-1.44h32.96c.79,0,1.44.64,1.44,1.44v7.67c0,.79-.64,1.44-1.44,1.44h-9.25c-.79,0-1.44.64-1.44,1.44v60.36c0,.79-.64,1.44-1.44,1.44h-8.72c-.79,0-1.44-.64-1.44-1.44V25.92c0-.79-.64-1.44-1.44-1.44Z"/>
  <path class="cls-1" d="M516.62,13.95h28.75c.79,0,1.44.64,1.44,1.44v7.67c0,.79-.64,1.44-1.44,1.44h-17.15c-.79,0-1.44.64-1.44,1.44v16.63c0,.79.64,1.44,1.44,1.44h13.04c.79,0,1.44.64,1.44,1.44v7.67c0,.79-.64,1.44-1.44,1.44h-13.04c-.79,0-1.44.64-1.44,1.44v19.79c0,.79.64,1.44,1.44,1.44h17.15c.79,0,1.44.64,1.44,1.44v7.67c0,.79-.64,1.44-1.44,1.44h-28.75c-.79,0-1.44-.64-1.44-1.44V15.38c0-.79.64-1.44,1.44-1.44Z"/>
  <path class="cls-1" d="M557.52,13.95h8.72c.79,0,1.44.64,1.44,1.44v60.36c0,.79.64,1.44,1.44,1.44h16.2c.79,0,1.44.64,1.44,1.44v7.67c0,.79-.64,1.44-1.44,1.44h-27.8c-.79,0-1.44-.64-1.44-1.44V15.38c0-.79.64-1.44,1.44-1.44Z"/>
  <g>
    <path class="cls-2" d="M37.92,67.68l-9.47-4.82c-2.11-1.07-4.69-.25-5.79,1.83l-9.64,16.35c-1.21,2.06-.53,4.71,1.52,5.93.78.46,1.65.65,2.49.59l18.37-.04c.19.03.39.04.59.04,2.38,0,4.32-1.93,4.32-4.32v-.03h0v-.03l-.04-11.31c.13-1.69-.75-3.38-2.36-4.2Z"/>
    <path class="cls-2" d="M96.69,81.04l-9.64-16.35c-1.1-2.08-3.68-2.91-5.79-1.83l-9.47,4.82c-1.61.82-2.49,2.5-2.36,4.2l-.04,11.31v.02h0v.04c0,2.39,1.93,4.32,4.32,4.32.2,0,.4-.01.59-.04l18.37.04c.84.06,1.71-.13,2.49-.59,2.06-1.22,2.74-3.87,1.52-5.93Z"/>
    <path class="cls-2" d="M78.28,49.58l-2.47-4.15c-.78-1.3-2.48-1.74-3.78-.96l-14.18,8.47-.57.32c-.14.09-.29.18-.45.25h-.01s-.04.03-.07.04l-.04.02h-.03c-.56.26-1.16.38-1.75.38-.03,0-.06,0-.09,0-.03,0-.06,0-.09,0-.59,0-1.19-.12-1.75-.37h-.03s-.04-.03-.04-.03c-.02-.01-.05-.02-.07-.03h-.01c-.15-.08-.3-.17-.45-.26l-.29-.16-14.48-8.65c-1.3-.78-3.01-.35-3.78.96l-2.47,4.15c-.78,1.3-.35,3.01.96,3.78l15.07,9h0c1.33.74,2.14,2.07,2.25,3.49v18.98c0,1.52,1.24,2.76,2.76,2.76h4.83c1.52,0,2.76-1.24,2.76-2.76v-18.98c.09-1.24.72-2.41,1.76-3.17l15.57-9.3c1.3-.78,1.73-2.48.96-3.78Z"/>
    <path class="cls-2" d="M54.84,35.15c1.15,0,2.08-.93,2.08-2.08s-.93-2.08-2.08-2.08-2.08.93-2.08,2.08.93,2.08,2.08,2.08Z"/>
    <path class="cls-2" d="M43.19,37.55l9.21,5.14c.14.09.29.18.45.25h.01s.04.03.07.04l.04.02.03.02c.56.25,1.16.37,1.75.37.03,0,.06,0,.09,0,.03,0,.06,0,.09,0,.59,0,1.19-.12,1.75-.37l.03-.02.04-.02s.05-.02.07-.03h.01c.15-.08.3-.16.45-.26l9.21-5.14c2.3-1.43,2.43-3.97.91-6.59l-8.76-15c-.7-1.06-2.49-1.86-3.76-1.86h-.1c-1.27,0-3.06.8-3.76,1.86l-8.76,15c-1.51,2.62-1.39,5.16.91,6.59ZM46.54,32c2.81-1.83,5.53-2.82,8.3-2.78,2.77-.04,5.49.94,8.3,2.78.59.39.93,1.52,0,2.14-2.78,1.87-5.53,2.81-8.3,2.78-2.77.04-5.51-.9-8.3-2.78-.93-.63-.6-1.76,0-2.14Z"/>
  </g>
  <path class="cls-1" d="M619.86,68.95c10.07,0,17.51-7.71,17.51-18.12s-7.45-18.12-17.51-18.12-17.53,7.69-17.53,18.12,7.45,18.12,17.53,18.12ZM619.86,65.42c-8.1,0-13.89-6.09-13.89-14.6s5.79-14.6,13.89-14.6,13.89,6.09,13.89,14.6-5.79,14.6-13.89,14.6ZM614.31,61.59h3.83v-8.71h1.3c1.76,0,2.58.8,2.58,3.12v2.58c0,2.01.11,2.36.35,3.01h3.92c-.41-.91-.45-1.82-.45-2.97v-2.58c0-2.57-.65-4.33-2.62-5.13v-.11c1.82-.8,2.62-2.36,2.62-4.68v-.45c0-3.77-1.76-5.63-5.7-5.63h-5.85v21.55ZM618.15,49.35v-5.79h1.82c1.45,0,2.06.8,2.06,2.57v.65c0,1.97-.91,2.58-2.32,2.58h-1.56v-.02Z"/>
</svg>