<svg id="Layer_1" data-name="Layer 1" xmlns="http://www.w3.org/2000/svg" viewBox="0 0 237.78 28.87"><defs><style>.cls-1{fill-rule:evenodd;}</style></defs><title>YOSANT BLACK LOGO</title><path d="M218.56,352.86l-5.07-15.32a.55.55,0,0,1,.52-.72h3.52a.55.55,0,0,1,.53.39l2.89,9.92H221l2.89-9.92a.56.56,0,0,1,.53-.39h3.12a.54.54,0,0,1,.52.72L223,352.86a.88.88,0,0,0,0,.17v11.31a.55.55,0,0,1-.55.55h-3.32a.55.55,0,0,1-.55-.55V353A.47.47,0,0,0,218.56,352.86Z" transform="translate(-176.3 -336.42)"/><path d="M230.29,358.23V343.48c0-4.49,2.37-7.06,6.7-7.06s6.7,2.57,6.7,7.06v14.75c0,4.49-2.37,7.06-6.7,7.06S230.29,362.72,230.29,358.23Zm9,.28V343.2c0-2-.88-2.77-2.29-2.77s-2.28.76-2.28,2.77v15.31c0,2,.88,2.77,2.28,2.77S239.28,360.52,239.28,358.51Z" transform="translate(-176.3 -336.42)"/><path d="M246.9,358.23v-1.05a.54.54,0,0,1,.54-.55h3.08a.55.55,0,0,1,.55.55v1.37c0,2,.88,2.73,2.28,2.73s2.29-.72,2.29-2.81c0-2.32-.88-3.81-3.77-6.33-3.69-3.25-4.89-5.54-4.89-8.74,0-4.41,2.28-7,6.57-7S260,339,260,343.48v1.16h-3.62a.55.55,0,0,1-.55-.55v-.89c0-2-.8-2.77-2.21-2.77s-2.2.76-2.2,2.69.92,3.52,3.81,6.05c3.69,3.25,4.85,5.49,4.85,9,0,4.57-2.33,7.14-6.66,7.14S246.9,362.72,246.9,358.23Z" transform="translate(-176.3 -336.42)"/><path d="M267.33,336.82h5.05a.55.55,0,0,1,.54.46l4.39,27a.55.55,0,0,1-.54.63h-3.29a.53.53,0,0,1-.54-.47l-.74-5.1v.08h-4.54a.54.54,0,0,0-.54.46l-.67,4.56a.53.53,0,0,1-.54.47h-3a.55.55,0,0,1-.54-.63l4.39-27A.55.55,0,0,1,267.33,336.82Zm3.72,18.77a.55.55,0,0,0,.54-.63l-1.88-13.25h-.08L267.8,355a.55.55,0,0,0,.54.62Z" transform="translate(-176.3 -336.42)"/><path d="M281.09,336.82h4.56a.55.55,0,0,1,.53.41l4.19,16.39h.08V337.37a.54.54,0,0,1,.54-.55h2.84a.55.55,0,0,1,.55.55v27a.55.55,0,0,1-.55.55h-3.56a.55.55,0,0,1-.53-.41l-5.19-20.08h-.08v19.94a.54.54,0,0,1-.55.55h-2.83a.55.55,0,0,1-.55-.55v-27A.55.55,0,0,1,281.09,336.82Z" transform="translate(-176.3 -336.42)"/><path d="M301.57,340.83h-3.52a.55.55,0,0,1-.55-.55v-2.91a.55.55,0,0,1,.55-.55h12.54a.55.55,0,0,1,.55.55v2.91a.55.55,0,0,1-.55.55h-3.52a.54.54,0,0,0-.54.55v23a.55.55,0,0,1-.55.55h-3.32a.54.54,0,0,1-.54-.55v-23A.55.55,0,0,0,301.57,340.83Z" transform="translate(-176.3 -336.42)"/><path d="M321.68,337.37a.55.55,0,0,1,.55-.55h5.95c4.41,0,6.58,2.45,6.58,6.94v2.76c0,4.49-2.17,6.94-6.58,6.94h-1.54a.55.55,0,0,0-.54.55v10.33a.55.55,0,0,1-.55.55h-3.32a.55.55,0,0,1-.55-.55Zm6.5,12.08c1.4,0,2.17-.64,2.17-2.65v-3.32c0-2-.77-2.65-2.17-2.65h-1.54a.54.54,0,0,0-.54.55v7.52a.54.54,0,0,0,.54.55Z" transform="translate(-176.3 -336.42)"/><path d="M340.64,336.82h5a.54.54,0,0,1,.54.46l4.39,27a.54.54,0,0,1-.54.63h-3.29a.55.55,0,0,1-.54-.47l-.74-5.1v.08H341a.54.54,0,0,0-.54.46l-.66,4.56a.55.55,0,0,1-.54.47h-3a.55.55,0,0,1-.54-.63l4.4-27A.54.54,0,0,1,340.64,336.82Zm3.71,18.77a.56.56,0,0,0,.55-.63L343,341.71h-.08L341.1,355a.55.55,0,0,0,.54.62Z" transform="translate(-176.3 -336.42)"/><path d="M354.9,340.83h-3.52a.55.55,0,0,1-.54-.55v-2.91a.54.54,0,0,1,.54-.55h12.55a.54.54,0,0,1,.54.55v2.91a.55.55,0,0,1-.54.55h-3.52a.55.55,0,0,0-.55.55v23a.54.54,0,0,1-.55.55H356a.54.54,0,0,1-.55-.55v-23A.55.55,0,0,0,354.9,340.83Z" transform="translate(-176.3 -336.42)"/><path d="M368.15,336.82h10.93a.54.54,0,0,1,.55.55v2.91a.55.55,0,0,1-.55.55h-6.52a.55.55,0,0,0-.55.55v6.32a.55.55,0,0,0,.55.55h5a.55.55,0,0,1,.55.54v2.92a.55.55,0,0,1-.55.55h-5a.55.55,0,0,0-.55.54v7.53a.55.55,0,0,0,.55.55h6.52a.54.54,0,0,1,.55.55v2.91a.54.54,0,0,1-.55.55H368.15a.55.55,0,0,1-.55-.55v-27A.55.55,0,0,1,368.15,336.82Z" transform="translate(-176.3 -336.42)"/><path d="M383.71,336.82H387a.54.54,0,0,1,.55.55v23a.55.55,0,0,0,.55.55h6.16a.55.55,0,0,1,.55.55v2.91a.55.55,0,0,1-.55.55H383.71a.54.54,0,0,1-.55-.55v-27A.54.54,0,0,1,383.71,336.82Z" transform="translate(-176.3 -336.42)"/><path class="cls-1" d="M186,357.26l-3.6-1.83a1.65,1.65,0,0,0-2.21.7l-3.67,6.22a1.65,1.65,0,0,0,1.53,2.48l7,0,.23,0a1.65,1.65,0,0,0,1.64-1.65h0l0-4.3A1.65,1.65,0,0,0,186,357.26Z" transform="translate(-176.3 -336.42)"/><path class="cls-1" d="M208.37,362.35l-3.67-6.22a1.64,1.64,0,0,0-2.2-.7l-3.61,1.83a1.65,1.65,0,0,0-.89,1.6l0,4.3h0a1.65,1.65,0,0,0,1.64,1.65l.23,0,7,0a1.65,1.65,0,0,0,1.53-2.48Z" transform="translate(-176.3 -336.42)"/><path class="cls-1" d="M201.36,350.38l-.94-1.58a1.05,1.05,0,0,0-1.44-.37l-5.39,3.23-.22.12-.17.09h0l0,0h0a1.7,1.7,0,0,1-.66.14h-.07a1.7,1.7,0,0,1-.66-.14h0l0,0h0l-.17-.09-.11-.07-5.51-3.29a1.05,1.05,0,0,0-1.44.37l-.94,1.58a1,1,0,0,0,.36,1.44l5.73,3.42h0a1.66,1.66,0,0,1,.86,1.33v7.22a1,1,0,0,0,1.05,1.05h1.84a1.06,1.06,0,0,0,1-1.05v-7.22a1.63,1.63,0,0,1,.67-1.21l5.92-3.53A1,1,0,0,0,201.36,350.38Z" transform="translate(-176.3 -336.42)"/><path class="cls-1" d="M192.45,344.89a.8.8,0,1,0-.8-.8A.8.8,0,0,0,192.45,344.89Z" transform="translate(-176.3 -336.42)"/><path class="cls-1" d="M188,345.8l3.51,2,.17.09h0l0,0h0a1.7,1.7,0,0,0,.66.14h.07a1.7,1.7,0,0,0,.66-.14h0l0,0h0l.17-.09,3.51-2c.87-.54.92-1.51.34-2.51l-3.33-5.7a1.9,1.9,0,0,0-1.43-.71h0a1.9,1.9,0,0,0-1.43.71l-3.33,5.7C187.09,344.29,187.14,345.26,188,345.8Zm1.28-2.11a5.24,5.24,0,0,1,6.32,0,.49.49,0,0,1,0,.81,5.24,5.24,0,0,1-6.32,0A.48.48,0,0,1,189.29,343.69Z" transform="translate(-176.3 -336.42)"/><path d="M407.43,357.75a6.9,6.9,0,1,0-6.67-6.89A6.6,6.6,0,0,0,407.43,357.75Zm0-1.34a5.57,5.57,0,1,1,5.28-5.56A5.23,5.23,0,0,1,407.43,356.41ZM405.32,355h1.45v-3.32h.5c.67,0,1,.31,1,1.19v1a2.73,2.73,0,0,0,.13,1.15h1.5a2.56,2.56,0,0,1-.18-1.13v-1c0-1-.25-1.65-1-2v0a1.72,1.72,0,0,0,1-1.78v-.17a1.88,1.88,0,0,0-2.16-2.14h-2.23v8.19Zm1.45-4.66v-2.2h.7c.55,0,.78.3.78,1v.25c0,.75-.35,1-.88,1h-.6Z" transform="translate(-176.3 -336.42)"/></svg>