<?xml version="1.0" encoding="UTF-8"?>
<svg id="Layer_1" data-name="Layer 1" xmlns="http://www.w3.org/2000/svg" viewBox="0 0 273.6 273.6">
  <defs>
    <style>
      .cls-1 {
        fill: #203b72;
        fill-rule: evenodd;
      }
    </style>
  </defs>
  <path class="cls-1" d="M76.88,249.84c.59.08,1.2.12,1.82.12,7.35,0,13.3-5.95,13.3-13.3v-.18l-.12-34.85c.4-5.22-2.3-10.41-7.26-12.93l-29.18-14.84c-6.5-3.31-14.44-.78-17.85,5.65l-29.72,50.37c-3.74,6.34-1.64,14.51,4.7,18.26,2.41,1.42,5.09,2,7.68,1.82l56.62-.12h0Z"/>
  <path class="cls-1" d="M196.72,249.84c-.59.08-1.2.12-1.82.12-7.35,0-13.3-5.95-13.3-13.3v-.18l.12-34.85c-.4-5.22,2.3-10.41,7.26-12.93l29.18-14.84c6.5-3.31,14.44-.78,17.85,5.65l29.72,50.37c3.75,6.34,1.64,14.51-4.7,18.26-2.41,1.42-5.09,2-7.68,1.82l-56.62-.12h0Z"/>
  <path class="cls-1" d="M146.02,143.28l43.69-26.09c4.01-2.4,9.26-1.07,11.66,2.95l7.62,12.78c2.39,4.02,1.06,9.26-2.95,11.65l-47.97,28.64c-3.21,2.34-5.13,5.95-5.43,9.76v58.5c0,4.68-3.83,8.5-8.5,8.5h-14.88c-4.68,0-8.5-3.82-8.5-8.5v-58.5c-.33-4.38-2.82-8.48-6.93-10.72v-.04l-46.44-27.73c-4.01-2.4-5.34-7.64-2.95-11.66l7.62-12.78c2.39-4.02,7.64-5.35,11.66-2.95l44.63,26.65.9.5c.45.29.9.54,1.38.78l.04.02c.07.03.14.07.21.1l.13.06.1.04c1.74.77,3.57,1.14,5.39,1.14.09,0,.18,0,.27,0,.09,0,.18,0,.27,0,1.82,0,3.66-.37,5.39-1.14l.1-.04.13-.06c.07-.03.14-.06.21-.1l.04-.02c.47-.23.93-.49,1.38-.78l1.76-.98h0Z"/>
  <path class="cls-1" d="M136.75,75.62c3.54,0,6.42,2.87,6.42,6.41s-2.87,6.42-6.42,6.42-6.41-2.87-6.41-6.42,2.87-6.41,6.41-6.41h0Z"/>
  <path class="cls-1" d="M175.46,75.56l-26.99-46.21c-2.16-3.27-7.67-5.74-11.58-5.74h-.29c-3.9,0-9.42,2.46-11.58,5.74l-26.99,46.21c-4.66,8.07-4.28,15.89,2.81,20.31l28.38,15.84c.45.29.9.55,1.38.78l.04.02c.07.04.14.07.21.1l.13.06.1.05c1.74.77,3.57,1.14,5.39,1.14.09,0,.18,0,.27,0,.09,0,.18,0,.27,0,1.82,0,3.66-.37,5.39-1.14l.1-.05.13-.06c.07-.03.14-.06.21-.1l.04-.02c.47-.23.93-.49,1.38-.78l28.38-15.84c7.09-4.41,7.47-12.23,2.81-20.31ZM162.34,85.34c-8.58,5.77-17.03,8.67-25.57,8.55-8.55.11-16.99-2.79-25.57-8.55-2.88-1.93-1.84-5.41-.01-6.61,8.67-5.65,17.03-8.68,25.59-8.56,8.55-.12,16.92,2.91,25.59,8.56,1.83,1.19,2.86,4.67-.01,6.61Z"/>
</svg>