<?xml version="1.0" encoding="UTF-8"?>
<!DOCTYPE svg PUBLIC "-//W3C//DTD SVG 1.1//EN" "http://www.w3.org/Graphics/SVG/1.1/DTD/svg11.dtd">
<!-- Creator: CorelDRAW -->
<svg xmlns="http://www.w3.org/2000/svg" xml:space="preserve" width="59.4816mm" height="19.7646mm" version="1.1" style="shape-rendering:geometricPrecision; text-rendering:geometricPrecision; image-rendering:optimizeQuality; fill-rule:evenodd; clip-rule:evenodd"
viewBox="0 0 609.65 202.57"
 xmlns:xlink="http://www.w3.org/1999/xlink"
 xmlns:xodm="http://www.corel.com/coreldraw/odm/2003">
 <defs>
  <style type="text/css">
   <![CDATA[
    .str0 {stroke:#CCCCCC;stroke-width:3.62;stroke-linecap:round;stroke-linejoin:round;stroke-miterlimit:22.9256}
    .fil4 {fill:none}
    .fil2 {fill:#46271A;fill-rule:nonzero}
    .fil0 {fill:#9B6A3D;fill-rule:nonzero}
    .fil3 {fill:#BC885E;fill-rule:nonzero}
    .fil1 {fill:#EED9C8;fill-rule:nonzero}
   ]]>
  </style>
 </defs>
 <g id="Layer_x0020_1">
  <metadata id="CorelCorpID_0Corel-Layer"/>
  <g id="_2537772522144">
   <path class="fil0" d="M339.71 147.24c0.15,-0.39 0.29,-0.8 0.44,-1.21 0.15,-0.42 0.27,-0.77 0.37,-1.07 0.15,-0.34 0.29,-0.69 0.44,-1.03 0.1,-0.29 0.29,-0.64 0.59,-1.03 0.29,-0.39 0.71,-0.52 1.25,-0.37 0.29,0.05 0.69,0.21 1.18,0.48 0.49,0.27 0.94,0.65 1.36,1.14 0.42,0.49 0.7,1.13 0.85,1.91 0.15,0.79 0.05,1.72 -0.29,2.79 -0.34,0.93 -0.7,1.86 -1.07,2.8 -0.37,0.93 -0.72,1.84 -1.07,2.72 -1.03,2.84 -1.67,5.05 -1.91,6.62 -0.25,1.57 -0.17,2.5 0.22,2.8l0.07 0c0.2,0.1 0.34,0.24 0.44,0.44 0.19,0.39 0.19,0.79 0,1.18 -0.15,0.25 -0.4,0.47 -0.77,0.66 -0.37,0.2 -0.77,0.33 -1.21,0.4 -0.44,0.07 -0.9,0.06 -1.36,-0.04 -0.47,-0.1 -0.89,-0.29 -1.29,-0.59 -0.2,-0.1 -0.38,-0.26 -0.55,-0.48 -0.17,-0.22 -0.31,-0.45 -0.4,-0.7 -0.15,-0.24 -0.27,-0.51 -0.37,-0.81 -0.15,-0.39 -0.26,-0.79 -0.33,-1.18 -0.07,-0.39 -0.14,-0.73 -0.18,-1.03 -0.05,-0.34 -0.05,-0.66 0,-0.96 0,-0.83 0.12,-1.81 0.37,-2.94 0.24,-1.13 0.54,-2.29 0.88,-3.49 0.34,-1.2 0.72,-2.41 1.14,-3.64 0.41,-1.23 0.82,-2.35 1.21,-3.38z"/>
   <path class="fil0" d="M287.86 148.64c3.28,-1.52 5.91,-3.43 7.87,-5.74 1.96,-2.31 3.46,-4.56 4.49,-6.77 1.22,-2.55 2.06,-5.2 2.5,-7.94 -0.98,3.48 -2.3,6.5 -3.97,9.05 -1.67,2.55 -3.31,4.68 -4.93,6.4 -1.91,1.96 -3.9,3.63 -5.96,5zm-4.93 13.68c0,-0.15 -0.05,-0.32 -0.15,-0.51 -0.44,-1.37 -0.96,-2.55 -1.54,-3.53 -0.24,-0.44 -0.5,-0.83 -0.77,-1.18 -0.27,-0.34 -0.5,-0.61 -0.7,-0.81 -0.1,-0.1 -0.17,-0.15 -0.22,-0.15l-0.15 -0.15 -0.07 -0.07c-0.05,-0.05 -0.1,-0.07 -0.15,-0.07l-0.15 -0.15 -0.07 0c0.2,0.1 0.34,0.2 0.44,0.3l0.15 0.15 0.15 0.15c0.1,0.1 0.15,0.17 0.15,0.22l0.15 0.15c0.05,0.1 0.15,0.22 0.29,0.37 0.39,0.54 0.69,1.08 0.88,1.62 0.54,1.13 0.96,2.21 1.25,3.24 0,0.1 0.01,0.17 0.04,0.22 0.02,0.05 0.04,0.12 0.04,0.22 0.05,0.1 0.07,0.17 0.07,0.22 0,0.05 0.02,0.12 0.07,0.22 0.05,0.15 0.12,0.42 0.22,0.81 0.1,0.25 0.16,0.5 0.18,0.77 0.02,0.27 0.09,0.55 0.18,0.85 0.15,0.54 0.29,1.06 0.44,1.54 0.15,0.49 0.27,1.01 0.37,1.55 0.3,0.98 0.6,1.94 0.92,2.87 0.32,0.93 0.65,1.81 0.99,2.65 0.74,1.76 1.5,3.26 2.28,4.49 0.83,1.32 1.69,2.38 2.57,3.16 0.83,0.73 1.67,1.32 2.5,1.76l0.07 0.07c0.1,0 0.15,0.02 0.15,0.07 0.1,0 0.16,0.01 0.18,0.04 0.02,0.02 0.06,0.04 0.11,0.04l0.44 0.22c0.1,0 0.17,0.02 0.22,0.07l0.22 0c0.05,0.05 0.1,0.07 0.15,0.07 0.1,0 0.17,0.02 0.22,0.07l0.22 0c0.05,0.05 0.12,0.07 0.22,0.07l0.15 0c-0.93,-0.25 -1.72,-0.56 -2.35,-0.96 -0.2,-0.15 -0.38,-0.28 -0.55,-0.4 -0.17,-0.12 -0.36,-0.26 -0.55,-0.4 -0.2,-0.15 -0.37,-0.29 -0.52,-0.44 -0.15,-0.15 -0.32,-0.29 -0.51,-0.44 -0.64,-0.69 -1.21,-1.42 -1.73,-2.21 -0.52,-0.79 -0.99,-1.59 -1.43,-2.43 -0.88,-1.67 -1.62,-3.41 -2.21,-5.22 -0.34,-0.84 -0.65,-1.68 -0.92,-2.54 -0.27,-0.86 -0.53,-1.7 -0.77,-2.54 -0.1,-0.39 -0.21,-0.78 -0.33,-1.18 -0.12,-0.39 -0.23,-0.78 -0.33,-1.18 -0.05,-0.24 -0.1,-0.45 -0.15,-0.63 -0.05,-0.17 -0.1,-0.36 -0.15,-0.55 -0.05,-0.1 -0.09,-0.18 -0.11,-0.26 -0.03,-0.07 -0.06,-0.16 -0.11,-0.26zm-15.08 -14.05c0.15,-0.39 0.29,-0.77 0.44,-1.14 0.15,-0.37 0.29,-0.75 0.44,-1.14 0.05,-0.24 0.17,-0.61 0.37,-1.1l0.44 -1.1c0.1,-0.2 0.16,-0.38 0.18,-0.55 0.02,-0.17 0.09,-0.36 0.18,-0.55 0.1,-0.2 0.24,-0.54 0.44,-1.03 0.2,-0.64 0.47,-1.32 0.81,-2.06 0.05,-0.29 0.17,-0.61 0.37,-0.96 0.1,-0.19 0.17,-0.37 0.22,-0.51 0.05,-0.15 0.1,-0.3 0.15,-0.44 0.1,-0.24 0.24,-0.56 0.44,-0.96 0.05,-0.2 0.17,-0.49 0.37,-0.88 0.24,-0.64 0.49,-1.23 0.74,-1.77 0.24,-0.54 0.49,-1.08 0.74,-1.62l0.66 -1.54 0.66 -1.32c0.39,-0.88 0.77,-1.67 1.14,-2.35 0.37,-0.69 0.67,-1.25 0.92,-1.69 0.19,-0.39 0.39,-0.76 0.59,-1.1l0.07 -0.15c0,-0.05 0.02,-0.07 0.07,-0.07 0.05,-0.05 0.07,-0.1 0.07,-0.15 -0.34,0.49 -0.66,0.97 -0.96,1.43 -0.3,0.47 -0.59,0.94 -0.88,1.43l-0.44 0.66c-0.1,0.15 -0.16,0.28 -0.18,0.4 -0.02,0.12 -0.09,0.23 -0.18,0.33 -0.1,0.1 -0.17,0.22 -0.22,0.37 -0.05,0.15 -0.12,0.27 -0.22,0.37 -0.1,0.1 -0.16,0.21 -0.18,0.33 -0.03,0.12 -0.09,0.26 -0.18,0.4 -0.54,0.93 -1.05,1.86 -1.54,2.8 -0.49,0.93 -0.96,1.89 -1.4,2.87 -0.93,1.86 -1.78,3.71 -2.54,5.55 -0.76,1.84 -1.48,3.64 -2.17,5.41l-0.44 1.32c-0.2,0.39 -0.37,0.81 -0.51,1.25l-0.44 1.32c-0.1,0.2 -0.17,0.39 -0.22,0.59 -0.05,0.2 -0.12,0.42 -0.22,0.66 -0.1,0.2 -0.17,0.39 -0.22,0.59 -0.05,0.2 -0.12,0.42 -0.22,0.66 -0.2,0.44 -0.32,0.83 -0.37,1.18 -0.1,0.29 -0.17,0.49 -0.22,0.59 -0.1,0.3 -0.15,0.52 -0.15,0.66 -0.2,0.44 -0.32,0.83 -0.37,1.18 -0.25,0.78 -0.47,1.56 -0.66,2.32 -0.2,0.76 -0.37,1.51 -0.52,2.24 -0.2,0.73 -0.37,1.46 -0.51,2.17 -0.15,0.71 -0.27,1.41 -0.37,2.1 0,0.29 -0.05,0.64 -0.15,1.03 0,0.2 -0.01,0.37 -0.04,0.51 -0.03,0.15 -0.04,0.32 -0.04,0.51 0,0.1 -0.01,0.17 -0.04,0.22 -0.03,0.05 -0.04,0.12 -0.04,0.22l0 0.52c-0.05,0.1 -0.07,0.24 -0.07,0.44l0 0.44c-0.15,1.13 -0.17,2.3 -0.07,3.53 0,0.54 0.02,1.05 0.07,1.54 0.05,0.49 0.12,0.96 0.22,1.4 0.15,0.98 0.37,1.79 0.66,2.43 0.1,0.39 0.23,0.73 0.4,1.03 0.17,0.29 0.33,0.56 0.48,0.81 0.19,0.29 0.34,0.49 0.44,0.59 0.05,0.1 0.12,0.19 0.22,0.29l0.07 0.07 0.15 0.15c0.05,0.05 0.07,0.09 0.07,0.11 0,0.02 0.02,0.06 0.07,0.11 0.05,0 0.12,0.05 0.22,0.15l0.15 0.07 0.15 0.15c0.05,0.05 0.1,0.07 0.15,0.07l0.07 0.07c-0.64,-0.54 -1.13,-1.13 -1.47,-1.77 -0.2,-0.34 -0.36,-0.7 -0.48,-1.07 -0.12,-0.37 -0.23,-0.75 -0.33,-1.14 -0.2,-0.74 -0.34,-1.52 -0.44,-2.35 0,-0.29 -0.03,-0.49 -0.07,-0.59l0 -0.37 0 -0.29c0,-0.25 -0.03,-0.44 -0.07,-0.59l0 -0.66c0,-0.1 0.01,-0.2 0.04,-0.29 0.02,-0.1 0.04,-0.2 0.04,-0.3l0 -0.66 0 -0.59c0,-0.19 0.02,-0.42 0.07,-0.66 0,-0.25 0.02,-0.44 0.07,-0.59 0,-0.29 0.02,-0.51 0.07,-0.66 0,-0.25 0.01,-0.45 0.04,-0.63 0.02,-0.17 0.06,-0.38 0.11,-0.63 0.1,-0.83 0.22,-1.68 0.37,-2.54 0.15,-0.86 0.34,-1.7 0.59,-2.54 0.39,-1.72 0.82,-3.39 1.29,-5.04 0.47,-1.64 0.97,-3.25 1.51,-4.82 0.05,-0.24 0.1,-0.45 0.15,-0.63 0.05,-0.17 0.12,-0.36 0.22,-0.55 0.1,-0.24 0.17,-0.45 0.22,-0.63 0.05,-0.17 0.1,-0.38 0.15,-0.63 0.34,-0.83 0.61,-1.59 0.81,-2.28zm-2.06 -27.21c3.04,-2.06 5.96,-3.72 8.75,-5 2.8,-1.28 5.3,-2.28 7.5,-3.02 2.55,-0.88 4.93,-1.52 7.13,-1.91 -4.07,0.39 -7.8,1.15 -11.18,2.28 -3.38,1.13 -6.46,2.5 -9.23,4.12 -2.77,1.62 -5.23,3.38 -7.39,5.3 -2.16,1.91 -4.04,3.82 -5.66,5.74 -3.83,4.51 -6.82,9.54 -8.97,15.08 1.42,-2.8 3.09,-5.54 5,-8.24 1.62,-2.35 3.59,-4.82 5.92,-7.39 2.33,-2.57 5.04,-4.89 8.13,-6.95zm38.47 7.87c-0.49,2.89 -1.47,5.65 -2.94,8.27 -1.47,2.62 -3.26,5.02 -5.37,7.17 -2.11,2.16 -4.4,4.01 -6.88,5.55 -2.48,1.54 -4.94,2.64 -7.39,3.27 1.08,0.69 2.07,1.58 2.98,2.68 0.91,1.1 1.63,2.56 2.17,4.38 1.72,5.44 3.78,9.94 6.18,13.5 2.4,3.55 5.37,5.82 8.9,6.8 0.44,0.1 0.81,0.24 1.1,0.44 0.24,0.2 0.47,0.44 0.66,0.74 0.2,0.29 0.27,0.66 0.22,1.1 -0.1,0.64 -0.66,1.29 -1.69,1.95 -1.03,0.66 -2.32,1.07 -3.86,1.21 -1.54,0.15 -3.21,-0.14 -5,-0.85 -1.79,-0.71 -3.47,-2.09 -5.04,-4.16 -1.13,-1.37 -2.11,-3.06 -2.94,-5.07 -0.84,-2.01 -1.55,-3.95 -2.13,-5.81 -0.59,-1.86 -1.04,-3.48 -1.36,-4.85 -0.32,-1.37 -0.48,-2.11 -0.48,-2.21 0,-0.05 -0.01,-0.09 -0.04,-0.11 -0.02,-0.02 -0.04,-0.09 -0.04,-0.18 -0.44,-1.86 -1.1,-3.37 -1.99,-4.52 -0.88,-1.15 -1.85,-2.02 -2.91,-2.61 -1.05,-0.59 -2.15,-0.96 -3.27,-1.1 -1.13,-0.15 -2.16,-0.17 -3.09,-0.07 -1.76,5.25 -2.97,9.54 -3.6,12.87 -0.64,3.33 -0.91,5.98 -0.81,7.94 0.1,1.96 0.47,3.38 1.1,4.27 0.64,0.88 1.35,1.51 2.13,1.88 0.78,0.37 1.52,0.6 2.21,0.7 0.69,0.1 1.15,0.37 1.4,0.81 0.39,0.69 0.33,1.25 -0.18,1.69 -0.51,0.44 -1.04,0.76 -1.58,0.96 -0.39,0.1 -0.78,0.16 -1.18,0.18 -0.39,0.02 -0.76,0.01 -1.1,-0.04 -0.39,-0.05 -0.76,-0.1 -1.1,-0.15 -2.11,-0.64 -3.75,-1.74 -4.93,-3.31 -1.18,-1.57 -1.97,-3.43 -2.39,-5.59 -0.42,-2.16 -0.51,-4.57 -0.29,-7.24 0.22,-2.67 0.66,-5.45 1.32,-8.35 0.66,-2.89 1.48,-5.81 2.46,-8.75 0.98,-2.94 2.03,-5.78 3.16,-8.53 1.62,-4.02 3.03,-7.32 4.23,-9.89 1.2,-2.57 2.22,-4.65 3.05,-6.22 0.93,-1.76 1.74,-3.14 2.43,-4.12 0.44,-0.64 0.96,-1.18 1.54,-1.62 0.49,-0.39 1.09,-0.71 1.8,-0.96 0.71,-0.24 1.48,-0.29 2.32,-0.15 0.88,0.15 1.59,0.42 2.13,0.81 0.44,0.34 0.74,0.8 0.88,1.36 0.15,0.56 -0.12,1.34 -0.81,2.32l-0.37 0.37c-0.1,0.1 -0.22,0.23 -0.37,0.4 -0.15,0.17 -0.29,0.31 -0.44,0.4 -0.15,0.15 -0.5,0.53 -1.07,1.14 -0.56,0.61 -1.3,1.73 -2.21,3.35 -0.91,1.62 -2.02,3.89 -3.35,6.8 -1.32,2.92 -2.85,6.73 -4.56,11.44 1.76,0.59 3.97,0.48 6.62,-0.33 2.65,-0.81 5.74,-2.68 9.27,-5.63 2.35,-2.01 4.28,-4.11 5.77,-6.29 1.49,-2.18 2.66,-4.2 3.49,-6.07 0.98,-2.16 1.71,-4.29 2.21,-6.4 0.39,-1.86 0.52,-3.36 0.37,-4.49 -0.15,-1.13 -0.42,-1.98 -0.81,-2.57 -0.44,-0.69 -1.03,-1.18 -1.77,-1.47 -1.42,-0.78 -3.54,-1.05 -6.36,-0.81 -2.82,0.25 -5.97,1.01 -9.45,2.28 -3.48,1.28 -7.07,3.05 -10.77,5.33 -3.7,2.28 -7.12,5.06 -10.26,8.35 -2.8,2.89 -4.9,5.57 -6.32,8.02 -1.42,2.45 -2.48,4.61 -3.16,6.47 -0.78,2.16 -1.2,4.12 -1.25,5.89 -0.15,0.79 -0.37,1.45 -0.66,1.99 -0.25,0.44 -0.63,0.75 -1.14,0.92 -0.51,0.17 -1.16,-0.04 -1.95,-0.63 -0.83,-0.59 -1.41,-1.66 -1.73,-3.2 -0.32,-1.54 -0.28,-3.38 0.11,-5.52 0.39,-2.13 1.19,-4.49 2.39,-7.06 1.2,-2.57 2.88,-5.21 5.04,-7.91 1.62,-2.01 3.56,-4.06 5.81,-6.14 2.25,-2.08 4.69,-4.04 7.32,-5.88 2.62,-1.84 5.37,-3.46 8.24,-4.85 2.87,-1.4 5.72,-2.41 8.57,-3.05 2.84,-0.64 5.59,-0.81 8.24,-0.51 2.65,0.29 5.1,1.23 7.35,2.8 1.62,1.08 3.04,2.43 4.27,4.05 1.03,1.37 1.89,3.09 2.57,5.15 0.69,2.06 0.81,4.49 0.37,7.28z"/>
   <path class="fil0" d="M309.7 146.87c0.29,-0.39 0.48,-0.78 0.55,-1.18 0.07,-0.39 0.02,-0.71 -0.15,-0.96 -0.17,-0.24 -0.48,-0.37 -0.92,-0.37 -0.44,0 -0.98,0.2 -1.62,0.59 -0.64,0.39 -1.26,0.92 -1.88,1.58 -0.61,0.66 -1.14,1.31 -1.58,1.95 -0.44,0.64 -0.8,1.19 -1.07,1.66 -0.27,0.47 -0.36,0.7 -0.26,0.7 0.39,0 0.92,-0.12 1.58,-0.37 0.66,-0.24 1.32,-0.58 1.99,-0.99 0.66,-0.42 1.3,-0.86 1.91,-1.33 0.61,-0.47 1.09,-0.89 1.43,-1.29zm-13.31 8.68c0.44,-1.42 1.03,-2.84 1.76,-4.27 0.64,-1.23 1.43,-2.52 2.39,-3.9 0.96,-1.37 2.12,-2.62 3.49,-3.75 1.86,-1.52 3.39,-2.45 4.6,-2.8 1.2,-0.34 2.12,-0.39 2.76,-0.15 -0.2,-0.19 -0.42,-0.39 -0.66,-0.59 -0.54,-0.34 -1.28,-0.44 -2.21,-0.29 -0.59,0.1 -1.43,0.49 -2.54,1.18 -1.1,0.69 -2.27,1.67 -3.49,2.94 -1.23,1.28 -2.39,2.88 -3.49,4.82 -1.1,1.94 -1.97,4.21 -2.61,6.8zm18.39 -1.62c0.54,0.05 0.85,0.53 0.92,1.43 0.07,0.91 -0.06,1.88 -0.4,2.91 -0.39,1.08 -0.94,2.15 -1.66,3.2 -0.71,1.05 -1.59,1.99 -2.65,2.79 -1.05,0.81 -2.28,1.43 -3.68,1.88 -1.4,0.44 -2.95,0.59 -4.67,0.44 -1.62,-0.15 -3.04,-0.64 -4.27,-1.47 -1.03,-0.69 -1.95,-1.73 -2.76,-3.13 -0.81,-1.4 -1.09,-3.39 -0.85,-5.99 0.15,-1.67 0.54,-3.36 1.18,-5.08 0.54,-1.47 1.36,-3.05 2.46,-4.74 1.1,-1.69 2.64,-3.3 4.6,-4.82 0.93,-0.69 1.89,-1.28 2.87,-1.77 0.83,-0.39 1.74,-0.7 2.72,-0.92 0.98,-0.22 1.89,-0.14 2.72,0.26 1.47,0.64 2.35,1.59 2.65,2.87 0.3,1.28 0.22,2.43 -0.22,3.46 -0.24,0.54 -0.58,1.19 -0.99,1.95 -0.42,0.76 -1.06,1.56 -1.91,2.39 -0.86,0.83 -2.02,1.67 -3.49,2.5 -1.47,0.83 -3.36,1.57 -5.66,2.21 -0.59,1.57 -0.96,2.99 -1.1,4.27 -0.1,1.13 -0.01,2.2 0.26,3.2 0.27,1 1.02,1.7 2.24,2.09 1.18,0.39 2.29,0.39 3.35,0 1.05,-0.39 2.01,-0.98 2.87,-1.76 0.86,-0.79 1.59,-1.69 2.21,-2.72 0.61,-1.03 1.07,-1.99 1.36,-2.87 0.1,-0.19 0.21,-0.44 0.33,-0.73 0.12,-0.3 0.27,-0.59 0.44,-0.88 0.17,-0.29 0.35,-0.53 0.55,-0.7 0.2,-0.17 0.39,-0.26 0.59,-0.26z"/>
   <path class="fil0" d="M318.53 162.32c0.69,-3.33 1.57,-6.36 2.65,-9.08 1.08,-2.72 2.13,-5.06 3.16,-7.02 1.22,-2.3 2.5,-4.36 3.82,-6.18 -2.31,2.25 -4.09,4.67 -5.37,7.24 -1.28,2.57 -2.23,4.99 -2.87,7.25 -0.74,2.65 -1.2,5.25 -1.4,7.8zm17.14 -25.37c1.08,1.03 1.68,2.13 1.8,3.31 0.12,1.18 -0.04,2.33 -0.48,3.46 -0.2,0.39 -0.42,0.73 -0.66,1.03 -0.25,0.25 -0.52,0.47 -0.81,0.66 -0.29,0.2 -0.64,0.25 -1.03,0.15 -0.34,-0.1 -0.64,-0.33 -0.88,-0.7 -0.25,-0.37 -0.25,-0.87 0,-1.51 0.1,-0.39 0.2,-0.73 0.29,-1.03 0.1,-0.3 0.17,-0.56 0.22,-0.81 0.05,-0.24 0.1,-0.49 0.15,-0.73 -1.23,0.98 -2.4,2.25 -3.53,3.83 -1.13,1.57 -2.16,3.28 -3.09,5.15 -0.93,1.87 -1.76,3.75 -2.5,5.66 -0.73,1.91 -1.3,3.68 -1.69,5.3 -0.39,1.62 -0.61,2.99 -0.66,4.12 -0.05,1.13 0.15,1.81 0.59,2.06 0.59,0.34 1.4,0.23 2.43,-0.33 1.03,-0.56 2.06,-1.29 3.09,-2.17 1.03,-0.88 1.95,-1.78 2.76,-2.68 0.81,-0.91 1.31,-1.51 1.51,-1.8 0.24,-0.29 0.5,-0.47 0.77,-0.51 0.27,-0.05 0.5,0.05 0.7,0.29 0.2,0.29 0.24,0.64 0.15,1.03l-0.15 0.59c-0.15,0.49 -0.48,1.13 -0.99,1.91 -0.52,0.79 -1.14,1.57 -1.88,2.35 -0.73,0.78 -1.53,1.53 -2.39,2.24 -0.86,0.71 -1.73,1.24 -2.61,1.58 -1.37,0.54 -2.54,0.81 -3.49,0.81 -0.96,0 -1.78,-0.12 -2.46,-0.37 -0.79,-0.24 -1.45,-0.64 -1.99,-1.18 -0.98,-0.93 -1.63,-2.12 -1.95,-3.57 -0.32,-1.45 -0.39,-3.04 -0.22,-4.78 0.17,-1.74 0.54,-3.54 1.1,-5.41 0.56,-1.86 1.25,-3.67 2.06,-5.41 0.81,-1.74 1.67,-3.36 2.57,-4.85 0.91,-1.49 1.8,-2.76 2.68,-3.79 1.18,-1.42 2.4,-2.57 3.68,-3.46 1.08,-0.74 2.22,-1.24 3.42,-1.51 1.2,-0.27 2.36,0.09 3.49,1.07z"/>
   <path class="fil1" d="M340.22 150.62c0.39,-1.23 0.75,-2.28 1.07,-3.16 0.32,-0.88 0.58,-1.74 0.77,-2.57 -0.93,2.01 -1.72,3.95 -2.35,5.81 -0.54,1.57 -1.02,3.21 -1.43,4.93 -0.42,1.72 -0.53,3.16 -0.33,4.34 0.2,-0.93 0.39,-1.91 0.59,-2.94 0.19,-0.88 0.43,-1.88 0.7,-2.98 0.27,-1.1 0.6,-2.24 0.99,-3.42z"/>
   <path class="fil0" d="M369.79 155.7c2.21,-2.65 3.81,-5.21 4.82,-7.69 1,-2.48 1.68,-4.7 2.02,-6.66 0.39,-2.31 0.47,-4.46 0.22,-6.47 -0.25,3.14 -0.73,5.97 -1.47,8.5 -0.73,2.52 -1.52,4.72 -2.35,6.58 -0.98,2.16 -2.06,4.07 -3.24,5.74zm-22.43 6.69c1.03,-3.04 2.16,-6.08 3.38,-9.12 1.03,-2.6 2.21,-5.38 3.53,-8.35 1.32,-2.97 2.7,-5.67 4.12,-8.13 -1.37,1.77 -2.7,3.9 -3.97,6.4 -1.13,2.16 -2.33,4.82 -3.6,7.98 -1.28,3.16 -2.43,6.9 -3.46,11.22zm27.95 -31.11c1.08,0.29 1.88,0.96 2.39,1.99 0.51,1.03 0.78,2.29 0.81,3.79 0.02,1.5 -0.18,3.18 -0.63,5.04 -0.44,1.86 -1.04,3.75 -1.8,5.66 -0.76,1.91 -1.67,3.79 -2.72,5.63 -1.05,1.84 -2.21,3.49 -3.46,4.96 -1.25,1.47 -2.56,2.71 -3.93,3.71 -1.37,1.01 -2.77,1.63 -4.19,1.88 -0.83,0.1 -1.57,0.05 -2.21,-0.15 -0.54,-0.15 -1.04,-0.42 -1.51,-0.81 -0.47,-0.39 -0.7,-1.05 -0.7,-1.99 0,-0.54 0.07,-1.03 0.22,-1.47 0.1,-0.39 0.27,-0.74 0.51,-1.03 0.24,-0.3 0.64,-0.39 1.18,-0.3 0.44,0.1 1.13,-0.15 2.06,-0.73 0.93,-0.59 1.99,-1.57 3.16,-2.94 1.18,-1.37 2.41,-3.17 3.71,-5.41 1.3,-2.23 2.54,-4.94 3.71,-8.13 0.24,-0.69 0.42,-1.3 0.51,-1.84 0.1,-0.44 0.12,-0.85 0.07,-1.21 -0.05,-0.37 -0.27,-0.58 -0.66,-0.63 -0.34,0 -1.06,0.51 -2.13,1.54 -1.08,1.03 -2.34,2.45 -3.79,4.27 -1.45,1.82 -2.99,3.93 -4.63,6.36 -1.64,2.43 -3.24,4.99 -4.78,7.68 -1.55,2.7 -2.95,5.47 -4.23,8.31 -1.28,2.84 -2.23,5.59 -2.87,8.24 -0.1,0.69 -0.2,1.53 -0.3,2.54 -0.1,1 -0.1,2.05 0,3.13 0.05,0.15 0.07,0.32 0.07,0.51 0,0.2 -0.05,0.54 -0.15,1.03 -0.15,0.39 -0.45,0.74 -0.92,1.03 -0.47,0.29 -0.99,0.32 -1.58,0.07 -0.49,-0.2 -0.99,-0.48 -1.51,-0.85 -0.51,-0.37 -0.98,-0.85 -1.4,-1.43 -0.42,-0.59 -0.72,-1.3 -0.92,-2.13 -0.19,-0.84 -0.22,-1.82 -0.07,-2.94 0.15,-1.03 0.53,-2.83 1.14,-5.41 0.61,-2.57 1.47,-5.57 2.57,-8.97 1.1,-3.41 2.45,-7.04 4.05,-10.89 1.59,-3.85 3.44,-7.59 5.55,-11.22 0.34,-0.54 0.69,-1.05 1.03,-1.54 0.3,-0.39 0.61,-0.77 0.96,-1.14 0.34,-0.37 0.71,-0.6 1.1,-0.7 0.49,-0.19 1.03,-0.31 1.62,-0.33 0.59,-0.02 1.09,0.06 1.51,0.26 0.42,0.2 0.64,0.54 0.66,1.03 0.02,0.49 -0.26,1.15 -0.84,1.99 -0.93,1.32 -2.13,3.64 -3.6,6.95 -1.47,3.31 -2.97,7.29 -4.49,11.95 0.88,-1.67 1.88,-3.48 2.98,-5.44 1.1,-1.96 2.27,-3.92 3.49,-5.88 1.23,-1.96 2.5,-3.85 3.83,-5.66 1.32,-1.81 2.63,-3.38 3.93,-4.71 1.3,-1.33 2.56,-2.33 3.79,-3.02 1.22,-0.69 2.35,-0.91 3.38,-0.66z"/>
   <path class="fil0" d="M390.82 146.87c0.3,-0.39 0.48,-0.78 0.55,-1.18 0.07,-0.39 0.02,-0.71 -0.15,-0.96 -0.17,-0.24 -0.48,-0.37 -0.92,-0.37 -0.44,0 -0.98,0.2 -1.62,0.59 -0.64,0.39 -1.26,0.92 -1.88,1.58 -0.61,0.66 -1.14,1.31 -1.58,1.95 -0.44,0.64 -0.8,1.19 -1.07,1.66 -0.27,0.47 -0.36,0.7 -0.26,0.7 0.39,0 0.92,-0.12 1.58,-0.37 0.66,-0.24 1.32,-0.58 1.99,-0.99 0.66,-0.42 1.3,-0.86 1.91,-1.33 0.61,-0.47 1.09,-0.89 1.43,-1.29zm-13.31 8.68c0.44,-1.42 1.03,-2.84 1.77,-4.27 0.64,-1.23 1.43,-2.52 2.39,-3.9 0.96,-1.37 2.12,-2.62 3.49,-3.75 1.86,-1.52 3.39,-2.45 4.6,-2.8 1.2,-0.34 2.12,-0.39 2.76,-0.15 -0.2,-0.19 -0.42,-0.39 -0.66,-0.59 -0.54,-0.34 -1.28,-0.44 -2.21,-0.29 -0.59,0.1 -1.43,0.49 -2.54,1.18 -1.1,0.69 -2.27,1.67 -3.49,2.94 -1.23,1.28 -2.39,2.88 -3.49,4.82 -1.1,1.94 -1.97,4.21 -2.61,6.8zm18.39 -1.62c0.54,0.05 0.85,0.53 0.92,1.43 0.07,0.91 -0.06,1.88 -0.4,2.91 -0.39,1.08 -0.94,2.15 -1.66,3.2 -0.71,1.05 -1.59,1.99 -2.65,2.79 -1.05,0.81 -2.28,1.43 -3.68,1.88 -1.4,0.44 -2.96,0.59 -4.67,0.44 -1.62,-0.15 -3.04,-0.64 -4.27,-1.47 -1.03,-0.69 -1.95,-1.73 -2.76,-3.13 -0.81,-1.4 -1.09,-3.39 -0.85,-5.99 0.15,-1.67 0.54,-3.36 1.18,-5.08 0.54,-1.47 1.36,-3.05 2.46,-4.74 1.1,-1.69 2.63,-3.3 4.6,-4.82 0.93,-0.69 1.89,-1.28 2.87,-1.77 0.83,-0.39 1.74,-0.7 2.72,-0.92 0.98,-0.22 1.89,-0.14 2.72,0.26 1.47,0.64 2.35,1.59 2.65,2.87 0.29,1.28 0.22,2.43 -0.22,3.46 -0.25,0.54 -0.58,1.19 -0.99,1.95 -0.42,0.76 -1.06,1.56 -1.91,2.39 -0.86,0.83 -2.02,1.67 -3.49,2.5 -1.47,0.83 -3.36,1.57 -5.66,2.21 -0.59,1.57 -0.96,2.99 -1.1,4.27 -0.1,1.13 -0.01,2.2 0.26,3.2 0.27,1 1.02,1.7 2.24,2.09 1.18,0.39 2.29,0.39 3.35,0 1.05,-0.39 2.01,-0.98 2.87,-1.76 0.86,-0.79 1.59,-1.69 2.21,-2.72 0.61,-1.03 1.07,-1.99 1.36,-2.87 0.1,-0.19 0.21,-0.44 0.33,-0.73 0.12,-0.3 0.27,-0.59 0.44,-0.88 0.17,-0.29 0.36,-0.53 0.55,-0.7 0.2,-0.17 0.39,-0.26 0.59,-0.26z"/>
   <path class="fil2" d="M248.14 60.09c-0.1,0.25 -0.2,0.47 -0.29,0.66 -0.1,0.2 -0.2,0.42 -0.29,0.66 -0.1,0.25 -0.2,0.47 -0.29,0.66 -0.1,0.2 -0.2,0.39 -0.29,0.59 -0.2,0.39 -0.39,0.77 -0.59,1.14 -0.2,0.37 -0.39,0.72 -0.59,1.07 -0.83,1.42 -1.57,2.6 -2.21,3.53 -0.39,0.49 -0.72,0.91 -0.99,1.25 -0.27,0.34 -0.5,0.64 -0.7,0.88l-0.29 0.3c-0.1,0.15 -0.17,0.22 -0.22,0.22 -0.05,0.05 -0.07,0.1 -0.07,0.15 0,0.05 -0.03,0.07 -0.07,0.07 0.24,-0.19 0.52,-0.4 0.81,-0.63 0.29,-0.22 0.56,-0.45 0.81,-0.7 0.25,-0.24 0.5,-0.52 0.77,-0.81 0.27,-0.29 0.53,-0.59 0.77,-0.88 0.93,-1.27 1.67,-2.5 2.21,-3.68 0.29,-0.64 0.54,-1.22 0.74,-1.76 0.19,-0.54 0.34,-1 0.44,-1.4 0.1,-0.25 0.16,-0.44 0.18,-0.59 0.02,-0.15 0.06,-0.27 0.11,-0.37l0 -0.3 0.07 -0.07zm-14.49 68.77c-0.2,-0.05 -0.38,-0.12 -0.55,-0.22 -0.17,-0.1 -0.36,-0.2 -0.55,-0.29 -0.2,-0.1 -0.38,-0.21 -0.55,-0.33 -0.17,-0.12 -0.33,-0.28 -0.48,-0.48 -0.15,-0.15 -0.28,-0.31 -0.41,-0.48 -0.12,-0.17 -0.23,-0.36 -0.33,-0.55 -0.2,-0.3 -0.37,-0.69 -0.52,-1.18 -0.24,-0.64 -0.42,-1.28 -0.51,-1.91 -0.05,-0.2 -0.07,-0.39 -0.07,-0.59l0 -0.22 -0.07 0c-0.05,0.29 -0.07,0.59 -0.07,0.88l0 0.88c0,0.15 0.01,0.28 0.04,0.41 0.02,0.12 0.06,0.26 0.11,0.4 0,0.15 0.01,0.28 0.04,0.4 0.02,0.12 0.06,0.26 0.11,0.4 0.1,0.25 0.21,0.48 0.33,0.7 0.12,0.22 0.23,0.43 0.33,0.63 0.3,0.39 0.59,0.69 0.88,0.88 0.1,0.1 0.18,0.16 0.26,0.18 0.07,0.03 0.16,0.06 0.26,0.11l0.44 0.22c0.05,0 0.09,0.01 0.11,0.03 0.02,0.02 0.06,0.04 0.11,0.04l0.15 0c0.05,0.05 0.12,0.07 0.22,0.07l0.15 0c0.05,0 0.09,0.01 0.11,0.04 0.02,0.02 0.06,0.04 0.11,0.04l0.22 0 0.15 0 0 -0.07zm2.43 -41.48c0.1,0 0.17,-0.01 0.22,-0.04 0.05,-0.02 0.1,-0.04 0.15,-0.04l0.15 0c-1.42,0 -2.89,0.07 -4.41,0.22 -0.39,0.05 -0.77,0.09 -1.14,0.11 -0.37,0.03 -0.75,0.06 -1.14,0.11 -0.39,0.05 -0.77,0.1 -1.14,0.15 -0.37,0.05 -0.75,0.12 -1.14,0.22 -1.62,0.25 -3.14,0.54 -4.56,0.88 -0.78,0.2 -1.52,0.38 -2.21,0.55 -0.69,0.17 -1.37,0.38 -2.06,0.62 -1.32,0.44 -2.53,0.91 -3.6,1.4 -1.08,0.49 -2.01,0.96 -2.8,1.4 -0.83,0.49 -1.4,0.86 -1.69,1.1l-0.44 0.3c-0.05,0.05 -0.1,0.07 -0.15,0.07 -0.05,0 -0.07,0.02 -0.07,0.07 0.24,-0.15 0.46,-0.28 0.66,-0.41 0.2,-0.12 0.42,-0.26 0.66,-0.4l1.32 -0.66 2.65 -1.1c0.44,-0.15 0.87,-0.29 1.29,-0.44 0.42,-0.15 0.85,-0.29 1.29,-0.44 0.39,-0.15 0.79,-0.28 1.21,-0.4 0.42,-0.12 0.82,-0.23 1.21,-0.33 1.62,-0.44 3.16,-0.81 4.63,-1.1 0.1,-0.05 0.18,-0.07 0.26,-0.07 0.07,0 0.16,-0.02 0.26,-0.07l0.22 0c0.05,-0.05 0.15,-0.07 0.3,-0.07 0.19,-0.05 0.54,-0.12 1.03,-0.22 0.15,-0.05 0.29,-0.07 0.44,-0.07 0.14,0 0.32,-0.03 0.51,-0.07 0.1,-0.05 0.24,-0.07 0.44,-0.07 0.1,-0.05 0.17,-0.08 0.22,-0.08 0.05,0 0.12,-0.02 0.22,-0.07 0.34,-0.05 0.65,-0.09 0.92,-0.11 0.27,-0.02 0.55,-0.06 0.84,-0.11 0.29,-0.1 0.54,-0.15 0.74,-0.15 0.15,-0.05 0.28,-0.07 0.4,-0.07 0.12,0 0.23,-0.02 0.33,-0.07 0.34,0 0.59,-0.02 0.74,-0.07 0.15,0 0.24,-0.02 0.29,-0.07l0.3 0c0.24,-0.05 0.45,-0.08 0.62,-0.11 0.17,-0.02 0.33,-0.04 0.48,-0.04 0.2,-0.05 0.37,-0.07 0.52,-0.07 0.15,0 0.27,-0.03 0.37,-0.07 0.15,0 0.27,-0.01 0.37,-0.04 0.1,-0.02 0.19,-0.04 0.29,-0.04zm-2.65 -35.89c-0.2,0.05 -0.38,0.1 -0.55,0.15 -0.17,0.05 -0.36,0.1 -0.55,0.15 -0.1,0.05 -0.18,0.09 -0.26,0.11 -0.07,0.02 -0.16,0.06 -0.26,0.11 -0.1,0.05 -0.18,0.09 -0.26,0.11 -0.07,0.03 -0.16,0.06 -0.26,0.11 -0.34,0.15 -0.69,0.29 -1.03,0.44 -0.34,0.15 -0.69,0.32 -1.03,0.52 -1.23,0.59 -2.5,1.32 -3.82,2.21 -1.33,0.83 -2.53,1.67 -3.6,2.5 -0.15,0.15 -0.42,0.37 -0.81,0.66 -0.1,0.1 -0.17,0.16 -0.22,0.18 -0.05,0.03 -0.13,0.09 -0.22,0.19 -0.1,0.05 -0.16,0.1 -0.19,0.15 -0.02,0.05 -0.09,0.12 -0.18,0.22 -0.29,0.25 -0.58,0.47 -0.85,0.66 -0.27,0.2 -0.53,0.42 -0.77,0.66l-0.22 0.22 -0.15 0.15c-0.2,0.2 -0.34,0.32 -0.44,0.37l-0.73 0.74 -0.73 0.74 -0.37 0.37 -0.22 0.15 -0.15 0.22 -0.73 0.73c-0.1,0.1 -0.21,0.22 -0.33,0.37 -0.12,0.15 -0.23,0.27 -0.33,0.37 -0.1,0.1 -0.21,0.22 -0.33,0.37 -0.12,0.15 -0.26,0.27 -0.4,0.37 -0.1,0.15 -0.21,0.28 -0.33,0.4 -0.12,0.12 -0.23,0.26 -0.33,0.4 -0.29,0.29 -0.51,0.54 -0.66,0.73 -0.05,0.1 -0.14,0.22 -0.29,0.37l-0.15 0.22 -0.15 0.15c-0.25,0.25 -0.47,0.5 -0.66,0.77 -0.2,0.27 -0.39,0.53 -0.59,0.77 -0.24,0.24 -0.45,0.5 -0.63,0.77 -0.17,0.27 -0.35,0.53 -0.55,0.77 -0.1,0.1 -0.16,0.17 -0.18,0.22 -0.02,0.05 -0.06,0.1 -0.11,0.15 -0.05,0.1 -0.1,0.17 -0.15,0.22 -0.05,0.05 -0.1,0.12 -0.15,0.22 -0.2,0.29 -0.39,0.54 -0.59,0.73 -0.1,0.15 -0.18,0.28 -0.26,0.41 -0.07,0.12 -0.16,0.26 -0.26,0.4 -0.1,0.1 -0.18,0.22 -0.26,0.37 -0.07,0.15 -0.16,0.27 -0.26,0.37 -0.24,0.3 -0.42,0.56 -0.51,0.81 -0.15,0.15 -0.24,0.27 -0.29,0.37 -0.1,0.2 -0.17,0.32 -0.22,0.37 -0.2,0.25 -0.37,0.5 -0.51,0.77 -0.15,0.27 -0.32,0.53 -0.51,0.77 -0.1,0.2 -0.17,0.32 -0.22,0.37l-0.22 0.44c-0.1,0.1 -0.17,0.22 -0.22,0.37 -0.05,0.15 -0.12,0.27 -0.22,0.37 -0.1,0.15 -0.18,0.28 -0.26,0.41 -0.07,0.12 -0.16,0.26 -0.26,0.4 -0.05,0.05 -0.12,0.17 -0.22,0.37 -0.05,0.05 -0.12,0.17 -0.22,0.37 -0.2,0.49 -0.47,0.98 -0.81,1.47 -0.1,0.15 -0.17,0.28 -0.22,0.4 -0.05,0.12 -0.12,0.26 -0.22,0.4 -0.2,0.3 -0.32,0.54 -0.37,0.74 -0.15,0.24 -0.28,0.49 -0.4,0.73 -0.12,0.25 -0.26,0.49 -0.4,0.74 -0.49,0.98 -0.94,1.96 -1.36,2.94 -0.42,0.98 -0.82,1.96 -1.21,2.94 -0.39,0.98 -0.73,1.93 -1.03,2.83 -0.3,0.91 -0.56,1.8 -0.81,2.68 -0.54,1.82 -0.93,3.54 -1.18,5.19 -0.24,1.64 -0.39,3.17 -0.44,4.6 -0.05,1.47 0.03,2.82 0.22,4.05 0.2,1.22 0.47,2.33 0.81,3.31 0.34,0.98 0.71,1.79 1.1,2.43 0.1,0.1 0.2,0.25 0.3,0.44 0.05,0 0.07,0.02 0.07,0.07 0,0.05 0.01,0.07 0.04,0.07 0.02,0 0.04,0.02 0.04,0.07 0.05,0.05 0.07,0.09 0.07,0.11 0,0.02 0.02,0.06 0.07,0.11 0.15,0.15 0.32,0.37 0.51,0.66 0.05,0.1 0.12,0.2 0.22,0.3l0.22 0.22 0.37 0.37c0.05,0.1 0.09,0.15 0.11,0.15 0.02,0 0.06,0.02 0.11,0.07l0.07 0.07c-1.42,-1.57 -2.4,-3.41 -2.94,-5.52 -0.34,-1.13 -0.54,-2.21 -0.59,-3.24 -0.05,-0.54 -0.08,-1.09 -0.08,-1.65l0 -1.66c0.05,-0.54 0.1,-1.09 0.15,-1.65 0.05,-0.56 0.12,-1.14 0.22,-1.73 0.15,-1.08 0.37,-2.18 0.66,-3.31 0.25,-1.13 0.55,-2.24 0.92,-3.35 0.37,-1.1 0.75,-2.19 1.14,-3.27 0.39,-1.13 0.81,-2.22 1.25,-3.27 0.44,-1.05 0.93,-2.1 1.47,-3.13 0.24,-0.54 0.5,-1.05 0.77,-1.54 0.27,-0.49 0.53,-1 0.77,-1.54l0.22 -0.37 0.22 -0.37c0.1,-0.24 0.22,-0.49 0.37,-0.73 0.15,-0.24 0.29,-0.49 0.44,-0.74 0.15,-0.24 0.29,-0.49 0.44,-0.74 0.2,-0.49 0.47,-0.98 0.81,-1.47 0.15,-0.24 0.29,-0.49 0.44,-0.73 0.15,-0.24 0.29,-0.49 0.44,-0.74 0.15,-0.24 0.3,-0.48 0.44,-0.7 0.15,-0.22 0.3,-0.45 0.44,-0.7 0.05,-0.1 0.09,-0.16 0.11,-0.18 0.03,-0.02 0.06,-0.09 0.11,-0.18 0.05,-0.05 0.09,-0.1 0.11,-0.15 0.02,-0.05 0.06,-0.1 0.11,-0.15 0.1,-0.1 0.17,-0.22 0.22,-0.37 0.05,-0.15 0.12,-0.27 0.22,-0.37l0.44 -0.66c0.05,-0.05 0.12,-0.17 0.22,-0.37l0.29 -0.29 0.88 -1.32 0.44 -0.66c0.1,-0.1 0.18,-0.19 0.26,-0.29 0.07,-0.1 0.16,-0.2 0.26,-0.3 0.15,-0.24 0.29,-0.46 0.44,-0.66 0.15,-0.19 0.29,-0.39 0.44,-0.59 0.39,-0.49 0.71,-0.91 0.96,-1.25 0.2,-0.2 0.37,-0.39 0.52,-0.59 0.14,-0.19 0.29,-0.39 0.44,-0.59 0.1,-0.1 0.19,-0.2 0.26,-0.3 0.07,-0.1 0.16,-0.19 0.26,-0.29 0.1,-0.1 0.17,-0.18 0.22,-0.26 0.05,-0.07 0.12,-0.16 0.22,-0.26 0.1,-0.1 0.19,-0.2 0.26,-0.29 0.07,-0.1 0.16,-0.19 0.26,-0.29 0.1,-0.1 0.17,-0.18 0.22,-0.26 0.05,-0.07 0.12,-0.16 0.22,-0.26 0.2,-0.2 0.37,-0.38 0.52,-0.55 0.15,-0.17 0.3,-0.35 0.44,-0.55 0.1,-0.1 0.18,-0.18 0.26,-0.26 0.07,-0.07 0.16,-0.16 0.26,-0.26l0.44 -0.44c0.1,-0.1 0.18,-0.18 0.26,-0.26 0.07,-0.07 0.16,-0.16 0.26,-0.26 0.1,-0.1 0.17,-0.18 0.22,-0.26 0.05,-0.07 0.12,-0.16 0.22,-0.26 0.1,-0.1 0.19,-0.17 0.26,-0.22 0.07,-0.05 0.16,-0.12 0.26,-0.22l0.44 -0.44c1.27,-1.22 2.5,-2.33 3.68,-3.31 1.18,-0.98 2.3,-1.84 3.38,-2.57 1.08,-0.74 2.06,-1.35 2.94,-1.84 0.88,-0.49 1.64,-0.91 2.28,-1.25 0.64,-0.29 1.15,-0.51 1.55,-0.66 0.1,-0.05 0.17,-0.07 0.22,-0.07 0.05,0 0.1,-0.02 0.15,-0.07l0.15 0zm14.49 -1.18c0.49,0.54 0.92,1.2 1.29,1.99 0.37,0.79 0.6,1.73 0.7,2.83 0.1,1.1 0.01,2.4 -0.26,3.9 -0.27,1.5 -0.77,3.2 -1.51,5.11 -1.03,2.65 -2.37,4.86 -4.01,6.62 -1.64,1.76 -3.59,3.36 -5.85,4.78 -0.49,0.29 -0.96,0.49 -1.4,0.59 -0.39,0.1 -0.76,0.09 -1.1,-0.04 -0.34,-0.12 -0.59,-0.45 -0.73,-0.99 -0.2,-0.59 -0.23,-1.1 -0.11,-1.54 0.12,-0.44 0.28,-0.83 0.48,-1.18 0.19,-0.39 0.47,-0.74 0.81,-1.03 1.96,-2.06 3.84,-4.58 5.63,-7.58 1.79,-2.99 3.05,-6.4 3.79,-10.22 0.1,-0.83 -0.06,-1.34 -0.48,-1.51 -0.41,-0.17 -0.8,-0.23 -1.14,-0.18 -1.42,0.29 -3.43,0.91 -6.03,1.84 -2.6,0.93 -5.52,2.48 -8.75,4.63 -3.24,2.16 -6.63,5.1 -10.19,8.83 -3.56,3.73 -7,8.53 -10.33,14.42 -3.68,6.38 -6.23,11.99 -7.65,16.84 -1.42,4.85 -1.9,8.91 -1.43,12.17 0.47,3.26 1.83,5.7 4.08,7.32 2.25,1.62 5.27,2.4 9.05,2.35 2.06,-0.05 4.24,-0.76 6.55,-2.13 0.98,-0.59 2.04,-1.35 3.16,-2.28 1.13,-0.93 2.29,-2.11 3.49,-3.53 1.2,-1.42 2.45,-3.11 3.75,-5.07 1.3,-1.96 2.59,-4.24 3.86,-6.84 0.59,-1.47 1.17,-2.86 1.73,-4.16 0.56,-1.3 1.09,-2.49 1.58,-3.57 0.1,-0.19 0.18,-0.38 0.26,-0.55 0.07,-0.17 0.16,-0.35 0.26,-0.55l0.07 -0.07c0.05,-0.1 0.1,-0.21 0.15,-0.33 0.05,-0.12 0.1,-0.23 0.15,-0.33 -0.15,-0.05 -0.37,-0.07 -0.66,-0.07 -0.59,-0.05 -1.46,-0.02 -2.61,0.07 -1.15,0.1 -2.5,0.27 -4.05,0.51 -1.55,0.25 -3.2,0.58 -4.97,0.99 -1.76,0.42 -3.52,0.89 -5.26,1.43 -1.74,0.54 -3.42,1.16 -5.04,1.87 -1.62,0.71 -3.04,1.48 -4.27,2.32 -0.1,0.1 -0.22,0.21 -0.37,0.33 -0.15,0.12 -0.32,0.26 -0.52,0.4 -0.25,0.25 -0.54,0.51 -0.88,0.81 -0.34,0.29 -0.66,0.47 -0.96,0.51 -0.39,0 -0.76,-0.13 -1.1,-0.4 -0.34,-0.27 -0.51,-0.67 -0.51,-1.21 -0.05,-0.78 0.1,-1.59 0.44,-2.43 0.24,-0.69 0.71,-1.41 1.4,-2.17 0.68,-0.76 1.67,-1.46 2.94,-2.1 1.81,-0.88 3.9,-1.68 6.25,-2.39 2.35,-0.71 4.77,-1.31 7.25,-1.8 2.48,-0.49 4.93,-0.86 7.35,-1.1 2.43,-0.24 4.6,-0.34 6.51,-0.3 0.34,0.05 0.77,0.15 1.29,0.3 0.51,0.15 0.97,0.39 1.36,0.73 0.39,0.34 0.71,0.81 0.96,1.4 0.24,0.59 0.29,1.35 0.15,2.28 -0.1,0.39 -0.2,0.8 -0.3,1.21 -0.1,0.42 -0.24,0.87 -0.44,1.36 -2.8,6.37 -4.67,11.66 -5.63,15.85 -0.96,4.19 -1.42,7.55 -1.39,10.08 0.02,2.52 0.33,4.35 0.92,5.48 0.59,1.13 1.05,1.84 1.4,2.13 0.54,0.54 0.77,1.03 0.7,1.47 -0.07,0.44 -0.31,0.81 -0.7,1.1 -0.39,0.24 -0.8,0.42 -1.21,0.51 -0.42,0.1 -0.82,0.17 -1.21,0.22 -0.44,0.05 -0.88,0.05 -1.33,0 -1.42,-0.2 -2.54,-0.75 -3.35,-1.65 -0.81,-0.91 -1.36,-2.06 -1.66,-3.46 -0.29,-1.4 -0.37,-2.98 -0.22,-4.74 0.15,-1.76 0.44,-3.63 0.88,-5.59 -1.13,1.33 -2.32,2.55 -3.57,3.68 -1.25,1.13 -2.57,2.11 -3.97,2.94 -1.4,0.83 -2.87,1.48 -4.41,1.95 -1.54,0.47 -3.15,0.67 -4.82,0.63 -4.51,-0.05 -8.1,-0.72 -10.77,-2.02 -2.67,-1.3 -4.68,-2.99 -6.03,-5.07 -1.35,-2.08 -2.13,-4.44 -2.35,-7.06 -0.22,-2.62 -0.11,-5.31 0.33,-8.05 1.03,-6.37 3.7,-13.63 8.02,-21.77 3.53,-6.23 7.5,-11.74 11.91,-16.55 1.86,-2.06 3.92,-4.05 6.18,-5.96 2.25,-1.91 4.67,-3.59 7.25,-5.04 2.57,-1.44 5.29,-2.55 8.16,-3.31 2.87,-0.76 5.85,-1.02 8.94,-0.77 0.44,0.05 0.91,0.15 1.4,0.29 0.39,0.1 0.83,0.28 1.32,0.55 0.49,0.27 0.96,0.63 1.4,1.07z"/>
   <path class="fil2" d="M251.6 73.25c0.68,-0.98 1.29,-1.94 1.8,-2.87 0.51,-0.93 0.87,-1.79 1.07,-2.57 0.24,-0.98 0.21,-1.4 -0.11,-1.25 -0.32,0.15 -0.7,0.58 -1.14,1.29 -0.44,0.71 -0.86,1.58 -1.25,2.61 -0.39,1.03 -0.51,1.96 -0.37,2.79zm-1.32 16.55c0.54,-1.22 1.13,-2.45 1.76,-3.68 0.64,-1.22 1.3,-2.5 1.99,-3.82 -1.18,1.52 -2.26,3.14 -3.24,4.86 -0.83,1.47 -1.63,3.14 -2.39,5 -0.76,1.86 -1.26,3.75 -1.51,5.66 0.29,-0.78 0.61,-1.62 0.96,-2.5 0.3,-0.74 0.65,-1.58 1.07,-2.54 0.42,-0.96 0.87,-1.95 1.36,-2.98zm3.09 -15c0.34,0.05 0.66,0.06 0.96,0.04 0.29,-0.02 0.54,-0.06 0.74,-0.11 0.2,-0.05 0.39,-0.07 0.59,-0.07 0.1,-0.05 0.33,-0.11 0.7,-0.18 0.37,-0.07 0.75,-0.06 1.14,0.04 0.34,0.1 0.67,0.25 0.99,0.44 0.32,0.2 0.6,0.54 0.85,1.03 0.34,0.59 0.51,1.2 0.51,1.84 0,0.64 -0.07,1.25 -0.22,1.84 -0.15,0.59 -0.32,1.12 -0.51,1.58 -0.2,0.47 -0.32,0.77 -0.37,0.92 -0.83,1.82 -1.83,3.8 -2.98,5.96 -1.15,2.16 -2.17,4.24 -3.05,6.25 -0.88,2.01 -1.46,3.8 -1.73,5.37 -0.27,1.57 0.09,2.67 1.07,3.31 0.05,0.05 0.12,0.1 0.22,0.15 0.15,0.15 0.22,0.32 0.22,0.52 -0.05,0.2 -0.18,0.4 -0.4,0.62 -0.22,0.22 -0.55,0.38 -0.99,0.48 -0.78,0.15 -1.59,0.01 -2.43,-0.4 -0.83,-0.42 -1.52,-1.09 -2.06,-2.02 -0.54,-0.93 -0.86,-2.12 -0.96,-3.57 -0.1,-1.45 0.22,-3.13 0.96,-5.04 0.64,-1.72 1.38,-3.4 2.24,-5.04 0.86,-1.64 1.69,-3.14 2.5,-4.49 0.81,-1.35 1.53,-2.5 2.17,-3.46 0.64,-0.96 1.05,-1.63 1.25,-2.02 0.29,-0.54 0.3,-0.97 0.04,-1.29 -0.27,-0.32 -0.82,-0.45 -1.66,-0.4 -0.49,0.05 -0.91,0 -1.25,-0.15 -1.13,1.57 -2.27,3.04 -3.42,4.41 -1.15,1.37 -2.22,2.62 -3.2,3.75 -0.1,0.1 -0.24,0.18 -0.44,0.26 -0.2,0.07 -0.29,-0.21 -0.29,-0.85 0,-0.54 0.12,-1.19 0.37,-1.95 0.25,-0.76 0.44,-1.34 0.59,-1.73 0,-0.05 0.02,-0.1 0.07,-0.15l0.15 -0.29c0.54,-0.54 1.1,-1.15 1.69,-1.84 0.59,-0.69 1.23,-1.45 1.91,-2.28 -1.03,-0.49 -1.64,-1.25 -1.84,-2.28 -0.2,-1.03 -0.13,-2.16 0.19,-3.38 0.32,-1.22 0.83,-2.45 1.54,-3.68 0.71,-1.23 1.49,-2.27 2.35,-3.13 0.86,-0.86 1.72,-1.45 2.58,-1.76 0.86,-0.32 1.58,-0.16 2.17,0.48 0.59,0.64 0.92,1.41 0.99,2.32 0.07,0.91 -0.05,1.9 -0.37,2.98 -0.32,1.08 -0.8,2.21 -1.43,3.38 -0.64,1.18 -1.35,2.38 -2.13,3.6z"/>
   <path class="fil2" d="M257.26 100.54c0.05,-1.03 0.27,-2.21 0.66,-3.53 0.34,-1.13 0.88,-2.53 1.62,-4.19 0.74,-1.67 1.79,-3.6 3.16,-5.81 1.37,-2.21 2.68,-3.9 3.93,-5.08 1.25,-1.18 2.36,-2.03 3.35,-2.57 1.13,-0.64 2.18,-1 3.16,-1.1 -0.1,-0.19 -0.47,-0.33 -1.1,-0.4 -0.64,-0.07 -1.47,0.14 -2.5,0.62 -1.03,0.49 -2.22,1.36 -3.57,2.61 -1.35,1.25 -2.76,3.1 -4.23,5.55 -1.52,2.45 -2.6,4.55 -3.24,6.29 -0.64,1.74 -1.05,3.17 -1.25,4.3 -0.2,1.32 -0.2,2.43 0,3.31zm21.85 -14.2c0.05,0.93 -0.08,1.8 -0.37,2.61 -0.29,0.81 -0.71,1.78 -1.25,2.91 -1.13,2.4 -1.84,4.24 -2.13,5.52 -0.29,1.28 -0.24,2.03 0.15,2.28 0.05,0 0.11,0.01 0.18,0.04 0.07,0.03 0.14,0.04 0.18,0.04 0.1,0 0.23,0.01 0.4,0.04 0.17,0.03 0.38,0.14 0.63,0.33 0.24,0.15 0.39,0.36 0.44,0.62 0.05,0.27 -0.05,0.58 -0.29,0.92 -0.98,0.83 -2.01,1.14 -3.09,0.92 -1.08,-0.22 -1.96,-0.67 -2.65,-1.36 -0.59,-0.69 -0.93,-1.49 -1.03,-2.43 -0.1,-0.93 -0.15,-1.67 -0.15,-2.21 -0.88,0.93 -1.8,1.86 -2.76,2.8 -0.96,0.93 -1.89,1.76 -2.8,2.5 -0.91,0.74 -1.79,1.32 -2.65,1.76 -0.86,0.44 -1.61,0.66 -2.24,0.66 -1.42,0 -2.53,-0.55 -3.31,-1.66 -0.79,-1.1 -1.13,-2.49 -1.03,-4.16 0.05,-1.57 0.38,-3.24 0.99,-5 0.61,-1.77 1.41,-3.51 2.39,-5.22 0.98,-1.72 2.07,-3.35 3.27,-4.89 1.2,-1.54 2.43,-2.88 3.68,-4.01 1.25,-1.13 2.46,-1.99 3.64,-2.57 1.18,-0.59 2.21,-0.81 3.09,-0.66 1.42,0.25 2.55,0.74 3.38,1.47 0.83,0.74 1.41,1.5 1.73,2.28 0.32,0.79 0.43,1.48 0.33,2.1 -0.1,0.61 -0.37,0.94 -0.81,0.99 -0.39,0.05 -0.66,0.01 -0.81,-0.11 -0.15,-0.12 -0.25,-0.27 -0.3,-0.44 -0.05,-0.17 -0.1,-0.34 -0.15,-0.51 -0.05,-0.17 -0.15,-0.33 -0.29,-0.48 -0.15,-0.15 -0.38,-0.22 -0.7,-0.22 -0.32,0 -0.72,0.12 -1.21,0.37 -0.49,0.25 -1.08,0.68 -1.77,1.29 -0.69,0.61 -1.5,1.46 -2.43,2.54 -0.93,1.08 -1.92,2.43 -2.98,4.05 -1.06,1.62 -1.99,3.2 -2.8,4.74 -0.81,1.54 -1.41,2.87 -1.8,3.97 -0.39,1.1 -0.39,1.68 0,1.73 0.25,0.05 0.69,-0.15 1.33,-0.59 0.64,-0.44 1.37,-1.04 2.21,-1.8 0.83,-0.76 1.73,-1.63 2.69,-2.61 0.96,-0.98 1.89,-1.99 2.79,-3.02 0.91,-1.03 1.72,-2.05 2.43,-3.05 0.71,-1 1.26,-1.9 1.65,-2.69 0.05,-0.24 0.06,-0.45 0.04,-0.62 -0.03,-0.17 -0.04,-0.38 -0.04,-0.63 -0.05,-0.1 -0.05,-0.22 0,-0.37 0,-0.25 0.17,-0.47 0.52,-0.66 0.34,-0.15 0.72,-0.23 1.14,-0.26 0.42,-0.02 0.81,0.06 1.18,0.26 0.37,0.2 0.67,0.5 0.92,0.92 0.24,0.42 0.39,0.94 0.44,1.58z"/>
   <path class="fil2" d="M299.48 86.12c-0.39,0.98 -0.7,1.85 -0.92,2.61 -0.22,0.76 -0.38,1.41 -0.48,1.95 -0.15,0.64 -0.22,1.2 -0.22,1.69 0.39,-1.32 0.91,-2.72 1.54,-4.19 0.64,-1.47 1.22,-3.06 1.77,-4.78 0.24,-0.83 0.37,-1.51 0.37,-2.02 0,-0.52 -0.05,-0.94 -0.15,-1.29 -0.1,-0.39 -0.25,-0.69 -0.44,-0.88 0.15,1.13 0.08,2.18 -0.18,3.16 -0.27,0.98 -0.7,2.23 -1.29,3.75zm-16.55 2.94c0.64,-1.62 1.27,-3.21 1.91,-4.78 0.54,-1.32 1.17,-2.72 1.88,-4.19 0.71,-1.47 1.46,-2.72 2.24,-3.75 -0.73,0.49 -1.45,1.28 -2.13,2.35 -0.59,0.93 -1.24,2.23 -1.95,3.9 -0.71,1.67 -1.36,3.83 -1.95,6.47zm15.67 4.71c-0.73,2.01 -1.26,3.7 -1.58,5.07 -0.32,1.37 -0.48,2.43 -0.48,3.16 0,0.34 0.02,0.69 0.07,1.03 0.05,0.3 0.11,0.63 0.18,0.99 0.07,0.37 0.21,0.7 0.4,0.99 0.1,0.2 0.17,0.39 0.22,0.59 0.1,0.39 -0.02,0.64 -0.37,0.74 -0.83,0.29 -1.68,0.27 -2.54,-0.07 -0.86,-0.34 -1.48,-0.78 -1.88,-1.32 -0.39,-0.54 -0.66,-1.14 -0.81,-1.8 -0.15,-0.66 -0.22,-1.34 -0.22,-2.02 0,-0.74 0.05,-1.52 0.15,-2.35 0.39,-2.75 0.97,-5.3 1.73,-7.65 0.76,-2.35 1.48,-4.24 2.17,-5.66 0.64,-1.42 1.07,-2.48 1.29,-3.16 0.22,-0.69 0.23,-1.15 0.03,-1.4 -0.1,-0.15 -0.24,-0.17 -0.44,-0.07 -0.2,0.1 -0.39,0.22 -0.59,0.37 -0.2,0.2 -0.44,0.42 -0.73,0.66 -1.91,2.01 -3.56,4.17 -4.93,6.47 -1.37,2.31 -2.51,4.45 -3.42,6.44 -0.91,1.99 -1.59,3.67 -2.06,5.04 -0.47,1.37 -0.72,2.16 -0.77,2.35 -0.05,0.25 -0.07,0.47 -0.07,0.66 0,0.2 -0.03,0.39 -0.07,0.59 -0.2,0.64 -0.54,1 -1.03,1.1 -0.2,0.05 -0.44,0.02 -0.74,-0.07 -0.88,-0.24 -1.56,-0.56 -2.02,-0.96 -0.47,-0.39 -0.82,-0.78 -1.07,-1.18 -0.15,-0.34 -0.23,-0.67 -0.26,-0.99 -0.02,-0.32 -0.01,-0.55 0.04,-0.7 0.05,-0.59 0.12,-1.21 0.22,-1.88 0.1,-0.66 0.22,-1.38 0.37,-2.17 0.2,-0.93 0.47,-2.1 0.81,-3.49 0.34,-1.4 0.75,-2.87 1.21,-4.41 0.47,-1.54 0.98,-3.08 1.55,-4.6 0.56,-1.52 1.19,-2.92 1.88,-4.19 0.54,-1.03 1.18,-2.08 1.91,-3.16 0.73,-1.08 1.74,-1.84 3.02,-2.28 0.78,-0.29 1.59,-0.32 2.43,-0.07 0.83,0.24 1.37,0.64 1.62,1.18 0.1,0.25 0.1,0.54 0,0.88 -0.05,0.15 -0.12,0.25 -0.22,0.29 -0.49,0.49 -1,1.18 -1.54,2.06 -0.49,0.79 -1.06,1.83 -1.69,3.13 -0.64,1.3 -1.32,2.98 -2.06,5.04 0.83,-1.32 1.73,-2.64 2.68,-3.93 0.96,-1.3 1.95,-2.46 2.98,-3.49 1.03,-1.03 2.06,-1.86 3.09,-2.5 1.03,-0.64 2.01,-0.93 2.94,-0.88 0.93,0.1 1.67,0.52 2.21,1.25 0.44,0.64 0.69,1.62 0.74,2.94 0.05,1.32 -0.39,3.24 -1.32,5.74 -0.44,1.18 -0.94,2.45 -1.51,3.83 -0.56,1.37 -1.07,2.67 -1.51,3.9z"/>
   <path class="fil2" d="M321.98 82.96c1.47,-3.73 2.89,-7.3 4.27,-10.74 0.59,-1.42 1.19,-2.88 1.8,-4.38 0.61,-1.5 1.21,-2.94 1.8,-4.34 0.59,-1.4 1.15,-2.69 1.69,-3.86 0.54,-1.18 1,-2.16 1.4,-2.94 -1.33,1.82 -2.62,4 -3.9,6.55 -1.13,2.21 -2.33,4.94 -3.6,8.2 -1.28,3.26 -2.43,7.1 -3.46,11.51zm-15.59 16.62c0.35,0.05 0.97,-0.3 1.88,-1.07 0.91,-0.76 1.92,-1.74 3.05,-2.94 1.13,-1.2 2.27,-2.53 3.42,-3.97 1.15,-1.45 2.12,-2.83 2.9,-4.16 0.39,-0.98 0.77,-1.99 1.14,-3.02 0.37,-1.03 0.75,-2.04 1.14,-3.02 -0.1,-0.25 -0.15,-0.5 -0.15,-0.77 0,-0.27 -0.12,-0.5 -0.37,-0.7 -0.15,-0.15 -0.38,-0.23 -0.7,-0.26 -0.32,-0.02 -0.71,0.11 -1.18,0.4 -0.47,0.29 -1.04,0.79 -1.73,1.47 -0.69,0.69 -1.5,1.64 -2.43,2.87 -0.93,1.23 -1.9,2.7 -2.91,4.41 -1,1.72 -1.87,3.36 -2.61,4.93 -0.73,1.57 -1.26,2.92 -1.58,4.05 -0.32,1.13 -0.28,1.72 0.11,1.76zm-3.6 2.72c-0.29,-1.13 -0.34,-2.5 -0.15,-4.12 0.15,-1.37 0.55,-3.04 1.21,-5 0.66,-1.96 1.8,-4.24 3.42,-6.84 1.91,-3.19 3.6,-5.65 5.07,-7.39 1.47,-1.74 2.92,-2.73 4.34,-2.98 -0.29,-0.2 -0.64,-0.29 -1.03,-0.29 -0.34,0 -0.77,0.12 -1.29,0.37 -0.51,0.25 -1.12,0.71 -1.8,1.4 -0.44,0.44 -1.12,1.24 -2.02,2.39 -0.91,1.15 -1.87,2.5 -2.9,4.04 -1.03,1.55 -2.02,3.21 -2.98,5 -0.96,1.79 -1.72,3.53 -2.28,5.22 -0.56,1.69 -0.86,3.26 -0.88,4.71 -0.02,1.45 0.41,2.61 1.29,3.49zm35.23 -48.98c0.64,0.24 1.04,0.62 1.21,1.14 0.17,0.51 0.18,0.97 0.04,1.36 -0.15,0.34 -0.34,0.64 -0.59,0.88 -0.15,0.15 -0.27,0.24 -0.37,0.29 -0.64,0.64 -1.19,1.29 -1.65,1.95 -0.47,0.66 -0.89,1.26 -1.29,1.8 -0.44,0.64 -0.81,1.3 -1.1,1.99 -1.13,2.16 -2.31,4.6 -3.53,7.32 -1.23,2.72 -2.43,5.55 -3.6,8.5 -1.18,2.94 -2.32,5.91 -3.42,8.9 -1.1,2.99 -2.12,5.83 -3.05,8.53 -0.49,1.42 -0.89,2.82 -1.21,4.19 -0.32,1.37 -0.55,2.62 -0.7,3.75 -0.15,1.13 -0.2,2.06 -0.15,2.79 0.05,0.73 0.19,1.18 0.44,1.32 0.39,0.19 0.71,0.28 0.96,0.26 0.24,-0.02 0.46,-0.1 0.66,-0.22 0.2,-0.12 0.41,-0.24 0.63,-0.37 0.22,-0.12 0.48,-0.18 0.77,-0.18 0.49,0 0.78,0.17 0.88,0.52 0.05,0.19 0.05,0.37 0,0.51 -0.2,0.54 -0.48,0.96 -0.85,1.25 -0.37,0.3 -0.75,0.52 -1.14,0.66 -0.49,0.19 -1.01,0.29 -1.54,0.29 -0.69,0 -1.24,-0.05 -1.65,-0.15 -0.42,-0.1 -0.82,-0.27 -1.22,-0.51 -0.78,-0.39 -1.4,-0.92 -1.84,-1.58 -0.44,-0.66 -0.76,-1.39 -0.96,-2.17 -0.2,-0.78 -0.31,-1.61 -0.33,-2.46 -0.02,-0.86 0.01,-1.65 0.11,-2.39 0.05,-0.49 0.11,-0.94 0.18,-1.36 0.07,-0.42 0.16,-0.8 0.26,-1.14 0.1,-0.39 0.2,-0.74 0.3,-1.03 0.1,-0.34 0.19,-0.67 0.29,-0.99 0.1,-0.32 0.2,-0.65 0.3,-0.99 -0.84,1.03 -1.73,2.06 -2.69,3.09 -0.96,1.03 -1.91,1.95 -2.87,2.76 -0.96,0.81 -1.86,1.47 -2.72,1.99 -0.86,0.51 -1.63,0.77 -2.32,0.77 -1.37,-0.05 -2.5,-0.7 -3.38,-1.95 -0.88,-1.25 -1.2,-2.81 -0.96,-4.67 0.2,-1.42 0.61,-3.02 1.25,-4.78 0.64,-1.76 1.42,-3.57 2.35,-5.41 0.93,-1.84 1.95,-3.63 3.05,-5.37 1.1,-1.74 2.23,-3.26 3.38,-4.56 1.15,-1.3 2.28,-2.31 3.38,-3.02 1.1,-0.71 2.1,-0.99 2.98,-0.85 1.32,0.25 2.39,0.74 3.2,1.47 0.81,0.74 1.41,1.52 1.8,2.36 1.03,-2.6 2.03,-5.09 3.02,-7.47 0.98,-2.38 1.89,-4.51 2.72,-6.4 0.83,-1.89 1.53,-3.48 2.1,-4.78 0.56,-1.3 0.97,-2.19 1.21,-2.68 0.44,-0.98 0.99,-1.73 1.66,-2.24 0.66,-0.52 1.36,-0.86 2.09,-1.03 0.73,-0.17 1.45,-0.23 2.13,-0.18 0.69,0.05 1.27,0.15 1.76,0.3z"/>
   <path class="fil2" d="M354.93 84.73c-0.39,0.98 -0.7,1.85 -0.92,2.61 -0.22,0.76 -0.38,1.41 -0.48,1.95 -0.15,0.64 -0.24,1.2 -0.29,1.69 0.39,-1.32 0.91,-2.71 1.55,-4.16 0.64,-1.45 1.22,-3.03 1.76,-4.74 0.24,-0.83 0.38,-1.51 0.4,-2.02 0.02,-0.51 -0.01,-0.94 -0.11,-1.29 -0.1,-0.39 -0.24,-0.69 -0.44,-0.88 0.15,1.13 0.09,2.17 -0.18,3.13 -0.27,0.96 -0.7,2.2 -1.29,3.71zm-18.02 12.06c0.59,-1.62 1.2,-3.24 1.84,-4.86 0.54,-1.42 1.13,-2.93 1.77,-4.52 0.64,-1.59 1.27,-3.05 1.91,-4.38 -0.98,1.57 -1.86,3.16 -2.65,4.78 -0.69,1.37 -1.31,2.86 -1.88,4.45 -0.56,1.59 -0.89,3.1 -0.99,4.52zm-12.06 0.37c0.93,-2.84 1.91,-5.61 2.94,-8.31 0.44,-1.13 0.92,-2.3 1.44,-3.53 0.51,-1.23 1.04,-2.42 1.58,-3.57 0.54,-1.15 1.09,-2.24 1.65,-3.27 0.56,-1.03 1.14,-1.96 1.73,-2.8 -1.23,1.32 -2.4,2.99 -3.53,5 -0.98,1.72 -2,3.93 -3.05,6.66 -1.06,2.72 -1.97,5.99 -2.76,9.82zm3.53 7.8c-0.05,0.1 -0.1,0.22 -0.15,0.37 -0.1,0.24 -0.22,0.44 -0.37,0.59 -0.2,0.24 -0.41,0.4 -0.63,0.48 -0.22,0.07 -0.43,0.14 -0.63,0.18 -0.2,0.05 -0.42,0.07 -0.66,0.07 -0.69,-0.05 -1.23,-0.25 -1.62,-0.59 -0.39,-0.34 -0.71,-0.76 -0.96,-1.25 -0.25,-0.49 -0.42,-1.03 -0.51,-1.62 -0.1,-0.59 -0.15,-1.15 -0.15,-1.69 0.05,-1.81 0.42,-4.09 1.1,-6.84 0.24,-0.98 0.56,-2.1 0.96,-3.35 0.39,-1.25 0.85,-2.55 1.36,-3.9 0.52,-1.35 1.09,-2.72 1.73,-4.12 0.64,-1.4 1.32,-2.76 2.06,-4.08 0.59,-1.13 1.31,-2.26 2.17,-3.38 0.86,-1.13 1.95,-1.94 3.27,-2.43 0.83,-0.39 1.67,-0.47 2.5,-0.22 0.83,0.25 1.37,0.66 1.62,1.25 0.15,0.39 0.12,0.71 -0.07,0.96 -0.1,0.15 -0.2,0.25 -0.29,0.3 -0.83,0.93 -1.69,2.16 -2.57,3.68 -0.78,1.28 -1.67,2.92 -2.65,4.93 -0.98,2.01 -1.99,4.46 -3.02,7.35 0.1,-0.24 0.2,-0.46 0.29,-0.66 0.1,-0.2 0.2,-0.42 0.29,-0.66 1.37,-2.84 2.66,-5.16 3.86,-6.95 1.2,-1.79 2.29,-3.2 3.27,-4.23 0.98,-1.03 1.83,-1.75 2.54,-2.17 0.71,-0.42 1.29,-0.67 1.73,-0.77 0.19,-0.05 0.43,-0.09 0.7,-0.11 0.27,-0.02 0.6,0.01 0.99,0.11 0.25,0.05 0.49,0.15 0.74,0.29 0.19,0.1 0.4,0.26 0.63,0.48 0.22,0.22 0.4,0.5 0.55,0.85 0.64,1.32 0.61,3.16 -0.07,5.52 1.42,-2.3 2.72,-4.03 3.9,-5.19 1.18,-1.15 2.18,-1.97 3.01,-2.46 0.98,-0.54 1.86,-0.78 2.65,-0.73 0.88,0.15 1.54,0.56 1.99,1.25 0.39,0.64 0.58,1.59 0.55,2.87 -0.03,1.28 -0.5,3.14 -1.43,5.59 -0.49,1.23 -1,2.51 -1.54,3.86 -0.54,1.35 -1.05,2.64 -1.55,3.86 -0.83,2.35 -1.4,4.28 -1.69,5.77 -0.29,1.5 -0.39,2.54 -0.29,3.13l0.15 0.66c0.05,0.29 0.07,0.64 0.07,1.03 0,0.39 -0.06,0.76 -0.18,1.1 -0.12,0.34 -0.32,0.61 -0.59,0.81 -0.27,0.2 -0.67,0.24 -1.22,0.15 -0.44,-0.15 -0.86,-0.34 -1.25,-0.59 -0.39,-0.24 -0.71,-0.54 -0.96,-0.88 -0.39,-0.49 -0.65,-1.09 -0.77,-1.8 -0.12,-0.71 -0.18,-1.39 -0.18,-2.02 0,-0.74 0.05,-1.5 0.15,-2.28 0.34,-2.74 0.91,-5.29 1.69,-7.65 0.78,-2.35 1.49,-4.24 2.13,-5.66 0.64,-1.42 1.12,-2.5 1.43,-3.24 0.32,-0.74 0.31,-1.2 -0.04,-1.4 -0.15,-0.05 -0.33,-0.01 -0.55,0.11 -0.22,0.12 -0.55,0.48 -0.99,1.07 -0.44,0.59 -1.07,1.48 -1.87,2.68 -0.81,1.2 -1.9,2.83 -3.27,4.89 -1.37,2.11 -2.46,4.06 -3.27,5.85 -0.81,1.79 -1.43,3.35 -1.87,4.67 -0.54,1.57 -0.91,2.99 -1.1,4.26 -0.05,0.49 -0.21,0.83 -0.48,1.03 -0.27,0.2 -0.58,0.32 -0.92,0.37 -0.39,0.1 -0.83,0.1 -1.33,0 -0.73,-0.15 -1.3,-0.43 -1.69,-0.84 -0.39,-0.42 -0.68,-0.88 -0.85,-1.4 -0.17,-0.51 -0.25,-1.03 -0.22,-1.54 0.02,-0.51 0.06,-0.94 0.11,-1.29 0.29,-1.62 0.83,-3.43 1.62,-5.44 0.78,-2.01 1.58,-3.9 2.39,-5.66 0.81,-1.77 1.53,-3.27 2.17,-4.52 0.64,-1.25 0.98,-1.97 1.03,-2.17 0.1,-0.24 0.09,-0.39 -0.04,-0.44 -0.12,-0.05 -0.4,0.15 -0.85,0.59 -0.44,0.44 -1.05,1.2 -1.84,2.28 -0.79,1.08 -1.79,2.6 -3.02,4.56 -1.03,1.62 -1.94,3.24 -2.72,4.85 -0.79,1.62 -1.47,3.15 -2.06,4.6 -0.59,1.45 -1.08,2.77 -1.47,3.97 -0.39,1.2 -0.71,2.19 -0.96,2.98z"/>
   <path class="fil2" d="M357.51 100.54c0.05,-1.03 0.27,-2.21 0.66,-3.53 0.34,-1.13 0.88,-2.53 1.62,-4.19 0.74,-1.67 1.79,-3.6 3.16,-5.81 1.37,-2.21 2.68,-3.9 3.93,-5.08 1.25,-1.18 2.36,-2.03 3.34,-2.57 1.13,-0.64 2.18,-1 3.17,-1.1 -0.1,-0.19 -0.47,-0.33 -1.1,-0.4 -0.64,-0.07 -1.47,0.14 -2.5,0.62 -1.03,0.49 -2.22,1.36 -3.57,2.61 -1.35,1.25 -2.76,3.1 -4.23,5.55 -1.52,2.45 -2.6,4.55 -3.24,6.29 -0.64,1.74 -1.06,3.17 -1.25,4.3 -0.2,1.32 -0.2,2.43 0,3.31zm21.84 -14.2c0.05,0.93 -0.08,1.8 -0.37,2.61 -0.29,0.81 -0.71,1.78 -1.25,2.91 -1.13,2.4 -1.84,4.24 -2.13,5.52 -0.29,1.28 -0.25,2.03 0.15,2.28 0.05,0 0.11,0.01 0.18,0.04 0.07,0.03 0.13,0.04 0.18,0.04 0.1,0 0.23,0.01 0.4,0.04 0.17,0.03 0.38,0.14 0.63,0.33 0.24,0.15 0.39,0.36 0.44,0.62 0.05,0.27 -0.05,0.58 -0.29,0.92 -0.98,0.83 -2.01,1.14 -3.09,0.92 -1.08,-0.22 -1.96,-0.67 -2.65,-1.36 -0.59,-0.69 -0.93,-1.49 -1.03,-2.43 -0.1,-0.93 -0.15,-1.67 -0.15,-2.21 -0.88,0.93 -1.8,1.86 -2.76,2.8 -0.96,0.93 -1.89,1.76 -2.79,2.5 -0.91,0.74 -1.79,1.32 -2.65,1.76 -0.86,0.44 -1.61,0.66 -2.24,0.66 -1.42,0 -2.53,-0.55 -3.31,-1.66 -0.78,-1.1 -1.13,-2.49 -1.03,-4.16 0.05,-1.57 0.38,-3.24 0.99,-5 0.61,-1.77 1.41,-3.51 2.39,-5.22 0.98,-1.72 2.07,-3.35 3.27,-4.89 1.2,-1.54 2.43,-2.88 3.68,-4.01 1.25,-1.13 2.46,-1.99 3.64,-2.57 1.18,-0.59 2.21,-0.81 3.09,-0.66 1.42,0.25 2.55,0.74 3.38,1.47 0.83,0.74 1.41,1.5 1.73,2.28 0.32,0.79 0.43,1.48 0.33,2.1 -0.1,0.61 -0.37,0.94 -0.81,0.99 -0.39,0.05 -0.66,0.01 -0.81,-0.11 -0.15,-0.12 -0.25,-0.27 -0.3,-0.44 -0.05,-0.17 -0.1,-0.34 -0.15,-0.51 -0.05,-0.17 -0.15,-0.33 -0.29,-0.48 -0.15,-0.15 -0.38,-0.22 -0.7,-0.22 -0.32,0 -0.72,0.12 -1.21,0.37 -0.49,0.25 -1.08,0.68 -1.77,1.29 -0.69,0.61 -1.5,1.46 -2.43,2.54 -0.93,1.08 -1.93,2.43 -2.98,4.05 -1.06,1.62 -1.99,3.2 -2.8,4.74 -0.81,1.54 -1.41,2.87 -1.8,3.97 -0.39,1.1 -0.39,1.68 0,1.73 0.24,0.05 0.69,-0.15 1.32,-0.59 0.64,-0.44 1.37,-1.04 2.21,-1.8 0.83,-0.76 1.73,-1.63 2.69,-2.61 0.96,-0.98 1.89,-1.99 2.79,-3.02 0.91,-1.03 1.72,-2.05 2.43,-3.05 0.71,-1 1.26,-1.9 1.65,-2.69 0.05,-0.24 0.06,-0.45 0.04,-0.62 -0.03,-0.17 -0.04,-0.38 -0.04,-0.63 -0.05,-0.1 -0.05,-0.22 0,-0.37 0,-0.25 0.17,-0.47 0.51,-0.66 0.34,-0.15 0.72,-0.23 1.14,-0.26 0.42,-0.02 0.81,0.06 1.18,0.26 0.37,0.2 0.67,0.5 0.92,0.92 0.24,0.42 0.39,0.94 0.44,1.58z"/>
   <path class="fil2" d="M389.97 66.22c0.88,-0.34 1.69,-0.18 2.43,0.48 0.73,0.66 1.13,1.56 1.18,2.68 -0.05,1.23 -0.31,2.38 -0.77,3.46 -0.47,1.08 -1.19,2.11 -2.17,3.09 -0.34,0.25 -0.66,0.47 -0.96,0.66 -0.29,0.2 -0.6,0.37 -0.92,0.51 -0.32,0.15 -0.68,0.25 -1.07,0.29 -0.59,0.1 -1.21,0.06 -1.87,-0.11 -0.66,-0.17 -0.99,-0.6 -0.99,-1.29 0,-0.39 0.21,-0.75 0.62,-1.07 0.42,-0.32 0.85,-0.7 1.29,-1.14 0.44,-0.44 0.83,-0.97 1.18,-1.58 0.34,-0.61 0.47,-1.41 0.37,-2.39 -0.1,-0.69 -0.01,-1.4 0.26,-2.13 0.27,-0.74 0.75,-1.23 1.43,-1.47z"/>
   <path class="fil2" d="M401.69 111.28c0.46,2.79 0.37,5.16 -0.3,7.08 -0.67,1.93 -1.46,3.52 -2.39,4.79 -1.13,1.46 -2.49,2.63 -4.09,3.49 2.79,-1.26 4.72,-2.78 5.78,-4.54 1.06,-1.76 1.66,-3.44 1.8,-5.04 0.2,-1.86 -0.07,-3.79 -0.8,-5.78zm-6.08 -26.63c1.06,-1.73 2.25,-3.16 3.54,-4.29 1.3,-1.13 2.51,-2.06 3.64,-2.79 1.26,-0.8 2.56,-1.43 3.89,-1.9 -0.87,0.13 -1.73,0.33 -2.59,0.6 -0.8,0.27 -1.68,0.65 -2.64,1.15 -0.97,0.5 -1.91,1.18 -2.84,2.04 -1,0.93 -1.95,1.96 -2.84,3.09 -0.9,1.13 -1.65,2.38 -2.24,3.74 -0.6,1.36 -1.01,2.79 -1.25,4.29 -0.24,1.5 -0.19,3.04 0.15,4.64 0,0.33 0.1,0.76 0.3,1.3 0.13,0.47 0.36,1.06 0.7,1.79 0.33,0.73 0.8,1.63 1.4,2.69 -0.13,-0.2 -0.4,-0.8 -0.8,-1.8 -0.4,-1 -0.7,-2.24 -0.9,-3.74 -0.2,-1.5 -0.15,-3.18 0.15,-5.04 0.3,-1.86 1.08,-3.79 2.34,-5.78zm-9.18 39.5c-0.07,-0.33 -0.03,-0.63 0.1,-0.9 0.07,-0.13 0.1,-0.23 0.1,-0.3 0.13,-0.53 0.53,-0.8 1.2,-0.8 0.33,0 0.6,0.03 0.8,0.1 0.2,0.07 0.41,0.13 0.65,0.2 0.23,0.06 0.48,0.1 0.75,0.1 0.27,0 0.67,-0.13 1.2,-0.4 0.8,-0.47 1.5,-1.05 2.09,-1.75 0.6,-0.7 1.1,-1.4 1.5,-2.09 0.4,-0.7 0.71,-1.36 0.95,-1.99 0.23,-0.63 0.42,-1.11 0.55,-1.45 0.46,-1.53 0.5,-3.24 0.1,-5.14 -0.4,-1.9 -0.96,-3.67 -1.7,-5.34 -0.8,-1.93 -1.8,-3.86 -2.99,-5.78 -0.86,-1.4 -1.36,-2.91 -1.5,-4.54 -0.14,-1.63 0.03,-3.26 0.5,-4.89 0.46,-1.63 1.18,-3.24 2.14,-4.84 0.96,-1.6 2.08,-3.09 3.34,-4.49 2.2,-2.46 4.24,-4.07 6.14,-4.84 1.9,-0.76 3.57,-1.11 5.04,-1.05 1.66,0.07 3.19,0.57 4.59,1.5 1.2,0.73 2.01,1.6 2.44,2.59 0.43,1 0.6,1.96 0.5,2.89 -0.1,0.93 -0.38,1.76 -0.85,2.49 -0.47,0.73 -0.93,1.2 -1.4,1.4 -1,0.33 -1.79,0.33 -2.39,0 -0.27,-0.2 -0.53,-0.43 -0.8,-0.7 -0.4,-0.46 -1.1,-0.58 -2.09,-0.35 -1,0.23 -2.08,0.73 -3.24,1.5 -1.16,0.76 -2.31,1.74 -3.44,2.94 -1.13,1.2 -2.03,2.53 -2.69,3.99 -0.73,1.73 -0.93,3.39 -0.6,4.99 0.33,1.6 1.3,3.56 2.89,5.89 0.46,0.73 0.98,1.69 1.54,2.89 0.57,1.2 1.08,2.49 1.55,3.89 0.46,1.4 0.8,2.86 1,4.39 0.2,1.53 0.13,3.03 -0.2,4.49 -0.87,3.19 -2.23,5.55 -4.09,7.08 -1.86,1.53 -3.86,2.53 -5.98,2.99 -2.13,0.33 -3.72,0.15 -4.79,-0.55 -1.06,-0.7 -1.73,-1.25 -1.99,-1.65 -0.6,-0.87 -0.9,-1.7 -0.9,-2.49z"/>
   <path class="fil3" d="M375.62 18.78c-0.32,-0.37 -0.83,-0.54 -1.32,-0.47 -2.29,0.29 -9.78,1.22 -12.09,1.03 -1.36,-0.11 -5.84,0.72 -6.43,2.32 -0.59,1.59 -3.1,2.09 -4.78,4.02 -0.47,0.54 -3.52,7.96 -3.85,10.81 -0.34,2.85 -2.01,6.38 0,12.2 2.01,5.82 4.36,9.59 6.12,10.76 1.76,1.17 10.56,4.02 11.48,4.27 0.92,0.25 13.74,1.26 16.76,0.34 3.02,-0.92 9.22,-3.18 11.14,-9.3 1.93,-6.12 4.53,-11.06 2.35,-16.67 0,0 -0.75,-1.59 -4.02,-2.18 -3.27,-0.59 -2.51,-2.09 -4.27,-2.77 -1.76,-0.67 -5.95,-0.75 -7.21,-1.34 -1.26,-0.59 -5.78,-1.84 -4.78,-7.54 0.79,-4.48 1.37,-4.92 0.89,-5.47z"/>
   <path class="fil0" d="M392.53 55.11c-2.05,5.85 -8.07,8.04 -11.02,8.94 -3.02,0.92 -15.84,-0.08 -16.76,-0.34 -0.92,-0.25 -9.72,-3.1 -11.48,-4.27 -1.76,-1.17 -4.1,-4.94 -6.11,-10.76 -2.01,-5.82 -0.34,-9.35 0,-12.2 0.33,-2.85 3.38,-10.26 3.85,-10.81 0.57,-0.66 1.25,-1.15 1.9,-1.58 0.06,0.77 0.05,2.21 -0.67,3.65 -1.06,2.11 -3.23,7.98 -2.37,11.41 0.86,3.43 2.77,11.02 6.14,13.39 3.36,2.38 11.21,7.45 18.14,6.33 6.92,-1.12 10.16,0.13 13.06,-1.12 1.45,-0.63 3.51,-1.66 5.33,-2.66z"/>
   <path class="fil2" d="M356.72 41.37c-0.06,-0.22 -0.99,-3 -2.52,-3.37 -1.52,-0.36 -2.91,1.48 -3.08,1.68 -0.17,0.2 -1.15,1.74 -0.28,3.17 0.87,1.43 1.8,2.26 2.99,1.86 1.19,-0.4 1.62,-1.32 1.95,-1.99 0.33,-0.66 1.06,-0.88 0.93,-1.37z"/>
   <path class="fil2" d="M369.7 26.12c-0.89,-0.22 -1.13,-0.66 -1.56,-0.73 -0.43,-0.07 -1.72,0.26 -1.06,1.69 0.66,1.42 1.73,2.68 2.27,2.95 0.54,0.26 1.06,-0.13 1.65,-0.96 0.58,-0.83 1.54,-1.65 1.38,-2.55 -0.17,-0.89 -1.22,-1.87 -1.95,-1.13 -0.73,0.74 -0.57,0.78 -0.73,0.74z"/>
   <path class="fil2" d="M393.24 29.44c-0.89,-0.22 -1.13,-0.66 -1.56,-0.73 -0.43,-0.07 -1.72,0.26 -1.06,1.69 0.66,1.42 1.73,2.68 2.27,2.95 0.54,0.26 1.06,-0.13 1.65,-0.96 0.58,-0.83 1.54,-1.66 1.38,-2.55 -0.17,-0.89 -1.22,-1.87 -1.95,-1.13 -0.73,0.74 -0.57,0.78 -0.73,0.74z"/>
   <path class="fil3" d="M397.91 20c-0.89,-0.22 -1.12,-0.66 -1.55,-0.73 -0.43,-0.07 -1.72,0.26 -1.06,1.69 0.66,1.42 1.73,2.68 2.27,2.95 0.54,0.26 1.06,-0.13 1.65,-0.96 0.58,-0.83 1.54,-1.66 1.38,-2.55 -0.17,-0.89 -1.23,-1.87 -1.95,-1.13 -0.73,0.74 -0.56,0.78 -0.73,0.74z"/>
   <path class="fil2" d="M347.99 134.06c-1.32,-0.86 -1.46,-1.7 -2.13,-2.05 -0.66,-0.35 -2.95,-0.53 -2.66,2.16 0.29,2.68 1.33,5.32 2.06,6.06 0.73,0.73 1.8,0.38 3.21,-0.65 1.41,-1.02 3.43,-1.83 3.65,-3.38 0.23,-1.55 -0.95,-3.72 -2.54,-2.93 -1.59,0.79 -1.35,0.95 -1.59,0.79z"/>
   <path class="fil0" d="M355.6 124.23c-1.32,-0.86 -1.46,-1.7 -2.12,-2.05 -0.66,-0.35 -2.95,-0.53 -2.66,2.16 0.28,2.68 1.33,5.33 2.06,6.06 0.73,0.73 1.8,0.38 3.21,-0.65 1.41,-1.02 3.43,-1.83 3.66,-3.38 0.23,-1.55 -0.95,-3.72 -2.55,-2.93 -1.59,0.79 -1.35,0.95 -1.59,0.79z"/>
   <path class="fil3" d="M384.32 19.11c-2.29,-0.58 -2.9,-1.71 -4.02,-1.88 -1.11,-0.17 -4.44,0.68 -2.73,4.36 1.71,3.67 4.48,6.92 5.87,7.6 1.39,0.68 2.75,-0.34 4.25,-2.48 1.5,-2.14 3.98,-4.27 3.55,-6.58 -0.43,-2.31 -3.16,-4.83 -5.04,-2.93 -1.88,1.9 -1.46,2.01 -1.88,1.9z"/>
   <path class="fil2" d="M364.86 32.67c1.19,0.6 1.69,0.73 1.39,1.42 -0.3,0.7 -1.29,1.56 -1.72,1.62 -0.43,0.07 -1.66,-1.29 -1.56,-1.75 0.1,-0.46 0.66,-1.06 1.13,-1.06 0.46,0 0.76,-0.23 0.76,-0.23z"/>
   <path class="fil2" d="M388.56 19.17c0.98,0.49 1.38,0.6 1.14,1.17 -0.24,0.57 -1.06,1.28 -1.41,1.33 -0.35,0.05 -1.36,-1.06 -1.28,-1.44 0.08,-0.38 0.54,-0.87 0.92,-0.87 0.38,0 0.62,-0.19 0.62,-0.19z"/>
   <path class="fil2" d="M366.06 43.84c-0.09,-0.05 -0.19,-0.08 -0.3,-0.11 -0.84,-0.21 -0.92,-1.07 -2.26,-0.57 -1.42,0.53 -2.61,2.15 -1.72,3.94 0.89,1.79 3.14,3.67 4.14,3.94 0.99,0.26 4.07,-2.88 4.57,-5.06 0.5,-2.19 0,-3.74 -1.55,-3.61 -1.56,0.13 -1.68,1.36 -2.6,1.62l-0.28 -0.15z"/>
   <path class="fil2" d="M383.01 23.26c-0.03,-0.01 -0.06,-0.02 -0.1,-0.03 -0.27,-0.06 -0.3,-0.31 -0.74,-0.17 -0.47,0.16 -0.85,0.63 -0.56,1.16 0.29,0.53 1.03,1.08 1.35,1.16 0.32,0.08 1.33,-0.85 1.49,-1.49 0.16,-0.64 0,-1.1 -0.51,-1.06 -0.51,0.04 -0.55,0.4 -0.85,0.48l-0.09 -0.05z"/>
   <path class="fil2" d="M382.9 51.53c-0.01,-0.11 -0.89,-2.94 -2.6,-2.96 -1.71,-0.02 -3.16,0.66 -3.22,1.79 -0.05,1.12 -0.59,2.86 0.66,3.52 1.25,0.66 2.25,0.69 2.81,0.36 0.56,-0.33 0.94,-0.94 1.33,-1.38 0.38,-0.43 1.1,-0.38 1.02,-1.33z"/>
   <path class="fil2" d="M385.04 42.36c0,0 -1,0.24 -0.61,1.28 0.38,1.05 -0.18,1.4 0.76,1.74 0.94,0.33 1.53,-0.58 1.53,-1.11 0,-0.53 0.26,-1.14 -0.08,-1.45 -0.33,-0.31 -1.61,-0.47 -1.61,-0.47z"/>
   <path class="fil0" d="M387.15 27.44c-1.29,1.63 -2.49,2.35 -3.71,1.75 -1.39,-0.68 -4.16,-3.93 -5.86,-7.6 -1.55,-3.33 1.05,-4.34 2.37,-4.37 -0.75,0.61 -1.51,1.63 -0.94,3.04 0.99,2.44 1.33,4.26 1.85,4.72 0.52,0.46 2.41,1.48 3.86,2.01 1.18,0.43 2.04,-0.17 2.44,0.45z"/>
   <path class="fil1" d="M344.65 133.04c0,0 -1.07,2.77 0.96,6.1 0,0 -1.49,-3.61 -0.96,-6.1z"/>
  </g>
  <rect class="fil4" y="0" width="607.84" height="202.57"/>
  <line class="fil4 str0" x1="607.84" y1="16.5" x2="607.84" y2= "185.04" />
 </g>
</svg>
