<?xml version="1.0" encoding="UTF-8"?>
<!DOCTYPE svg PUBLIC "-//W3C//DTD SVG 1.1//EN" "http://www.w3.org/Graphics/SVG/1.1/DTD/svg11.dtd">
<!-- Creator: CorelDRAW -->
<svg xmlns="http://www.w3.org/2000/svg" xml:space="preserve" width="59.4816mm" height="19.7646mm" version="1.1" style="shape-rendering:geometricPrecision; text-rendering:geometricPrecision; image-rendering:optimizeQuality; fill-rule:evenodd; clip-rule:evenodd"
viewBox="0 0 609.65 202.57"
 xmlns:xlink="http://www.w3.org/1999/xlink"
 xmlns:xodm="http://www.corel.com/coreldraw/odm/2003">
 <defs>
  <style type="text/css">
   <![CDATA[
    .str0 {stroke:#232323;stroke-width:3.62;stroke-miterlimit:2.61313}
    .str1 {stroke:#CCCCCC;stroke-width:3.62;stroke-linecap:round;stroke-linejoin:round;stroke-miterlimit:22.9256}
    .fil3 {fill:none}
    .fil0 {fill:#232323}
    .fil2 {fill:#232323;fill-rule:nonzero}
    .fil1 {fill:#232323;fill-rule:nonzero}
   ]]>
  </style>
 </defs>
 <g id="Layer_x0020_1">
  <metadata id="CorelCorpID_0Corel-Layer"/>
  <g id="logo_hg.cdr">
   <path class="fil0" d="M248.93 93.46l41.9 0 0 -58.33 0.37 -0.07c2.99,-0.59 6.02,-0.97 9.07,-1.14l0.49 -0.03 0 131.24 -0.49 -0.03c-3.04,-0.17 -6.08,-0.55 -9.07,-1.14l-0.37 -0.07 0 -60.5 -42.1 0c0.42,6.05 1.82,11.99 4.15,17.59 2.83,6.79 6.98,12.96 12.21,18.13l0.33 0.33 -6.98 7.02 -0.33 -0.33c-6.16,-6.09 -11.05,-13.36 -14.38,-21.36 -3.34,-8 -5.06,-16.6 -5.06,-25.27 0,-9.25 1.97,-18.41 5.75,-26.85 3.78,-8.44 9.3,-16 16.21,-22.15l0.35 -0.31 6.6 7.41 -0.35 0.31c-5.86,5.21 -10.55,11.61 -13.76,18.77 -2.38,5.31 -3.91,10.97 -4.53,16.76zm68.11 -47.97l-0.04 108.04c11.16,-2.72 21.14,-8.86 28.63,-17.57 7.79,-9.05 12.42,-20.3 13.41,-32.18l-16.25 -0.42 0.23 -9.9 26.15 0.68 0 4.82c0,15.98 -5.61,31.36 -16.05,43.48 -12.98,15.06 -27.29,20.66 -46.02,22.73l0.05 -131.41c9.54,0.75 17.51,2.77 26.71,7.55 6.58,3.42 12.52,7.95 17.59,13.36l0.32 0.34 -7.22 6.75 -0.32 -0.34c-4.3,-4.59 -9.37,-8.41 -14.95,-11.31 -3.88,-2.02 -8,-3.58 -12.24,-4.64z"/>
   <path class="fil1 str0" d="M374.35 141.86c3.81,-6.4 6.73,-13.25 8.69,-20.37 1.96,-7.12 2.97,-14.5 2.97,-21.97 0,-22.76 -9.19,-43.37 -24.04,-58.29 -14.85,-14.91 -35.37,-24.14 -58.04,-24.14 -22.67,0 -43.19,9.22 -58.04,24.14 -14.85,14.92 -24.04,35.52 -24.04,58.29 0,8.42 1.28,16.74 3.76,24.67 2.48,7.94 6.16,15.5 10.94,22.41l-1.34 0.93c-4.88,-7.05 -8.63,-14.76 -11.16,-22.85 -2.53,-8.1 -3.84,-16.58 -3.84,-25.16 0,-23.21 9.37,-44.22 24.52,-59.44 15.15,-15.21 36.08,-24.62 59.2,-24.62 23.12,0 44.05,9.41 59.2,24.62 15.15,15.21 24.52,36.23 24.52,59.44 0,7.6 -1.03,15.13 -3.03,22.4 -2,7.27 -4.97,14.26 -8.86,20.78l-1.4 -0.84z"/>
   <path class="fil2" d="M243.64 160.81l6.2 -6.45 1.42 1.37 -0.43 4.59 4.57 -0.6 1.42 1.37 -6.2 6.45 -1.59 -1.53 3.84 -3.99 -4.18 0.51 0.37 -4.18 -3.84 3.99 -1.59 -1.53zm15.41 6.39c0.34,0.24 0.64,0.35 0.91,0.32 0.27,-0.02 0.5,-0.18 0.7,-0.47 0.19,-0.27 0.26,-0.55 0.19,-0.81 -0.07,-0.27 -0.27,-0.51 -0.59,-0.74l-0.88 -0.62 -1.2 1.7 0.88 0.62zm-5.76 2.39l5.17 -7.3 2.7 1.91c0.99,0.7 1.6,1.39 1.83,2.07 0.23,0.68 0.09,1.38 -0.42,2.1 -0.28,0.4 -0.63,0.67 -1.05,0.81 -0.41,0.14 -0.9,0.16 -1.47,0.05 0.13,0.19 0.22,0.42 0.25,0.68 0.03,0.26 0.02,0.54 -0.04,0.86l-0.6 3.33 -2.06 -1.46 0.56 -2.76c0.09,-0.44 0.08,-0.79 -0.02,-1.05 -0.1,-0.26 -0.33,-0.52 -0.68,-0.77 -0.03,-0.02 -0.07,-0.04 -0.11,-0.07 -0.05,-0.03 -0.08,-0.05 -0.11,-0.07l-2.1 2.97 -1.83 -1.29zm8.49 4.98l0.95 -1.75c0.39,0.69 0.75,1.21 1.08,1.58 0.33,0.37 0.68,0.65 1.06,0.86 0.39,0.21 0.71,0.31 0.97,0.3 0.26,-0.01 0.46,-0.13 0.58,-0.36 0.1,-0.19 0.12,-0.37 0.06,-0.55 -0.06,-0.18 -0.27,-0.47 -0.64,-0.88 -0.91,-1 -1.46,-1.82 -1.66,-2.46 -0.2,-0.64 -0.13,-1.28 0.22,-1.91 0.36,-0.67 0.93,-1.07 1.71,-1.19 0.78,-0.12 1.6,0.05 2.48,0.53 0.44,0.24 0.87,0.54 1.25,0.89 0.39,0.35 0.75,0.75 1.07,1.2l-0.88 1.62c-0.38,-0.55 -0.75,-1.01 -1.1,-1.36 -0.35,-0.36 -0.7,-0.63 -1.04,-0.81 -0.37,-0.2 -0.69,-0.3 -0.94,-0.3 -0.26,0 -0.44,0.1 -0.55,0.31 -0.09,0.17 -0.09,0.37 0.01,0.61 0.1,0.24 0.29,0.52 0.57,0.85 0.06,0.07 0.15,0.18 0.27,0.31 0.6,0.68 1.01,1.21 1.23,1.59 0.23,0.39 0.34,0.8 0.34,1.23 -0.01,0.42 -0.13,0.86 -0.37,1.3 -0.39,0.73 -0.98,1.15 -1.75,1.27 -0.78,0.12 -1.65,-0.09 -2.63,-0.62 -0.49,-0.26 -0.92,-0.58 -1.31,-0.96 -0.38,-0.38 -0.72,-0.8 -1,-1.29zm11.37 6.45l3.05 -8.41 2.11 0.76 -1.22 3.37 3.74 1.36 1.22 -3.37 2.11 0.76 -3.05 8.41 -2.11 -0.76 1.24 -3.41 -3.74 -1.36 -1.24 3.41 -2.11 -0.76zm11.25 3.6l2.02 -8.71 2.24 0.52 -2.02 8.71 -2.24 -0.52zm8.3 -4l-0.6 5.59 -2.2 -0.24 0.95 -8.89 1.95 0.21 4.2 5.81 0.57 -5.3 2.2 0.24 -0.95 8.89 -1.74 -0.19 -4.38 -6.12zm11.97 3.16l2.64 -0.04 -1.31 -3.38 -1.33 3.43zm-3.69 3.34l3.75 -9.01 2.58 -0.04 3.63 8.89 -2.37 0.04 -0.67 -1.73 -3.85 0.06 -0.69 1.75 -2.38 0.04zm23.49 -3.43c-0.46,0.5 -0.98,0.91 -1.54,1.21 -0.57,0.31 -1.21,0.52 -1.92,0.66 -0.69,0.13 -1.35,0.14 -1.97,0.03 -0.62,-0.11 -1.17,-0.32 -1.67,-0.64 -0.52,-0.34 -0.95,-0.77 -1.29,-1.3 -0.34,-0.52 -0.57,-1.11 -0.69,-1.76 -0.25,-1.37 0,-2.56 0.76,-3.56 0.76,-1 1.89,-1.64 3.4,-1.92 0.55,-0.1 1.1,-0.14 1.67,-0.1 0.56,0.03 1.14,0.13 1.75,0.3l0.36 1.93c-0.64,-0.19 -1.23,-0.31 -1.79,-0.36 -0.56,-0.05 -1.06,-0.03 -1.52,0.05 -0.89,0.16 -1.54,0.53 -1.96,1.11 -0.42,0.57 -0.55,1.29 -0.39,2.13 0.15,0.83 0.51,1.44 1.09,1.84 0.57,0.4 1.26,0.52 2.08,0.38 0.22,-0.04 0.43,-0.1 0.63,-0.19 0.21,-0.09 0.41,-0.19 0.6,-0.32l-0.2 -1.11 -1.21 0.22 -0.3 -1.65 3.45 -0.64 0.68 3.68zm4.63 -3.82l2.51 -0.81 -2.24 -2.86 -0.27 3.67zm-2.56 4.27l0.96 -9.71 2.46 -0.79 6.07 7.44 -2.26 0.73 -1.14 -1.46 -3.67 1.19 -0.15 1.88 -2.27 0.73zm14.62 -15.7l2.34 4.55c0.57,1.12 0.69,2.15 0.35,3.12 -0.34,0.96 -1.11,1.75 -2.29,2.36 -1.18,0.61 -2.27,0.77 -3.25,0.49 -0.98,-0.28 -1.76,-0.98 -2.33,-2.1l-2.34 -4.55 2 -1.03 2.3 4.47c0.32,0.63 0.72,1.04 1.2,1.22 0.48,0.18 1,0.12 1.58,-0.17 0.57,-0.29 0.92,-0.68 1.05,-1.17 0.13,-0.49 0.03,-1.05 -0.3,-1.68l-2.3 -4.47 1.99 -1.02zm8.7 5.11l-4.13 -5.99 -2.44 1.68 -0.94 -1.37 6.81 -4.7 0.94 1.37 -2.44 1.68 4.13 5.99 -1.94 1.34zm5.68 -8.3l2.02 -1.7 -3.15 -1.79 1.13 3.5zm-0.75 4.92l-2.79 -9.35 1.97 -1.67 8.43 4.59 -1.81 1.53 -1.61 -0.92 -2.95 2.49 0.58 1.79 -1.82 1.54zm9.15 -7.97l-6.8 -5.81 1.28 -1.5 4.6 0.16 -0.87 -4.53 1.28 -1.5 6.8 5.81 -1.43 1.67 -4.21 -3.59 0.76 4.14 -4.2 -0.12 4.21 3.59 -1.44 1.68z"/>
  </g>
  <rect class="fil3" y="0" width="607.84" height="202.57"/>
  <line class="fil3 str1" x1="607.84" y1="16.5" x2="607.84" y2= "185.04" />
 </g>
</svg>
