<?xml version="1.0" encoding="UTF-8"?>
<!DOCTYPE svg PUBLIC "-//W3C//DTD SVG 1.1//EN" "http://www.w3.org/Graphics/SVG/1.1/DTD/svg11.dtd">
<!-- Creator: CorelDRAW -->
<svg xmlns="http://www.w3.org/2000/svg" xml:space="preserve" width="59.4814mm" height="19.7646mm" version="1.1" style="shape-rendering:geometricPrecision; text-rendering:geometricPrecision; image-rendering:optimizeQuality; fill-rule:evenodd; clip-rule:evenodd"
viewBox="0 0 1575.88 523.64"
 xmlns:xlink="http://www.w3.org/1999/xlink"
 xmlns:xodm="http://www.corel.com/coreldraw/odm/2003">
 <defs>
  <style type="text/css">
   <![CDATA[
    .str0 {stroke:#CCCCCC;stroke-width:9.35;stroke-linecap:round;stroke-linejoin:round;stroke-miterlimit:22.9256}
    .fil3 {fill:none}
    .fil0 {fill:#232323}
    .fil1 {fill:#E65640}
    .fil2 {fill:white}
   ]]>
  </style>
 </defs>
 <g id="Layer_x0020_1">
  <metadata id="CorelCorpID_0Corel-Layer"/>
  <g id="_2537097134064">
   <path class="fil0" d="M188.87 199.05l36.38 0 0 52.91 45.69 0 0 -52.91 36.38 0 0 15.79c-12.14,12.2 -19.67,29.2 -19.67,48 0,18.8 7.53,35.8 19.67,48l0 14.85 -36.38 0 0 -47.27 -45.69 0 0 47.27 -36.38 0 0 -126.64z"/>
   <path class="fil1" d="M362.86 199.05c37.31,0 67.56,28.66 67.56,64.02 0,35.36 -30.25,64.03 -67.56,64.03 -37.31,0 -67.56,-28.67 -67.56,-64.03 0,-35.36 30.25,-64.02 67.56,-64.02zm0 30.79c17.45,0 31.6,14.88 31.6,33.23 0,18.35 -14.15,33.23 -31.6,33.23 -17.46,0 -31.6,-14.88 -31.6,-33.23 0,-18.35 14.14,-33.23 31.6,-33.23z"/>
   <path class="fil0" d="M453.76 199.05l-34.08 0 0 15.79c11.37,12.2 18.43,29.2 18.43,48 0,18.8 -7.06,35.8 -18.43,48l0 14.85 34.08 0 0 -71.76 25.29 59.29 23.22 0 26.11 -62.21 0 74.68 31.99 0 0 -126.64 -31.99 0 -8.74 0 -30.18 71.06 -30.46 -71.06 -5.23 0z"/>
   <polygon class="fil0" points="567.78,199.05 596.08,199.05 604.17,199.05 668.45,199.05 668.45,225.43 604.17,225.43 604.17,247.96 661.97,247.96 661.97,274.34 604.17,274.34 604.17,299.31 668.45,299.31 668.45,325.69 604.17,325.69 596.08,325.69 567.78,325.69 "/>
   <rect class="fil1" x="681.73" y="248.09" width="26.65" height="27.64"/>
   <path class="fil0" d="M721.63 199.05l36.38 0 16.35 0c37.32,0 67.56,28.35 67.56,63.32 0,34.97 -30.25,63.32 -67.56,63.32 -5.53,0 -10.75,-0.15 -16.35,0l-36.38 0 0 -126.64zm47.77 27.31c21.69,0 37.39,15.72 37.39,35.1 0,19.39 -15.7,35.1 -37.39,35.1 -3.21,0 -8.13,-0.08 -11.39,0l0 -70.21 11.39 0z"/>
   <path class="fil0" d="M1135.37 199.05c37.31,0 67.56,28.53 67.56,63.73 0,35.19 -30.25,63.73 -67.56,63.73 -37.31,0 -67.56,-28.53 -67.56,-63.73 0,-35.19 30.25,-63.73 67.56,-63.73zm0 31.39c17.45,0 31.6,15.17 31.6,33.88 0,18.71 -14.15,33.88 -31.6,33.88 -17.46,0 -31.6,-15.17 -31.6,-33.88 0,-18.71 14.14,-33.88 31.6,-33.88z"/>
   <polygon class="fil0" points="885.76,299.31 950.05,299.31 950.05,325.69 885.76,325.69 877.68,325.69 849.38,325.69 849.38,199.05 877.68,199.05 885.76,199.05 950.05,199.05 950.05,225.43 885.76,225.43 885.76,247.96 943.56,247.96 943.56,274.34 885.76,274.34 "/>
   <path class="fil0" d="M1022.02 196.53c19.75,0 37.48,8.53 49.58,22.05l-20.28 25.94c-5.4,-10.35 -15.94,-17.38 -28.06,-17.38 -17.62,0 -31.9,14.85 -31.9,33.18 0,18.33 14.28,33.18 31.9,33.18 11.51,0 21.61,-6.35 27.22,-15.87l23.3 24.2c-12.1,14.98 -30.78,24.59 -51.75,24.59 -36.47,0 -66.04,-29.08 -66.04,-64.95 0,-35.87 29.57,-64.95 66.04,-64.95z"/>
   <path class="fil0" d="M1209.74 199.05l36.38 0 30.74 -0.18c21.3,0 38.77,18.56 41.95,37.74 2.52,15.23 0.55,34.53 -20.01,46.71l23.67 42.38 -36.38 0 -19.86 -35.55 -20.12 -0.03 0 35.59 -36.38 0 0 -126.64zm76.75 44.61c0,18.17 -12.41,18.71 -22.6,18.71l-17.77 0 0 -36.34 17.14 0c15.85,0 22.47,4.37 23.23,17.64z"/>
   <rect class="fil1" x="1345.96" y="198.5" width="36.38" height="126.64"/>
   <g>
    <polygon class="fil2" points="1361.32,224.18 1374.37,224.18 1374.37,229.54 1361.32,229.54 1359.68,229.54 1353.93,229.54 1353.93,203.83 1359.68,203.83 1361.32,203.83 1374.37,203.83 1374.37,209.19 1361.32,209.19 1361.32,213.76 1373.05,213.76 1373.05,219.11 1361.32,219.11 "/>
    <polygon class="fil2" points="1352.96,234.13 1359.98,234.13 1364.15,240.37 1368.32,234.13 1375.35,234.13 1367.67,245.62 1377.04,259.65 1370.01,259.65 1364.15,250.88 1358.29,259.65 1351.26,259.65 1360.64,245.62 "/>
    <path class="fil2" d="M1353.04 264.27l7.35 0 6.21 -0.03c4.3,0 7.83,3.75 8.48,7.62 0.51,3.08 0.11,6.98 -4.04,9.44 -2.05,0.95 -4.17,1.38 -6.58,1.38l-4.06 -0.01 0 7.19 -7.35 0 0 -25.59zm15.51 9.02c0,3.67 -2.51,3.78 -4.57,3.78l-3.59 0 0 -7.34 3.46 0c3.2,0 4.54,0.88 4.7,3.56z"/>
    <path class="fil2" d="M1364.15 294.29c7.47,0 13.53,5.71 13.53,12.76 0,7.05 -6.05,12.76 -13.53,12.76 -7.47,0 -13.52,-5.71 -13.52,-12.76 0,-7.05 6.05,-12.76 13.52,-12.76zm0 6.28c3.49,0 6.33,3.04 6.33,6.79 0,3.75 -2.83,6.78 -6.33,6.78 -3.5,0 -6.33,-3.04 -6.33,-6.78 0,-3.75 2.83,-6.79 6.33,-6.79z"/>
   </g>
  </g>
  <rect class="fil3" y="0" width="1571.21" height="523.63"/>
  <line class="fil3 str0" x1="1571.2" y1="42.66" x2="1571.2" y2= "478.32" />
 </g>
</svg>
