<?xml version="1.0" encoding="UTF-8"?>
<!DOCTYPE svg PUBLIC "-//W3C//DTD SVG 1.1//EN" "http://www.w3.org/Graphics/SVG/1.1/DTD/svg11.dtd">
<!-- Creator: CorelDRAW -->
<svg xmlns="http://www.w3.org/2000/svg" xml:space="preserve" width="59.4814mm" height="19.7646mm" version="1.1" style="shape-rendering:geometricPrecision; text-rendering:geometricPrecision; image-rendering:optimizeQuality; fill-rule:evenodd; clip-rule:evenodd"
viewBox="0 0 1031.13 342.63"
 xmlns:xlink="http://www.w3.org/1999/xlink"
 xmlns:xodm="http://www.corel.com/coreldraw/odm/2003">
 <defs>
  <style type="text/css">
   <![CDATA[
    .str0 {stroke:#CCCCCC;stroke-width:6.12;stroke-linecap:round;stroke-linejoin:round;stroke-miterlimit:22.9256}
    .fil4 {fill:none}
    .fil2 {fill:#2B2A29;fill-rule:nonzero}
    .fil0 {fill:#54C4F1;fill-rule:nonzero}
    .fil1 {fill:#325EA8;fill-rule:nonzero}
    .fil3 {fill:#335EA7;fill-rule:nonzero}
   ]]>
  </style>
 </defs>
 <g id="Layer_x0020_1">
  <metadata id="CorelCorpID_0Corel-Layer"/>
  <g id="_2537847634640">
   <g>
    <g>
     <g>
      <g>
       <polygon class="fil0" points="545.03,67.57 545.03,170.2 525.54,170.2 474.37,107.89 474.37,170.2 450.92,170.2 450.92,67.57 470.56,67.57 521.58,129.88 521.58,67.57 "/>
      </g>
     </g>
     <g>
      <g>
       <path class="fil0" d="M582.93 166.16c-6.6,-3.47 -11.75,-8.28 -15.46,-14.44 -3.71,-6.16 -5.57,-13.14 -5.57,-20.96 0,-7.82 1.86,-14.81 5.57,-20.97 3.71,-6.16 8.87,-10.97 15.46,-14.44 6.6,-3.47 14.05,-5.2 22.36,-5.2 8.31,0 15.73,1.74 22.28,5.2 6.55,3.47 11.68,8.29 15.4,14.44 3.71,6.16 5.57,13.15 5.57,20.97 0,7.82 -1.86,14.81 -5.57,20.96 -3.72,6.16 -8.85,10.97 -15.4,14.44 -6.55,3.48 -13.97,5.21 -22.28,5.21 -8.31,0 -15.76,-1.73 -22.36,-5.21zm36.8 -19.5l0 0c3.76,-3.96 5.64,-9.26 5.64,-15.91 0,-6.65 -1.88,-11.95 -5.64,-15.91 -3.76,-3.96 -8.58,-5.94 -14.44,-5.94 -5.86,0 -10.7,1.98 -14.51,5.94 -3.81,3.96 -5.72,9.26 -5.72,15.91 0,6.65 1.91,11.95 5.72,15.91 3.81,3.96 8.65,5.94 14.51,5.94 5.86,0 10.68,-1.98 14.44,-5.94z"/>
      </g>
     </g>
     <g>
      <g>
       <path class="fil1" d="M675.58 168.65c-7.57,-2.2 -13.66,-5.06 -18.25,-8.57l8.06 -17.88c4.4,3.22 9.62,5.82 15.68,7.77 6.06,1.96 12.12,2.93 18.18,2.93 6.74,0 11.73,-1 14.95,-3 3.22,-2.01 4.84,-4.67 4.84,-7.99 0,-2.44 -0.95,-4.47 -2.86,-6.08 -1.91,-1.61 -4.35,-2.91 -7.33,-3.89 -2.98,-0.98 -7.01,-2.05 -12.09,-3.22 -7.82,-1.86 -14.22,-3.71 -19.2,-5.57 -4.99,-1.85 -9.26,-4.84 -12.83,-8.94 -3.57,-4.11 -5.35,-9.58 -5.35,-16.42 0,-5.96 1.61,-11.36 4.84,-16.2 3.23,-4.84 8.09,-8.67 14.59,-11.51 6.5,-2.83 14.44,-4.25 23.82,-4.25 6.55,0 12.95,0.78 19.21,2.35 6.25,1.57 11.73,3.81 16.42,6.74l-7.33 18.03c-9.48,-5.37 -18.96,-8.07 -28.44,-8.07 -6.65,0 -11.56,1.08 -14.73,3.23 -3.18,2.15 -4.77,4.99 -4.77,8.5 0,3.52 1.83,6.14 5.5,7.85 3.66,1.71 9.26,3.4 16.78,5.06 7.82,1.86 14.22,3.71 19.21,5.57 4.98,1.86 9.26,4.79 12.83,8.8 3.57,4.01 5.35,9.43 5.35,16.27 0,5.86 -1.64,11.22 -4.91,16.06 -3.27,4.83 -8.19,8.67 -14.73,11.51 -6.55,2.84 -14.51,4.25 -23.9,4.25 -8.11,0 -15.96,-1.1 -23.53,-3.3z"/>
      </g>
     </g>
     <g>
      <g>
       <path class="fil1" d="M772.49 166.16c-6.6,-3.47 -11.75,-8.28 -15.46,-14.44 -3.71,-6.16 -5.57,-13.14 -5.57,-20.96 0,-7.82 1.86,-14.81 5.57,-20.97 3.71,-6.16 8.87,-10.97 15.46,-14.44 6.6,-3.47 14.05,-5.2 22.36,-5.2 8.31,0 15.73,1.74 22.28,5.2 6.55,3.47 11.68,8.29 15.4,14.44 3.71,6.16 5.57,13.15 5.57,20.97 0,7.82 -1.86,14.81 -5.57,20.96 -3.72,6.16 -8.85,10.97 -15.4,14.44 -6.55,3.48 -13.97,5.21 -22.28,5.21 -8.31,0 -15.76,-1.73 -22.36,-5.21zm36.8 -19.5l0 0c3.76,-3.96 5.64,-9.26 5.64,-15.91 0,-6.65 -1.88,-11.95 -5.64,-15.91 -3.76,-3.96 -8.58,-5.94 -14.44,-5.94 -5.86,0 -10.7,1.98 -14.51,5.94 -3.81,3.96 -5.72,9.26 -5.72,15.91 0,6.65 1.91,11.95 5.72,15.91 3.81,3.96 8.65,5.94 14.51,5.94 5.86,0 10.68,-1.98 14.44,-5.94z"/>
      </g>
     </g>
     <polygon class="fil2" points="460.6,198.09 460.6,224.54 495.43,224.54 495.43,230.7 460.6,230.7 460.6,259.28 453.48,259.28 453.48,191.93 499.66,191.93 499.66,198.09 "/>
     <path class="fil2" d="M556.82 208.67l0 50.61 -6.54 0 0 -9.23c-1.8,3.08 -4.27,5.47 -7.41,7.17 -3.14,1.7 -6.74,2.55 -10.78,2.55 -6.61,0 -11.82,-1.85 -15.63,-5.53 -3.82,-3.69 -5.72,-9.09 -5.72,-16.21l0 -29.34 6.83 0 0 28.67c0,5.33 1.31,9.36 3.95,12.12 2.63,2.76 6.38,4.14 11.26,4.14 5.32,0 9.53,-1.62 12.6,-4.86 3.08,-3.24 4.62,-7.74 4.62,-13.52l0 -26.55 6.83 0z"/>
     <path class="fil2" d="M616.9 213.82c3.75,3.69 5.63,9.06 5.63,16.11l0 29.35 -6.83 0 0 -28.67c0,-5.26 -1.32,-9.27 -3.94,-12.03 -2.63,-2.76 -6.38,-4.14 -11.26,-4.14 -5.45,0 -9.76,1.62 -12.94,4.86 -3.17,3.24 -4.76,7.72 -4.76,13.42l0 26.55 -6.83 0 0 -50.61 6.54 0 0 9.33c1.86,-3.08 4.44,-5.47 7.75,-7.17 3.3,-1.7 7.14,-2.55 11.5,-2.55 6.35,0 11.4,1.84 15.15,5.53z"/>
     <path class="fil2" d="M687.47 187.89l0 71.39 -6.54 0 0 -10.01c-2.05,3.4 -4.76,6 -8.13,7.79 -3.37,1.8 -7.17,2.7 -11.4,2.7 -4.75,0 -9.04,-1.09 -12.89,-3.27 -3.85,-2.18 -6.86,-5.23 -9.05,-9.14 -2.18,-3.91 -3.27,-8.37 -3.27,-13.37 0,-5 1.09,-9.46 3.27,-13.37 2.18,-3.91 5.2,-6.94 9.05,-9.09 3.85,-2.15 8.14,-3.22 12.89,-3.22 4.11,0 7.81,0.85 11.12,2.55 3.3,1.7 6.01,4.18 8.13,7.46l0 -30.4 6.83 0zm-15.92 63.36l0 0c2.85,-1.63 5.1,-3.96 6.73,-6.98 1.64,-3.01 2.45,-6.45 2.45,-10.29 0,-3.85 -0.82,-7.28 -2.45,-10.3 -1.63,-3.01 -3.88,-5.34 -6.73,-6.97 -2.85,-1.64 -6.04,-2.45 -9.57,-2.45 -3.59,0 -6.82,0.82 -9.67,2.45 -2.85,1.63 -5.1,3.96 -6.73,6.97 -1.64,3.02 -2.45,6.45 -2.45,10.3 0,3.85 0.82,7.28 2.45,10.29 1.64,3.02 3.88,5.34 6.73,6.98 2.85,1.64 6.08,2.45 9.67,2.45 3.53,0 6.72,-0.82 9.57,-2.45z"/>
     <path class="fil2" d="M706.42 196.16c-0.96,-0.96 -1.44,-2.11 -1.44,-3.46 0,-1.28 0.48,-2.41 1.44,-3.37 0.97,-0.96 2.15,-1.44 3.56,-1.44 1.41,0 2.6,0.47 3.56,1.39 0.96,0.93 1.44,2.04 1.44,3.32 0,1.41 -0.48,2.6 -1.44,3.56 -0.96,0.96 -2.15,1.44 -3.56,1.44 -1.41,0 -2.6,-0.48 -3.56,-1.44zm0.1 12.51l0 0 6.83 0 0 50.61 -6.83 0 0 -50.61z"/>
     <path class="fil2" d="M773.34 213.82c3.75,3.69 5.63,9.06 5.63,16.11l0 29.35 -6.83 0 0 -28.67c0,-5.26 -1.32,-9.27 -3.94,-12.03 -2.63,-2.76 -6.38,-4.14 -11.26,-4.14 -5.45,0 -9.76,1.62 -12.94,4.86 -3.17,3.24 -4.76,7.72 -4.76,13.42l0 26.55 -6.83 0 0 -50.61 6.54 0 0 9.33c1.86,-3.08 4.44,-5.47 7.75,-7.17 3.3,-1.7 7.14,-2.55 11.5,-2.55 6.35,0 11.4,1.84 15.15,5.53z"/>
     <path class="fil2" d="M844.58 208.67l0 44.45c0,8.59 -2.1,14.96 -6.3,19.1 -4.2,4.14 -10.53,6.2 -19,6.2 -4.69,0 -9.13,-0.69 -13.33,-2.07 -4.2,-1.38 -7.61,-3.29 -10.25,-5.72l3.47 -5.2c2.43,2.18 5.4,3.88 8.9,5.1 3.49,1.22 7.17,1.83 11.02,1.83 6.41,0 11.13,-1.49 14.14,-4.47 3.01,-2.98 4.52,-7.62 4.52,-13.9l0 -6.45c-2.11,3.21 -4.89,5.65 -8.32,7.32 -3.43,1.67 -7.23,2.5 -11.4,2.5 -4.74,0 -9.06,-1.04 -12.94,-3.13 -3.88,-2.09 -6.93,-5 -9.14,-8.76 -2.21,-3.75 -3.32,-8 -3.32,-12.75 0,-4.75 1.11,-8.98 3.32,-12.7 2.21,-3.72 5.24,-6.61 9.09,-8.66 3.85,-2.05 8.18,-3.08 12.99,-3.08 4.3,0 8.18,0.87 11.64,2.6 3.47,1.73 6.26,4.23 8.37,7.5l0 -9.72 6.54 0zm-15.97 40.26l0 0c2.95,-1.57 5.24,-3.77 6.88,-6.59 1.64,-2.82 2.45,-6.03 2.45,-9.62 0,-3.59 -0.82,-6.78 -2.45,-9.58 -1.64,-2.79 -3.91,-4.97 -6.83,-6.54 -2.92,-1.57 -6.24,-2.36 -9.96,-2.36 -3.65,0 -6.94,0.77 -9.86,2.31 -2.92,1.54 -5.2,3.72 -6.83,6.54 -1.64,2.82 -2.45,6.03 -2.45,9.62 0,3.59 0.82,6.8 2.45,9.62 1.64,2.82 3.91,5.02 6.83,6.59 2.92,1.57 6.2,2.36 9.86,2.36 3.66,0 6.96,-0.79 9.91,-2.36z"/>
    </g>
    <g>
     <path class="fil0" d="M217.84 128.43c0,0 -34.2,1.01 -34.34,-2.02 -0.15,-3.03 3.61,-4.18 6.06,-8.08 2.45,-3.9 1.01,-10.53 6.93,-11.54 5.92,-1.01 9.67,0.43 14.72,-3.75 5.05,-4.18 4.33,-0.43 8.51,-4.91 4.18,-4.47 5.91,-6.93 8.37,-7.07 2.45,-0.14 3.46,0 6.35,0 2.89,0 9.09,-3.17 13.42,-6.49 4.33,-3.32 8.8,-5.77 9.96,-7.79 1.15,-2.02 0.43,-12.41 3.9,-12.55 3.46,-0.14 4.47,1.88 8.08,2.31 3.61,0.43 152.38,0.87 152.38,0.87l6.93 11.69c0,0 -7.07,1.15 -9.23,2.17 -2.16,1.01 -6.49,2.31 -7.07,3.75 -0.58,1.44 -3.03,5.92 -3.75,4.18 -0.72,-1.73 -2.89,-1.73 -3.75,-0.58 -0.87,1.15 -3.17,5.63 1.01,5.34 4.18,-0.29 5.48,-2.89 7.5,-3.18 2.02,-0.29 7.21,-1.88 7.36,0.43 0.14,2.31 -2.31,8.23 1.15,6.64 3.46,-1.59 4.91,-6.49 6.78,-6.35 1.88,0.15 4.18,11.69 1.44,14.29 -2.74,2.6 -3.46,2.89 -3.46,2.89 0,0 -6.35,8.51 -10.1,7.94 -3.75,-0.58 -5.63,-9.38 -7.94,-8.95 -2.31,0.43 -3.32,5.05 -3.03,6.35 0.29,1.3 1.88,2.16 3.17,4.76 1.3,2.6 -3.17,14 -6.2,13.56 -3.03,-0.43 -5.05,-3.75 -6.06,-3.17 -1.01,0.58 0.43,4.62 3.75,5.63 3.32,1.01 8.8,-0.43 11.4,-2.02 2.6,-1.59 4.76,-0.87 4.76,1.3 0,2.16 -5.92,7.36 -8.51,7.36 -2.6,0 -10.25,-1.44 -12.55,2.17 -2.31,3.61 -5.63,1.88 -13.28,10.39 -7.65,8.51 -3.9,24.1 -14.14,24.53 -10.25,0.43 -12.84,1.59 -15.87,-1.59 -3.03,-3.18 -30.16,-36.65 -30.16,-36.65 0,0 -28.28,2.17 -30.16,-1.01 -1.88,-3.18 -6.35,-14 -10.97,-15.73 -4.62,-1.73 -27.71,-1.15 -36.8,-1.3 -9.09,-0.14 -14.43,7.79 -26.55,6.21z"/>
    </g>
    <path class="fil3" d="M279.01 257.05c0,0 -3.62,-3.17 -3.62,-7.47 0,-4.3 -1.35,-8.45 -4.47,-10.82 -3.12,-2.36 -2.26,-7.42 -1.93,-10.53 0.32,-3.12 -1.29,-3.65 -2.47,-9.24 -1.18,-5.59 -8.49,-4.41 -9.46,-7.95 -0.97,-3.55 -1.61,-8.92 -9.67,-19.24 -8.06,-10.32 -11.29,-17.84 -13,-22.46 -1.72,-4.62 -3.12,-10.32 -9.35,-14.08 -6.23,-3.76 -10,-7.1 -8.38,-11.29 1.61,-4.19 13.43,-14.72 28.16,-15.59 14.72,-0.86 36.65,-1.83 39.44,6.67 2.79,8.49 -0.97,10.75 12.47,11.93 13.43,1.18 23,-2.69 28.59,6.34 5.59,9.03 27.51,29.77 25.47,32.78 -2.04,3.01 -17.3,11.82 -16.76,18.59 0.54,6.77 -1.51,9.03 -11.82,17.84 -10.32,8.81 -20.63,16.98 -23.43,17.84 -2.79,0.86 -3.87,6.02 -6.66,6.99 -2.79,0.97 -6.99,1.5 -5.59,3.65 1.4,2.15 0.38,8.63 -7.49,6.03z"/>
   </g>
  </g>
  <rect class="fil4" y="0" width="1028.07" height="342.62"/>
  <line class="fil4 str0" x1="1028.07" y1="27.91" x2="1028.07" y2= "312.97" />
 </g>
</svg>
