<?xml version="1.0" encoding="UTF-8"?>
<!DOCTYPE svg PUBLIC "-//W3C//DTD SVG 1.1//EN" "http://www.w3.org/Graphics/SVG/1.1/DTD/svg11.dtd">
<!-- Creator: CorelDRAW -->
<svg xmlns="http://www.w3.org/2000/svg" xml:space="preserve" width="59.4814mm" height="19.7646mm" version="1.1" style="shape-rendering:geometricPrecision; text-rendering:geometricPrecision; image-rendering:optimizeQuality; fill-rule:evenodd; clip-rule:evenodd"
viewBox="0 0 1575.88 523.64"
 xmlns:xlink="http://www.w3.org/1999/xlink"
 xmlns:xodm="http://www.corel.com/coreldraw/odm/2003">
 <defs>
  <style type="text/css">
   <![CDATA[
    .str0 {stroke:#0D9372;stroke-width:4.49;stroke-linecap:round;stroke-linejoin:round;stroke-miterlimit:5}
    .str1 {stroke:#CCCCCC;stroke-width:9.35;stroke-linecap:round;stroke-linejoin:round;stroke-miterlimit:22.9256}
    .fil0 {fill:none}
    .fil3 {fill:none;fill-rule:nonzero}
    .fil7 {fill:#093942}
    .fil9 {fill:#0A363E}
    .fil5 {fill:#0A3641}
    .fil11 {fill:#0A4345}
    .fil4 {fill:#0D9372}
    .fil10 {fill:#0E9171}
    .fil8 {fill:#0F196E}
    .fil13 {fill:#A7DDB8}
    .fil12 {fill:#ADE3BC}
    .fil6 {fill:#B1E5BE}
    .fil1 {fill:#0A3641;fill-rule:nonzero}
    .fil2 {fill:#0D9372;fill-rule:nonzero}
   ]]>
  </style>
 </defs>
 <g id="Layer_x0020_1">
  <metadata id="CorelCorpID_0Corel-Layer"/>
  <rect class="fil0" y="0" width="1571.21" height="523.63"/>
  <g id="_2537851793328">
   <path class="fil1" d="M872.47 297.65l5.11 -3.22c0.34,-0.21 0.78,-0.37 1.23,-0.37 1.28,0 2.3,1.05 2.3,2.3l0 15.5c0,1.31 -1.07,2.38 -2.38,2.38 -1.31,0 -2.38,-1.08 -2.38,-2.38l0 -12.05 -1.81 1.13c-0.29,0.18 -0.66,0.29 -1.02,0.29 -1.07,0 -1.96,-0.86 -1.96,-1.94 0,-0.68 0.39,-1.31 0.92,-1.65z"/>
   <path class="fil1" d="M897.87 303.62c1.78,0 2.91,-1.26 2.91,-3.04 0,-1.78 -1.05,-3.04 -2.91,-3.04 -1.78,0 -2.91,1.26 -2.91,3.04 0,1.78 1.13,3.04 2.91,3.04zm0 -9.77c4.87,0 8.04,3.25 8.04,9.5 0,7.7 -3.51,11.08 -8.54,11.08 -2.67,0 -6.2,-0.92 -6.2,-3.56 0,-1.18 0.94,-2.15 2.15,-2.15 1.7,0 2.26,2.04 3.98,2.04 2.02,0 3.48,-1.26 3.56,-5.53l-0.08 0c-0.89,0.97 -1.97,1.75 -4.14,1.75 -3.64,0 -6.44,-2.33 -6.44,-6.31 0,-3.77 2.7,-6.83 7.68,-6.83z"/>
   <path class="fil1" d="M921.71 303.62c1.78,0 2.91,-1.26 2.91,-3.04 0,-1.78 -1.05,-3.04 -2.91,-3.04 -1.78,0 -2.91,1.26 -2.91,3.04 0,1.78 1.13,3.04 2.91,3.04zm0 -9.77c4.87,0 8.04,3.25 8.04,9.5 0,7.7 -3.51,11.08 -8.54,11.08 -2.67,0 -6.2,-0.92 -6.2,-3.56 0,-1.18 0.94,-2.15 2.15,-2.15 1.71,0 2.26,2.04 3.98,2.04 2.02,0 3.49,-1.26 3.56,-5.53l-0.08 0c-0.89,0.97 -1.97,1.75 -4.14,1.75 -3.64,0 -6.45,-2.33 -6.45,-6.31 0,-3.77 2.7,-6.83 7.68,-6.83z"/>
   <path class="fil1" d="M946.25 310.8c1.97,0 3.17,-1.62 3.17,-6.6 0,-4.82 -1.15,-6.6 -3.17,-6.6 -2.01,0 -3.17,1.67 -3.17,6.6 0,4.82 1.07,6.6 3.17,6.6zm0.03 -16.89c5.24,0 8.22,3.14 8.22,10.29 0,6.94 -3.04,10.29 -8.27,10.29 -5.32,0 -8.22,-3.14 -8.22,-10.29 0,-6.86 3.14,-10.29 8.28,-10.29z"/>
   <path class="fil1" d="M617.59 294.12c2.94,0 7.41,1.23 7.41,4.08 0,1.26 -1.02,2.18 -2.28,2.18 -2.21,0 -2.22,-2.38 -5.26,-2.38 -1.7,0 -2.7,0.78 -2.7,1.7 0,0.97 0.5,1.68 2.49,2.1l3.19 0.68c4.01,0.87 5.61,2.91 5.61,5.87 0,3.35 -2.12,6.47 -8.28,6.47 -3.94,0 -8.3,-1.12 -8.3,-4.16 0,-1.31 1.08,-2.17 2.38,-2.17 2.22,0 2.57,2.1 5.71,2.1 2.1,0 3.22,-0.63 3.22,-1.89 0,-0.92 -0.5,-1.55 -2.38,-1.94l-3.22 -0.68c-3.67,-0.78 -5.47,-2.62 -5.47,-5.87 0,-3.43 2.85,-6.07 7.88,-6.07z"/>
   <path class="fil1" d="M634.52 296.89c0,-1.39 1.12,-2.51 2.51,-2.51 1.39,0 2.52,1.12 2.52,2.51l0 15.16c0,1.39 -1.13,2.51 -2.52,2.51 -1.39,0 -2.51,-1.12 -2.51,-2.51l0 -15.16z"/>
   <path class="fil1" d="M648.95 297.78c0,-1.86 1.52,-3.4 3.4,-3.4 1.23,0 2.3,0.68 2.91,1.65l5.24 8.7c0.56,0.91 0.75,1.42 1.13,2.25l0.13 0 0 -10.32c0,-1.26 1.02,-2.28 2.3,-2.28 1.26,0 2.28,1.02 2.28,2.28l0 14.72c0,1.75 -1.44,3.19 -3.19,3.19 -1.18,0 -2.2,-0.63 -2.75,-1.54l-5.5 -9.06c-0.54,-0.88 -0.87,-1.49 -1.18,-2.3l-0.13 0 0 10.61c0,1.26 -1.05,2.3 -2.3,2.3 -1.28,0 -2.33,-1.05 -2.33,-2.3l0 -14.48z"/>
   <path class="fil1" d="M684.57 294.17c3.25,0 7.7,1.35 7.7,4.5 0,1.34 -1.08,2.38 -2.38,2.38 -2.41,0 -1.98,-2.93 -5.31,-2.93 -2.49,0 -4.4,1.86 -4.4,6.28 0,4.59 2.01,6.45 4.4,6.45 3.49,0 3,-3.27 5.55,-3.27 1.34,0 2.44,1.1 2.44,2.46 0,3.24 -4.48,4.77 -7.99,4.77 -6.39,0 -9.69,-3.88 -9.69,-10.16 0,-6.21 3.75,-10.48 9.69,-10.48z"/>
   <path class="fil1" d="M700.81 296.81c0,-1.44 0.78,-2.23 2.22,-2.23l9.64 0c1.1,0 2.02,0.92 2.02,2.04 0,1.1 -0.92,2.02 -2.02,2.02l-6.89 0 0 3.85 5.69 0c1.07,0 1.96,0.89 1.96,1.97 0,1.1 -0.89,1.99 -1.96,1.99l-5.69 0 0 3.85 7.41 0c1.1,0 2.02,0.92 2.02,2.02 0,1.13 -0.91,2.04 -2.02,2.04l-10.16 0c-1.44,0 -2.22,-0.78 -2.22,-2.23l0 -15.32z"/>
   <path class="fil2" d="M576.79 386.61c5.16,0 8.3,-2.27 8.3,-9.3l0 -6.79c0,-6.29 -2.14,-9.05 -7.04,-9.05l-6.29 0 0 25.15 5.03 0zm-18.86 -37.72l20.5 0c14.34,0 20.5,6.66 20.5,20.24l0 5.41c0,9.05 -2.9,14.84 -9.06,17.35l0 0.25c6.91,2.14 9.18,8.68 9.18,18.61l0 15.46c0,4.28 0.13,7.42 1.51,10.69l-14.08 0c-0.76,-2.26 -1.26,-3.65 -1.26,-10.81l0 -16.09c0,-8.17 -2.39,-10.81 -8.68,-10.81l-4.78 0 0 37.72 -13.83 0 0 -88.02z"/>
   <path class="fil3 str0" d="M576.79 386.61c5.16,0 8.3,-2.27 8.3,-9.3l0 -6.79c0,-6.29 -2.14,-9.05 -7.04,-9.05l-6.29 0 0 25.15 5.03 0zm-18.86 -37.72l20.5 0c14.34,0 20.5,6.66 20.5,20.24l0 5.41c0,9.05 -2.9,14.84 -9.06,17.35l0 0.25c6.91,2.14 9.18,8.68 9.18,18.61l0 15.46c0,4.28 0.13,7.42 1.51,10.69l-14.08 0c-0.76,-2.26 -1.26,-3.65 -1.26,-10.81l0 -16.09c0,-8.17 -2.39,-10.81 -8.68,-10.81l-4.78 0 0 37.72 -13.83 0 0 -88.02z"/>
   <path class="fil2" d="M645.26 407.74l-6.16 -43.51 -0.25 0 -6.03 43.51 12.45 0zm-15.09 -58.84l18.73 0 14.33 88.02 -13.83 0 -2.51 -17.48 0 0.25 -15.72 0 -2.51 17.23 -12.83 0 14.34 -88.02z"/>
   <path class="fil3 str0" d="M645.26 407.74l-6.16 -43.51 -0.25 0 -6.03 43.51 12.45 0zm-15.09 -58.84l18.73 0 14.33 88.02 -13.83 0 -2.51 -17.48 0 0.25 -15.72 0 -2.51 17.23 -12.83 0 14.34 -88.02z"/>
   <path class="fil2" d="M677.63 436.91l0 -12.58c1.51,0.38 3.02,0.51 4.53,0.51 5.53,0 8.17,-2.64 8.17,-8.43l0 -67.52 13.83 0 0 67.15c0,14.46 -6.54,21.38 -20.12,21.38 -2.51,0 -4.4,-0.13 -6.41,-0.5z"/>
   <path class="fil3 str0" d="M677.63 436.91l0 -12.58c1.51,0.38 3.02,0.51 4.53,0.51 5.53,0 8.17,-2.64 8.17,-8.43l0 -67.52 13.83 0 0 67.15c0,14.46 -6.54,21.38 -20.12,21.38 -2.51,0 -4.4,-0.13 -6.41,-0.5z"/>
   <polygon class="fil2" points="724.97,348.89 762.69,348.89 762.69,361.47 738.8,361.47 738.8,384.73 757.78,384.73 757.78,397.3 738.8,397.3 738.8,424.33 762.69,424.33 762.69,436.91 724.97,436.91 "/>
   <polygon class="fil3 str0" points="724.97,348.89 762.69,348.89 762.69,361.47 738.8,361.47 738.8,384.73 757.78,384.73 757.78,397.3 738.8,397.3 738.8,424.33 762.69,424.33 762.69,436.91 724.97,436.91 "/>
   <polygon class="fil2" points="781.48,348.89 798.83,348.89 812.29,401.58 812.54,401.58 812.54,348.89 824.86,348.89 824.86,436.91 810.65,436.91 794.06,372.66 793.81,372.66 793.81,436.91 781.48,436.91 "/>
   <polygon class="fil3 str0" points="781.48,348.89 798.83,348.89 812.29,401.58 812.54,401.58 812.54,348.89 824.86,348.89 824.86,436.91 810.65,436.91 794.06,372.66 793.81,372.66 793.81,436.91 781.48,436.91 "/>
   <path class="fil2" d="M866.92 424.33c4.4,0 7.04,-2.27 7.04,-8.55l0 -45.77c0,-6.29 -2.64,-8.55 -7.04,-8.55l-7.04 0 0 62.87 7.04 0zm-20.87 -75.44l21.12 0c13.83,0 20.62,7.67 20.62,21.75l0 44.51c0,14.08 -6.79,21.75 -20.62,21.75l-21.12 0 0 -88.02z"/>
   <path class="fil3 str0" d="M866.92 424.33c4.4,0 7.04,-2.27 7.04,-8.55l0 -45.77c0,-6.29 -2.64,-8.55 -7.04,-8.55l-7.04 0 0 62.87 7.04 0zm-20.87 -75.44l21.12 0c13.83,0 20.62,7.67 20.62,21.75l0 44.51c0,14.08 -6.79,21.75 -20.62,21.75l-21.12 0 0 -88.02z"/>
   <path class="fil2" d="M926.83 386.61c5.16,0 8.3,-2.27 8.3,-9.3l0 -6.79c0,-6.29 -2.14,-9.05 -7.04,-9.05l-6.29 0 0 25.15 5.03 0zm-18.86 -37.72l20.5 0c14.34,0 20.5,6.66 20.5,20.24l0 5.41c0,9.05 -2.9,14.84 -9.06,17.35l0 0.25c6.91,2.14 9.18,8.68 9.18,18.61l0 15.46c0,4.28 0.12,7.42 1.51,10.69l-14.08 0c-0.76,-2.26 -1.26,-3.65 -1.26,-10.81l0 -16.09c0,-8.17 -2.39,-10.81 -8.68,-10.81l-4.78 0 0 37.72 -13.83 0 0 -88.02z"/>
   <path class="fil3 str0" d="M926.83 386.61c5.16,0 8.3,-2.27 8.3,-9.3l0 -6.79c0,-6.29 -2.14,-9.05 -7.04,-9.05l-6.29 0 0 25.15 5.03 0zm-18.86 -37.72l20.5 0c14.34,0 20.5,6.66 20.5,20.24l0 5.41c0,9.05 -2.9,14.84 -9.06,17.35l0 0.25c6.91,2.14 9.18,8.68 9.18,18.61l0 15.46c0,4.28 0.12,7.42 1.51,10.69l-14.08 0c-0.76,-2.26 -1.26,-3.65 -1.26,-10.81l0 -16.09c0,-8.17 -2.39,-10.81 -8.68,-10.81l-4.78 0 0 37.72 -13.83 0 0 -88.02z"/>
   <path class="fil2" d="M995.3 407.74l-6.16 -43.51 -0.25 0 -6.03 43.51 12.45 0zm-15.09 -58.84l18.74 0 14.33 88.02 -13.83 0 -2.51 -17.48 0 0.25 -15.72 0 -2.51 17.23 -12.83 0 14.33 -88.02z"/>
   <path class="fil3 str0" d="M995.3 407.74l-6.16 -43.51 -0.25 0 -6.03 43.51 12.45 0zm-15.09 -58.84l18.74 0 14.33 88.02 -13.83 0 -2.51 -17.48 0 0.25 -15.72 0 -2.51 17.23 -12.83 0 14.33 -88.02z"/>
   <path class="fil1" d="M672.58 464.47c3.69,0 9.32,1.55 9.32,5.13 0,1.58 -1.28,2.73 -2.86,2.73 -2.77,0 -2.79,-2.99 -6.62,-2.99 -2.14,0 -3.39,0.99 -3.39,2.14 0,1.22 0.62,2.11 3.12,2.63l4.02 0.86c5.04,1.08 7.04,3.65 7.04,7.37 0,4.22 -2.67,8.13 -10.4,8.13 -4.95,0 -10.43,-1.41 -10.43,-5.23 0,-1.65 1.35,-2.73 2.99,-2.73 2.79,0 3.23,2.64 7.17,2.64 2.63,0 4.05,-0.79 4.05,-2.37 0,-1.15 -0.63,-1.94 -3,-2.43l-4.05 -0.86c-4.61,-0.99 -6.88,-3.29 -6.88,-7.37 0,-4.31 3.59,-7.64 9.91,-7.64z"/>
   <path class="fil1" d="M698.1 485.43c3.16,0 5.56,-2.33 5.56,-7.96 0,-5.63 -2.4,-7.93 -5.56,-7.93 -3.16,0 -5.56,2.3 -5.56,7.93 0,5.63 2.4,7.96 5.56,7.96zm0.03 -20.9c7.67,0 12.18,5.13 12.18,12.93 0,7.83 -4.61,12.97 -12.25,12.97 -7.67,0 -12.18,-5.14 -12.18,-12.97 0,-7.77 4.61,-12.93 12.25,-12.93z"/>
   <path class="fil1" d="M722.69 484.91c4.08,0 6.94,-1.65 6.94,-7.57 0,-5.37 -2.63,-7.31 -6.94,-7.31l-2.27 0 0 14.88 2.27 0zm-8.53 -17.05c0,-1.81 0.99,-2.8 2.8,-2.8l5.73 0c7.27,0 13.5,3.29 13.5,12.38 0,8.3 -5.2,12.48 -13.5,12.48l-5.73 0c-1.81,0 -2.8,-0.99 -2.8,-2.8l0 -19.25z"/>
   <path class="fil1" d="M750.88 479.78l-1.58 -5.04c-0.5,-1.59 -0.8,-2.75 -1.15,-4.18l-0.39 0c-0.36,1.43 -0.65,2.59 -1.15,4.18l-1.58 5.04 5.86 0zm-13.96 6.62l6.26 -18.1c0.69,-2.04 2.64,-3.49 4.94,-3.49 2.27,0 4.21,1.45 4.91,3.49l6.18 17.9c0.1,0.33 0.17,0.66 0.17,0.99 0,1.64 -1.35,3 -2.99,3 -1.35,0 -2.47,-0.89 -2.87,-2.07l-1.09 -3.45 -8.95 0 -1.09 3.52c-0.36,1.19 -1.45,2.01 -2.76,2.01 -1.58,0 -2.87,-1.28 -2.87,-2.87 0,-0.33 0.07,-0.62 0.16,-0.92z"/>
   <path class="fil1" d="M782.06 464.54c4.09,0 9.68,1.69 9.68,5.66 0,1.68 -1.35,3 -2.99,3 -3.03,0 -2.49,-3.69 -6.68,-3.69 -3.13,0 -5.53,2.33 -5.53,7.9 0,5.76 2.54,8.1 5.53,8.1 4.39,0 3.78,-4.12 6.98,-4.12 1.68,0 3.06,1.38 3.06,3.09 0,4.07 -5.64,5.99 -10.04,5.99 -8.03,0 -12.18,-4.87 -12.18,-12.77 0,-7.8 4.7,-13.16 12.18,-13.16z"/>
   <path class="fil1" d="M795.6 467.86c0,-1.81 0.99,-2.8 2.8,-2.8l12.11 0c1.38,0 2.53,1.15 2.53,2.57 0,1.38 -1.15,2.53 -2.53,2.53l-8.66 0 0 4.84 7.15 0c1.35,0 2.47,1.12 2.47,2.46 0,1.38 -1.12,2.5 -2.47,2.5l-7.15 0 0 4.84 9.32 0c1.38,0 2.54,1.15 2.54,2.54 0,1.41 -1.15,2.57 -2.54,2.57l-12.77 0c-1.81,0 -2.8,-0.99 -2.8,-2.8l0 -19.25z"/>
   <path class="fil1" d="M817.23 469.08c0,-2.34 1.91,-4.28 4.28,-4.28 1.55,0 2.9,0.86 3.66,2.07l6.58 10.93c0.7,1.15 0.95,1.78 1.42,2.83l0.16 0 0 -12.97c0,-1.58 1.28,-2.86 2.9,-2.86 1.58,0 2.86,1.28 2.86,2.86l0 18.5c0,2.21 -1.81,4.02 -4.02,4.02 -1.48,0 -2.77,-0.79 -3.46,-1.94l-6.91 -11.39c-0.68,-1.11 -1.1,-1.87 -1.48,-2.9l-0.16 0 0 13.33c0,1.58 -1.32,2.9 -2.9,2.9 -1.61,0 -2.93,-1.32 -2.93,-2.9l0 -18.2z"/>
   <path class="fil1" d="M844.4 465.06l15.8 0c1.39,0 2.5,1.12 2.5,2.5 0,1.38 -1.12,2.5 -2.5,2.5l-4.74 0 0 16.95c0,1.75 -1.41,3.16 -3.16,3.16 -1.74,0 -3.16,-1.42 -3.16,-3.16l0 -16.95 -4.74 0c-1.38,0 -2.5,-1.12 -2.5,-2.5 0,-1.38 1.12,-2.5 2.5,-2.5z"/>
   <path class="fil1" d="M865.51 467.86c0,-1.81 0.99,-2.8 2.8,-2.8l12.12 0c1.38,0 2.53,1.15 2.53,2.57 0,1.38 -1.15,2.53 -2.53,2.53l-8.66 0 0 4.84 7.15 0c1.35,0 2.47,1.12 2.47,2.46 0,1.38 -1.12,2.5 -2.47,2.5l-7.15 0 0 4.84 9.32 0c1.38,0 2.54,1.15 2.54,2.54 0,1.41 -1.15,2.57 -2.54,2.57l-12.77 0c-1.81,0 -2.8,-0.99 -2.8,-2.8l0 -19.25z"/>
   <path class="fil1" d="M896.65 476.42c2.14,0 4.05,-0.59 4.05,-3.32 0,-2.8 -1.9,-3.39 -4.05,-3.39l-3.19 0 0 6.71 3.19 0zm-9.51 -8.55c0,-1.81 0.99,-2.8 2.8,-2.8l8.06 0c5.66,0 9.18,2.73 9.18,7.6 0,3.29 -1.68,5.69 -4.41,7.04l0 0.07 3.09 5.96c0.23,0.39 0.36,0.89 0.36,1.41 0,1.68 -1.35,3.03 -3.06,3.03 -1.15,0 -2.2,-0.66 -2.7,-1.65l-3.68 -7.11 -3.33 0 0 5.6c0,1.74 -1.41,3.16 -3.16,3.16 -1.74,0 -3.16,-1.42 -3.16,-3.16l0 -19.15z"/>
   <path class="fil4" d="M759.71 306.35l7.61 0.76c14.82,1.23 31.7,1.12 46.2,-1.2 1.19,-0.19 1.08,0.01 1.81,-0.76 1.81,-1.91 1.38,-3 1.39,-6.04 0.03,-11.08 0.99,-9.1 -2.41,-11.39 -1.26,-0.85 -1.53,-0.51 -3.07,-0.24 -2.15,0.39 -4.23,0.76 -6.6,1 -4.52,0.46 -9.73,0.67 -14.4,0.67 -4.52,0.01 -25.71,-0.45 -29.01,-1.49l0.11 -3c7.97,1.3 18.04,1.5 26.71,1.32 4.58,-0.1 8.71,-0.43 13.18,-0.74 2.22,-0.15 4.14,-0.51 6.33,-0.68 6.68,-0.52 6.38,-1.39 13.11,-0.81 -0.38,-4.84 -0,-11.58 0.01,-16.59 0.01,-2.81 -0.05,-5.21 -0.21,-8.02 -0.12,-1.98 -0.44,-5.74 -0.24,-7.54 0.21,-2.09 -0.66,-19.37 -0.85,-22.75 -0.41,-7.31 -0.71,-15.39 -0.88,-22.68 -0.18,-7.55 -0.65,-14.8 -0.93,-22.44 -0.28,-7.61 0.73,-7.62 -2.95,-12.4 -0.05,-0.06 -0.17,-0.21 -0.21,-0.26 -0.03,-0.04 -0.08,-0.1 -0.1,-0.14 -4.48,-5.81 -9.42,-11.05 -16.49,-14.26 -13.25,-6.02 -24.2,-1.91 -35.12,5.84 -3.35,2.38 -6.6,5.11 -9.51,8.04l-2.51 2.63c-0.31,0.46 0.02,-0.15 -0.27,0.49 -0.82,0.69 -0.44,-0.09 -0.54,1.27l0.3 51.14 0.08 3.61c-0.21,2.28 0.89,22.72 1.06,26.77 0.14,3.58 -0.07,10.74 0.48,13.86 0.22,1.23 0.17,-0.02 0.32,1.28 0.05,0.45 0.02,1.19 0.02,1.68 0,1.22 0.02,2.44 0.03,3.66l0.08 5.13c-0.17,1.48 -0.33,0.25 -0.35,1.27l4.9 0.5c-0.1,5.48 0.28,2.29 -2.51,5.66 -0.8,0.96 -0.47,2.91 -0.47,4.27 -0.01,3.03 -0.11,6.27 0.02,9.27 0.31,0.45 1.22,1.36 1.54,1.71 0.67,0.76 0.8,0.91 1.99,1.01l2.36 0.61zm1.82 -5.77c0.75,-0.75 2.02,-0.69 3.23,-0.93l9.58 -1.41c10.1,-1.19 23.19,-0.81 32.84,2.52l5.13 1.87 -11.56 -1.69c-10.69,-0.95 -22.2,-0.56 -32.94,-0.23 -2.43,0.07 -5.38,0.64 -6.28,-0.12zm7.82 3.9c1.91,-1.68 30.85,-1.66 32.49,0 -3.49,1.69 -28.51,1.31 -32.49,-0z"/>
   <path class="fil4" d="M748.04 158.6c0,3.17 0.38,8.18 4.4,8.79 0.39,-0.24 9.12,-8.37 9.24,-8.58 0.51,-0.85 -0.21,-2.27 -0.33,-3.38 -0.15,-1.44 -0.15,-2.95 -0.13,-4.39 0.04,-2.96 0.46,-5.48 0.69,-8.43 0.06,0.05 0.17,0.04 0.2,0.15 0.02,0.09 0.15,0.11 0.18,0.13 0.03,0.03 0.2,0.16 0.25,0.21l0.04 -1.26c-7.06,-9.31 -7.51,-13.51 -3.57,-25.67l8.87 -25.7c-0.13,1.97 -2.99,12.36 -3.67,15.03 -0.89,3.47 -4.8,18.64 -4.32,23.6 0.72,7.36 6.99,12.51 13.47,14.64 4.14,1.36 11.51,2.53 16.24,1.51 5.34,-1.16 9.89,-2.64 13.45,-5.29 3.34,-2.49 6.77,-6.34 6.93,-11.82 0.08,-2.61 -0.5,-5.65 -1.09,-8.11 -0.53,-2.2 -1.59,-5.99 -1.76,-7.92 -0.84,0 0.17,-0.07 -0.5,0.05l-1.99 0.6c-0.48,-0.59 -0.28,0.24 -0.1,-0.71 -0.74,0.6 -0.26,-0.13 -0.36,0.96l0.63 16.35c0.12,3.98 1.28,10.86 -7.04,11 0.8,-0.9 1.37,-0.98 2.29,-1.93 2.82,-2.92 1.98,-6.14 1.88,-10.05 -0.05,-2.1 -0.34,-14.27 -0.7,-15.23 -0.78,0.66 -1.2,0.38 -2.89,0.63 -5.16,0.76 -17.82,1.32 -21.79,0.34 -0.41,4.63 -1.77,9.19 -0.67,14.03 1.26,5.54 3.19,6.59 5.56,9.55 -4.4,0.01 -8.62,-4.06 -10.35,-8.49 -2.18,-5.6 -1.07,-10.87 -0.23,-16.8 -1.5,-0.15 -2.89,-0.09 -4.18,-0.3 -0.61,-0.1 -1.27,-0.14 -1.92,-0.23 -0.19,-0.03 -0.67,-0.11 -0.83,-0.17 -0.65,-0.25 -0.29,0.1 -0.54,-0.39 1.82,-1.03 5.55,-0.34 7.58,-0.96 0.65,-1.14 2.35,-17.1 2.92,-19.97l2.65 -20.11c-3.18,-0.03 -6.37,-0.51 -7.84,1.67 -2.7,4 -11.94,35.54 -13.64,42.3 -3.82,15.18 -7.05,27.95 -7.03,44.4zm6.33 -19.04c1.98,3.95 3.57,16.44 0.11,21.53 -2.14,-0.27 -3.05,-2.03 -1.84,-3.99 3.48,-5.63 1.51,-10.97 1.73,-17.54z"/>
   <path class="fil4" d="M801.45 106.77l-0.52 -0.02c-0.04,-1.98 -0.01,-3.21 0.96,-4.58 0.73,-1.03 2.13,-2.32 3.49,-2.01 0.61,1.9 0.89,3.29 1.57,5.17 0.61,1.69 1.3,3.36 1.97,5.14 3.3,8.75 7.07,19.39 1.63,28.18 -0.47,0.76 -2.2,3.38 -3.32,3.72 0.32,2.76 0.73,1.93 0.94,7.2 0.1,2.39 -0.35,5.67 -0.17,7.66 1.32,0.91 1.98,1.27 3.17,2.17l5.65 5.07c0.71,0.73 2.02,2.5 2.7,2.92 4.1,-0.57 3.52,-9.77 3.65,-12.44 0.05,-7.3 -0.71,-13.92 -1.54,-20.99 -0.21,-1.66 -0.5,-2.98 -0.75,-4.89 -0.18,-1.43 -1.16,-2.46 -1.56,-3.89 -0.05,-1.42 -2.61,-7.34 -3.25,-9.23 -0.99,-2.92 -2.07,-5.8 -3.24,-8.97l-9.56 -27.27c-1.39,-3.95 -1.21,-6.81 -3.87,-8.36 -2.58,-1.5 -21.85,-1.62 -22.87,-1.12l6.02 -0.08c0.17,2.91 -3.35,24.78 -3.99,30.15 -0.29,2.47 -1.36,7.99 -1.35,9.82 3.11,0.37 8.65,0.01 12.05,0.03 3.97,0.02 8.14,0.13 11.96,0.39l0.21 -3.77zm13.6 32.96l0.38 1.3c0.44,4.13 0.55,10.44 3.29,13.5 1,1.12 2.09,3.09 0.01,4.29 -1.97,1.14 -2.33,-0.46 -2.86,-2.18 -1.35,-4.39 -1.98,-13.8 -0.83,-16.91z"/>
   <path class="fil5" d="M762.59 141.83c2.57,0.41 15.31,10.6 34.1,5.11 2.62,-0.76 9.69,-3.76 10.15,-3.77 1.11,2.15 -0.1,11.07 -0.98,13.23 -1.29,-0.03 -14.2,-8.16 -32.05,-3.19 -1.48,0.41 -3.13,0.96 -4.69,1.57 -2.2,0.86 -3.33,1.78 -4.39,2.04 -0.6,-2.29 -1.27,-3.72 -1.63,-6.53 -0.31,-2.44 -0.66,-4.47 -0.56,-7.19 -0.06,-0.06 -0.22,-0.19 -0.25,-0.21 -0.03,-0.03 -0.15,-0.04 -0.18,-0.14 -0.03,-0.11 -0.14,-0.09 -0.2,-0.15 -0.23,2.96 -0.65,5.48 -0.69,8.43 -0.02,1.44 -0.01,2.96 0.13,4.39 0.11,1.11 0.84,2.53 0.33,3.38 -0.13,0.21 -8.85,8.34 -9.24,8.58 -1.87,-0.28 -3.85,-4.58 -4.29,-6.21 0.03,4.81 1,8.44 1.7,12.98l0.54 -0.49c0.28,-0.63 -0.05,-0.03 0.27,-0.49l2.5 -2.63c2.91,-2.93 6.16,-5.66 9.51,-8.04 10.92,-7.74 21.87,-11.86 35.12,-5.84 7.07,3.21 12.01,8.45 16.49,14.26 0.03,0.04 0.08,0.1 0.1,0.14 0.05,0.06 0.17,0.21 0.21,0.26 3.69,4.78 2.68,4.8 2.96,12.4 0.28,7.64 0.75,14.89 0.93,22.45 0.17,7.29 0.48,15.37 0.88,22.68 0.11,2.02 0.9,30.85 1.17,31.56 0.53,-1.35 0.47,-46.42 0.46,-51.55 -0,-9.98 -0.86,-24.02 0.14,-33.61 0.14,-1.39 0.6,-3.04 0.81,-4.73 0.23,-1.78 0.92,-7.86 1.02,-9.75 -0.23,-0.27 0.09,5.92 -3.45,6.62 -0.68,-0.42 -1.99,-2.19 -2.7,-2.92l-5.65 -5.07c-1.19,-0.89 -1.85,-1.26 -3.17,-2.17 -0.19,-1.99 0.26,-5.26 0.17,-7.66 -0.21,-5.27 -0.62,-4.44 -0.94,-7.2 1.12,-0.35 2.85,-2.96 3.32,-3.72 5.43,-8.78 1.66,-19.42 -1.64,-28.18 -0.66,-1.78 -1.35,-3.44 -1.96,-5.14 -0.68,-1.89 -0.96,-3.27 -1.57,-5.17 -1.36,-0.32 -2.76,0.98 -3.49,2.01 -0.97,1.37 -1,2.59 -0.96,4.58l0.52 0.02c0.92,-0.63 1.22,-1.27 2.53,-1.58l1.51 0 1.2 5.89 -0.04 0.62 -2.1 0.32c-0.17,0.96 -0.38,0.12 0.1,0.71l1.99 -0.6c0.66,-0.12 -0.34,-0.04 0.5,-0.04 0.17,1.93 1.23,5.72 1.76,7.92 0.59,2.47 1.17,5.5 1.1,8.11 -0.16,5.48 -3.59,9.34 -6.93,11.83 -3.56,2.64 -8.1,4.12 -13.45,5.29 -4.72,1.03 -12.1,-0.15 -16.24,-1.51 -6.49,-2.13 -12.76,-7.28 -13.47,-14.64 -0.48,-4.96 3.43,-20.12 4.32,-23.6 0.68,-2.66 3.54,-13.06 3.67,-15.03l-8.87 25.7c-3.94,12.17 -3.49,16.37 3.57,25.68z"/>
   <path class="fil5" d="M749.94 275.73l-0.06 1.74c-0.24,7.21 0.17,17.55 0.12,25.56 -0.01,1.95 -0.34,2.15 0.75,3.38 0.79,0.9 1.29,1.42 2.14,2.27 1.23,1.22 0.93,0.87 2.92,1.14l11.4 1.28c5.3,0.61 10.76,0.57 16.13,0.9 7.96,0.12 17.48,-0.26 25.49,-0.77 7.51,-0.47 5.74,-0.08 9.5,-3.08 0.62,-0.5 1.71,-1.42 2.24,-1.95l0.12 -22.44c-3.17,-0.84 -9.68,0.54 -13.11,0.81 -2.19,0.17 -4.11,0.53 -6.33,0.68 -4.46,0.31 -8.6,0.65 -13.18,0.74 -8.67,0.18 -18.73,-0.02 -26.71,-1.32l-0.11 3c3.3,1.05 24.49,1.5 29.01,1.5 4.67,-0 9.88,-0.21 14.4,-0.67 2.37,-0.24 4.45,-0.61 6.59,-1 1.54,-0.28 1.81,-0.61 3.07,0.24 3.4,2.29 2.44,0.31 2.41,11.39 -0.01,3.04 0.42,4.13 -1.39,6.04 -0.73,0.77 -0.63,0.57 -1.81,0.76 -14.5,2.32 -31.39,2.43 -46.2,1.2l-7.61 -0.76c-1.17,-0.29 -1.01,-0.55 -2.36,-0.6 -1.19,-0.1 -1.32,-0.26 -1.99,-1.01 -0.32,-0.35 -1.22,-1.26 -1.54,-1.72 -0.14,-3 -0.03,-6.24 -0.02,-9.27 0,-1.36 -0.33,-3.31 0.47,-4.27 2.79,-3.36 2.4,-0.17 2.51,-5.65l-4.9 -0.5c0.02,-1.02 0.18,0.21 0.35,-1.27l-0.08 -5.13c-0.01,-1.22 -0.03,-2.44 -0.03,-3.66 -0,-0.48 0.03,-1.22 -0.02,-1.68 -0.15,-1.29 -0.1,-0.05 -0.32,-1.27 -0.56,-3.12 -0.34,-10.28 -0.49,-13.86 -0.16,-4.05 -1.26,-24.5 -1.05,-26.77 -0.19,0.44 -0.57,42.75 -0.29,46.05z"/>
   <path class="fil6" d="M776.56 114.09l0.21 -1.41c2.56,-0.32 17.8,0.11 24.22,-0.36 0.45,0.49 0.39,0.02 0.25,0.8 0.37,0.95 0.65,13.13 0.7,15.23 0.1,3.91 0.94,7.13 -1.88,10.05 -0.92,0.95 -1.49,1.03 -2.29,1.93 8.32,-0.14 7.16,-7.02 7.04,-11l-0.63 -16.35c0.1,-1.09 -0.38,-0.36 0.36,-0.96l2.1 -0.33 0.04 -0.62 -2.5 -0.21 -0.2 -5.68c-1.31,0.32 -1.62,0.95 -2.54,1.58l-0.21 3.77c-3.82,-0.26 -7.99,-0.37 -11.96,-0.39 -3.4,-0.02 -8.94,0.34 -12.05,-0.03 -0.01,-1.83 1.06,-7.35 1.35,-9.82 0.64,-5.37 4.16,-27.24 3.99,-30.15l-6.02 0.08 -2.65 20.11c-0.57,2.88 -2.27,18.83 -2.92,19.97 -2.03,0.62 -5.76,-0.07 -7.58,0.96 0.26,0.49 -0.1,0.15 0.54,0.39 0.16,0.06 0.64,0.15 0.83,0.17 0.65,0.1 1.31,0.13 1.92,0.23 1.29,0.21 2.68,0.15 4.18,0.3 -0.84,5.93 -1.94,11.2 0.23,16.8 1.72,4.44 5.95,8.5 10.35,8.49 -2.37,-2.95 -4.29,-4.01 -5.56,-9.55 -1.11,-4.84 0.26,-9.39 0.67,-14.03z"/>
   <path class="fil6" d="M757.13 288.87c0,1.87 0,3.74 0.01,5.61 0.02,2.83 -0.29,8.82 0.21,11.26l1.19 0.05 2.83 0.42 -0.13 -18.55c-0.45,-1.7 -0.21,-14.25 -0.24,-17.09l-0.64 -50.92c-0.05,-5.7 -0.11,-11.43 -0.19,-17.14 -0.14,-11.57 -0.38,-16.37 3.21,-27.13 0.2,-0.61 0.36,-0.99 0.6,-1.54 1.01,-2.33 2.2,-4.82 3.7,-6.82 1.15,-1.52 3.64,-4.1 3.68,-4.59 -1.87,1.46 -4.56,1.35 -8.79,8.01 -7.6,12.01 -6.1,31.15 -5.97,45.24 0.22,24.36 0.52,48.88 0.52,73.19z"/>
   <path class="fil7" d="M765.61 65.58c-1.12,5.96 0.99,4.99 -0.19,10.63 -0.36,1.11 -0.66,2.12 -1.1,3.3 -2.22,5.94 -11.81,41.07 -11.82,45.12 0.39,-1.61 2.11,-8.57 2.58,-10.44 1.7,-6.76 10.94,-38.3 13.64,-42.3 1.47,-2.18 4.67,-1.7 7.84,-1.67 1.01,-0.5 20.28,-0.39 22.87,1.12 2.65,1.54 2.48,4.41 3.87,8.36l9.56 27.27c1.16,3.17 2.25,6.05 3.24,8.98 1.52,4.51 4.82,13.57 4.83,13.35l-2.58 -12.16c-0.59,-2.47 -1.1,-4.9 -1.83,-7.5 -1.28,-4.59 -2.93,-9.83 -4.21,-14.51 -1.34,-4.9 -3.06,-9.42 -4.49,-14.34 -1.27,-4.38 -2.75,-7.65 -1.6,-11.4 0.2,-0.67 0.24,-2.65 -0.21,-5.34 -1.52,3.98 -2.48,4.72 -7.93,4.45 -9,-0.45 -14.6,-0.21 -23.43,0.01 -4.03,0.1 -7.68,0.76 -9.03,-2.92z"/>
   <path class="fil4" d="M769.04 48.08c1.1,-0.24 2.46,-0.96 3.51,-1.3 1.39,-0.45 2.4,-0.74 3.83,-1.12 2.86,-0.75 5.41,-1.22 8.75,-1.33 6.37,-0.4 15.31,1.52 17.52,4.23l-0.78 -4.13c-0.17,-0.96 -0.42,-1.61 -0.68,-2.63 -1.67,-6.55 0.2,-6.12 -7.87,-7.86 -7.75,-1.67 -14.77,-0.53 -21.8,1.97 -0.5,2.13 -0.83,4.06 -1.21,6.27l-0.67 2.93c-0.22,1.03 -0.43,1.67 -0.6,2.97zm23.14 -10.53c-3.32,1 -7.3,1.45 -10.75,0.6 -1.03,-0.25 -2.57,-0.66 -3.44,-1.29 2.41,-1.33 13.01,-0.66 16.02,-0.12l-1.83 0.8z"/>
   <path class="fil6" d="M762.55 143.09c-0.1,2.72 0.26,4.75 0.56,7.19 0.35,2.8 1.03,4.23 1.63,6.53 1.05,-0.27 2.19,-1.19 4.38,-2.04 1.56,-0.61 3.21,-1.16 4.69,-1.57 17.85,-4.96 30.76,3.16 32.05,3.19 0.88,-2.15 2.09,-11.07 0.97,-13.22 -0.46,0.01 -7.53,3 -10.15,3.77 -18.79,5.49 -31.53,-4.7 -34.1,-5.11l-0.04 1.26z"/>
   <path class="fil8" d="M777.35 49.54c-0.57,1.56 -2.9,4.48 -1.5,9.09 1.22,4.02 2.95,4.54 4.82,6.23l9.61 0.1c1.94,-1.6 4.36,-2.83 5.18,-6.72 1.04,-4.88 -0.71,-6.55 -2.17,-9.38 -2.95,-0.68 -4.94,-0.97 -8.41,-0.86 -1.45,0.04 -2.81,0.21 -4.13,0.44 -1.5,0.26 -2.09,0.45 -3.41,1.11z"/>
   <path class="fil6" d="M811.08 174.86c-0.48,-0.67 -1.05,-1.39 -1.89,-1.74 0.18,0.65 0.38,0.97 0.68,1.52 3.48,6.42 2.42,15.99 2.42,23 0,9.1 -0.01,18.22 0.06,27.32 0.14,18.19 0.17,36.47 0.11,54.65 2.53,-0.33 2.89,-2.25 2.85,-4.4 -0.4,-25.97 0.02,-52.91 -0.29,-79.04 -0.08,-6.88 0.53,-12.94 -2.54,-19.04 -0.41,-0.82 -0.92,-1.59 -1.4,-2.26z"/>
   <path class="fil7" d="M769.04 48.08l-1.09 5.46c1.1,-0.42 2.44,-1.63 3.42,-1.71 -0.55,4.02 -2.68,10.36 -1.23,14.39l31.71 0.09c1.52,-3.62 -1.03,-11.09 -1.88,-14.59 1.44,0.35 2.62,1.6 3.75,2.24 -0.01,-0.92 -0.63,-5.03 -1.31,-5.82 -2.59,-3.05 -13.5,-3.92 -17.27,-3.8 -3.34,0.11 -5.9,0.58 -8.75,1.33 -1.43,0.38 -2.44,0.66 -3.83,1.12 -1.06,0.34 -2.42,1.06 -3.51,1.3zm8.32 1.46c1.32,-0.66 1.91,-0.85 3.41,-1.11 1.31,-0.23 2.67,-0.39 4.13,-0.44 3.47,-0.11 5.46,0.19 8.42,0.86 1.49,0.26 5.03,1.59 5.93,2.41l1.18 13.87c-1.48,0.25 -9.23,0.27 -10.13,-0.19l-9.61 -0.1 -8.87 -0.17 0.52 -13.42c0.6,-0.4 3.79,-1.72 4.62,-1.79 0.46,-0.04 0.12,-0.1 0.41,0.07z"/>
   <path class="fil4" d="M767.94 53.54l-0.7 2.43c-0.39,1.82 -1.81,8.72 -1.62,9.73 1.35,3.68 4.99,2.9 9.02,2.8 8.83,-0.21 14.43,-0.45 23.42,-0 2.92,0.14 8.44,0.24 7.93,-4.45 -0.33,-3 -1.65,-8.32 -2.28,-10.09 -1.13,-0.64 -2.3,-1.89 -3.75,-2.24 0.85,3.49 3.4,10.97 1.88,14.59l-31.72 -0.09c-1.45,-4.03 0.68,-10.37 1.23,-14.39 -0.97,0.08 -2.32,1.3 -3.41,1.71z"/>
   <path class="fil9" d="M780.7 101.53c0.3,4.96 5.29,5.69 7.56,6.42 -0.12,-0.81 -0.92,-1 -1.78,-2.16 -0.44,-0.59 -0.32,-0.37 -0.61,-1.01 -0.52,-0.63 -0.97,-1.26 -1.13,-2.61 -0.14,-1.21 0.33,-2.17 0.82,-2.9 1.96,-2.92 4.98,-4.8 8.03,-6.39 2.86,-1.49 5.46,-2.44 8,-3.07 -0.35,-2.1 -1.11,-4.54 -1.66,-6.28l-1.62 -5.71c-0.17,-0.48 -0.11,-0.33 -0.25,-0.58 -0.05,0.06 -0.09,0.08 -0.11,0.21 -0.04,0.31 -0.29,-0.01 -0.25,1.87l0.02 6.84 -5.64 2.57c-3.94,1.98 -11.74,5.83 -11.38,12.81z"/>
   <path class="fil7" d="M761.53 300.58c0.9,0.76 3.85,0.2 6.28,0.12 10.74,-0.33 22.25,-0.72 32.94,0.24l11.56 1.68 -5.13 -1.87c-9.65,-3.32 -22.74,-3.71 -32.84,-2.52l-9.58 1.41c-1.21,0.24 -2.48,0.18 -3.23,0.93z"/>
   <path class="fil10" d="M790.29 64.94c0.9,0.46 8.65,0.44 10.13,0.19l-1.18 -13.87c-0.9,-0.82 -4.43,-2.14 -5.93,-2.41 1.46,2.83 3.2,4.49 2.17,9.37 -0.83,3.88 -3.25,5.12 -5.19,6.72z"/>
   <path class="fil10" d="M780.67 64.85c-1.87,-1.68 -3.6,-2.2 -4.82,-6.23 -1.4,-4.61 0.93,-7.53 1.5,-9.09 -0.29,-0.16 0.05,-0.11 -0.41,-0.07 -0.83,0.07 -4.01,1.39 -4.62,1.79l-0.52 13.42 8.87 0.17z"/>
   <path class="fil7" d="M769.35 304.48c3.98,1.31 29,1.69 32.49,0 -1.63,-1.66 -30.58,-1.69 -32.49,0z"/>
   <path class="fil6" d="M767.13 279.5c2.59,0.83 16.22,0.33 20.19,0.33 3.73,-0 17.71,0.49 19.99,-0.35 -7.06,-0.49 -12.82,-1.26 -20.23,-1.27 -11.11,-0.03 -10.22,0.48 -19.95,1.29z"/>
   <path class="fil11" d="M776.56 114.09c3.97,0.97 16.64,0.41 21.79,-0.34 1.69,-0.25 2.11,0.03 2.89,-0.63 0.14,-0.78 0.19,-0.31 -0.25,-0.8 -6.42,0.46 -21.65,0.04 -24.22,0.36l-0.21 1.41z"/>
   <path class="fil12" d="M754.36 139.55c-0.21,6.58 1.75,11.91 -1.73,17.54 -1.22,1.97 -0.3,3.72 1.84,3.99 3.46,-5.09 1.87,-17.58 -0.11,-21.53z"/>
   <path class="fil12" d="M815.05 139.72c-1.16,3.11 -0.52,12.52 0.83,16.91 0.53,1.73 0.89,3.33 2.86,2.18 2.07,-1.21 0.99,-3.17 -0.01,-4.29 -2.74,-3.06 -2.85,-9.37 -3.29,-13.5l-0.38 -1.3z"/>
   <path class="fil7" d="M777.99 36.87c0.87,0.62 2.41,1.04 3.44,1.29 3.45,0.85 7.43,0.4 10.75,-0.6l1.83 -0.8c-3,-0.54 -13.6,-1.21 -16.02,0.12z"/>
   <path class="fil13" d="M785.87 104.78c0.96,-7.89 4.05,-8.48 14.69,-14.7l-2.34 0.74c-1.44,0.52 -2.95,1.17 -4.63,2.06 -2.89,1.51 -9.3,5.36 -8.85,9.3 0.15,1.34 0.61,1.97 1.13,2.61z"/>
   <polygon class="fil10" points="806.69,111.07 805.49,105.18 803.99,105.18 804.18,110.86 "/>
  </g>
  <line class="fil0 str1" x1="1571.2" y1="42.66" x2="1571.2" y2= "478.32" />
 </g>
</svg>
