<?xml version="1.0" encoding="UTF-8"?>
<!DOCTYPE svg PUBLIC "-//W3C//DTD SVG 1.1//EN" "http://www.w3.org/Graphics/SVG/1.1/DTD/svg11.dtd">
<!-- Creator: CorelDRAW -->
<svg xmlns="http://www.w3.org/2000/svg" xml:space="preserve" width="59.4814mm" height="19.7646mm" version="1.1" style="shape-rendering:geometricPrecision; text-rendering:geometricPrecision; image-rendering:optimizeQuality; fill-rule:evenodd; clip-rule:evenodd"
viewBox="0 0 1031.13 342.63"
 xmlns:xlink="http://www.w3.org/1999/xlink"
 xmlns:xodm="http://www.corel.com/coreldraw/odm/2003">
 <defs>
  <style type="text/css">
   <![CDATA[
    .str1 {stroke:black;stroke-width:1.32;stroke-miterlimit:22.9256}
    .str0 {stroke:#33CC33;stroke-width:1.32;stroke-miterlimit:22.9256}
    .str3 {stroke:white;stroke-width:1.32;stroke-miterlimit:22.9256}
    .str4 {stroke:#CCCCCC;stroke-width:6.12;stroke-linecap:round;stroke-linejoin:round;stroke-miterlimit:22.9256}
    .str2 {stroke:black;stroke-width:3.47;stroke-linecap:round;stroke-linejoin:round;stroke-miterlimit:22.9256}
    .fil4 {fill:none}
    .fil1 {fill:black}
    .fil0 {fill:#33CC33}
    .fil2 {fill:white}
    .fil3 {fill:black;fill-rule:nonzero}
   ]]>
  </style>
 </defs>
 <g id="Layer_x0020_1">
  <metadata id="CorelCorpID_0Corel-Layer"/>
  <g id="_2537774655056">
   <path class="fil0 str0" d="M522.01 112.82l0 0zm29.62 -12.13c1.46,0.03 2.36,0.53 3.28,1.23 1.17,0.89 1.2,1.48 1.8,2.72 -1.02,-0.27 -0.61,-0.24 -1.35,-0.9 -0.44,-0.39 -0.79,-0.63 -1.25,-1.01 -0.91,-0.75 -1.9,-1.18 -2.47,-2.04zm-55.58 -2.54l0.55 -0.32 -0.55 0.32zm1.13 -17.21l-0.55 0.32 0.55 -0.32zm-1.13 17.21c-0.39,0.53 -2.11,1.76 -2.79,2.29 -2.8,2.21 -5.56,4.91 -7.77,7.74 -4.47,5.72 -4.64,5.99 -8.4,12.2l-2.67 4.94c-0.4,0.49 -0.03,0.23 -0.65,0.5 -1.54,0.68 -3.03,-0.79 -4.42,-1.54 -0.91,-0.49 -2.91,-1.31 -3.81,-1.55 -0.97,-0.26 -3.21,-0.81 -4.43,-0.59 -0.68,0.12 -7.22,4.4 -11.32,4.49 0.1,4.69 6.95,8.42 11.32,9.84 0.49,0.16 0.59,0.17 1.07,0.34l1.15 0.54 -8.68 0.91c-1.2,0.19 -1.34,0.53 -2,1.39 -0.72,0.93 -2.28,2.5 -3.3,3.19 -1.47,1 -2.81,1.39 -4.36,2.13 1.87,3.54 2.77,5.16 6.88,5.82 1.55,0.25 2.32,-0.18 3.84,-0.18 0.03,1.11 -0.08,0.66 0.28,1.41 0.46,-0.22 3.53,-0.94 7.62,-3.1 -0.3,1.3 -1.05,2.66 -1.73,5.89 -0.43,2.04 0.03,4.43 0.03,7.08 0.82,-0.55 0.38,-0.57 1.41,-0.85 0.85,3.66 4.87,10.68 8.18,11.57 0,-4.68 3.89,-7.17 4.23,-11.28l1.13 0c0.09,1.1 0.25,0.74 0.28,1.97l0.57 0c1.1,-4.72 1.97,-6.14 1.97,-11.85 0.55,0.64 0.48,0.92 0.87,1.67 0.16,0.32 0.67,1.19 0.95,1.59 0.89,1.28 1.48,1.84 2.7,2.66l0.32 -1.12c2.71,0.63 2.84,3.94 8.99,3.94 -0.22,-0.81 -0.65,-1.24 -1.04,-2.06 -1.1,-2.29 -1.22,-6 -1.22,-8.66l0.85 0c0,-3.91 -3.2,-7.77 -4.79,-10.16 1.3,0 3.44,0.71 4.16,-0.07 0.73,-0.78 0.13,-0.23 0.32,-0.81 0.29,-0.9 -0.16,-0.83 1.1,-1.15 1.69,-0.42 6.58,-1.91 7.11,-3.89 -2.46,-0.2 -5.49,-2.01 -7.36,-3.38 -1.57,-1.15 -0.91,-0.61 -0.54,-1.98 -0.96,-0.08 -2.48,-0.8 -3.44,-1.07 -4.83,-1.35 -7.62,-1.19 -12.92,-1.19 0.3,-1.28 1.19,-2.67 1.85,-3.79l4.46 -7.39c7.17,-10.79 17.48,-19.55 30.61,-22.14 2.72,-0.54 7.24,-1.15 10.58,-0.66 0.94,0.14 1.7,0.08 2.63,0.19 0.61,0.08 1.96,0.34 2.65,0.45l4.76 1.17c-3.86,0 -3.04,-0.73 -8.92,0.11 -3.75,0.54 -7.77,1.94 -9.75,4.91 -1.11,1.65 -0.15,2.55 -1.96,3.12 -4.96,1.55 -8.6,1.82 -13.57,5.89 -2.06,1.69 -3.15,2.95 -4.36,5.51 -1.2,2.53 -1.25,7.58 -0.39,8.4 0.93,0.88 6.29,-0.02 7.92,-1.43 1,0.36 0.48,0.6 1.41,0.85 2.89,-1.94 4.6,-5.73 5.64,-6.49 0,3.24 -0.77,1.87 0.15,7.18 0.96,5.54 2.05,4.13 3.23,4.1 0.07,3.14 3.61,9.26 5.92,9.87 1.63,-0.38 3.3,-2.4 4.12,-3.78 0.95,-1.59 1.8,-3.71 1.8,-6.1 1.28,-0.11 1.54,-0.6 2.54,-1.13 -0.41,-0.86 -0.78,-2.09 -1.17,-3.06l-3.91 -8.79c2.46,1.65 5.24,4.88 9.58,4.52 7.45,-0.62 6.34,-11.1 -4.04,-14.57 -3.69,-1.23 -7.78,-1.51 -12.6,-1.51 0.54,-6.44 12.05,-6.5 16.65,-6.5 4.05,0 10.24,1.68 13.62,3.59 1.02,0.57 3.03,1.59 3.58,2.35 -1.73,2.59 -2.31,2.4 -3.11,7.05 -0.28,1.66 -0.28,2.8 -0.28,4.8 0,0.83 -0.03,1.72 -0.01,2.55 0.04,1.38 0.26,1.31 0.29,2.54l0.35 0.01 0.61 -0.09c-0.62,-3.57 -0.43,-9.4 0.97,-13.23 0.53,-1.45 1.29,-2.18 2.3,-3.06 2.5,1.32 6.85,4.99 8.66,7.14 0.67,0.8 1.02,1.51 1.65,2.33 0.74,0.97 3.07,1.85 -0.6,-2.82 -0.69,-0.88 -1.28,-1.19 -1.65,-2.3 -0.82,-2.49 -1.83,-5.77 -6.09,-5.76 -1.96,0.01 -1.96,-0.05 -3.11,-0.84 -1.48,-1.02 -3.39,-2.09 -5.11,-2.79l-5.52 -2.38c-7.44,-2.92 -18.07,-4.41 -27.23,-2.23 -7.44,1.77 -13.07,5.08 -17.83,5.88 -2.65,0.45 -4.74,-0.81 -5.25,-2.72 7.59,0 12.66,-2.03 17.21,-5.08 0,-1.87 -0.29,-1.67 0.61,-2.78 0.58,-0.71 1.13,-1.3 1.65,-2.02 0.76,-1.05 2.21,-3.4 2.54,-4.8 -2.17,0 -4.64,-0.11 -6.77,-0 -1.95,0.1 -4.1,0.81 -5.92,0.85 0.95,-1.41 2.69,-1.22 5.93,-7.33 -0.66,-0.35 -0.74,-0.48 -1.69,-0.56 0.88,-3.76 0.85,-6.06 0.85,-10.72 -4.84,0.11 -8.36,5.29 -9.31,5.92 -0.24,-1.03 -0.16,-0.9 -0.85,-1.41 -0.83,1.24 -3.04,5.26 -3.95,5.93l1.13 -11.85c-1.07,0.28 -0.82,0.54 -1.69,1.13 -0.33,-1.43 -1.52,-3.42 -2.25,-4.52 -0.79,-1.17 -2,-3.21 -3.11,-3.95 -2.83,0.76 -5.28,6.25 -5.36,9.87 -2.36,0.05 -1.99,2.14 -1.38,5.61 0.4,2.3 1.12,3.75 2.23,5.39 -0.92,-0.08 -4.1,-1.32 -5.11,-1.66l-5.04 -1.73 0 2.26c-2.93,0 -6.44,1.35 -9.31,1.41l0 0.57c0.79,0.21 1.42,0.83 2.04,1.34 1.33,1.11 5.33,3.86 5.86,4.58 -0.84,0.02 -1.29,0.09 -1.98,0.56 1.72,0.4 3.47,0.94 5.14,1.35 0.95,0.24 1.57,0.4 2.45,0.66l2.57 0.81c-2.63,0.61 -8.09,0.08 -9.03,0.28 -1.23,0.26 -0.84,0.76 -0.84,2.26 -1.99,0.17 -3.65,1.48 -5.09,2.53 -0.79,0.57 -1.02,0.54 -1.11,1.71 1.81,0.42 3.62,1.53 5.27,2.35 5.88,2.94 3.21,1.24 4.33,3.57 5.94,0 9.63,1.16 16.57,-2.05 1.35,-0.62 0.95,-0.68 2.05,-0.77 0.44,1.87 1.57,3.26 3.13,3.92 2.16,0.92 4.59,-0.1 6.46,-0.25z"/>
   <path class="fil1 str1" d="M582.95 223.12l1.13 0 0 -33.29c0,-1.96 0.66,-3.48 1.8,-4.41 1.36,-1.11 2.82,-1.08 4.69,-1.51l0 -1.13 -15.23 0 0 1.13c3.11,0.72 3.81,0.11 5.87,2.31 1.64,1.76 1.19,4.08 1.19,7.28 0,5.55 0,11.1 0,16.64l-6.72 -10.21c-0.8,-1.24 -1.36,-2.2 -2.2,-3.44 -3.08,-4.61 -5.83,-9.19 -8.86,-13.71l-8.18 0c0.49,0.93 0.9,1.5 1.52,2.43l19.69 30.53c0.74,1.18 4.25,7.39 5.3,7.39zm-79.27 -60.37l0.85 0c0,-5.57 2.39,-5.64 5.92,-5.64l0 17.49c0,2.49 -2.16,1.25 -3.1,2.54l8.75 -0.56c-1.64,0 -2.82,-0.34 -2.82,-1.97l0 -17.49c3.89,0 5.93,0.56 5.93,5.64l0.85 0 0 -6.2 -16.36 0 0 6.2zm23.13 -3.1l0 14.67c0,1.58 -0.96,2.22 -2.54,2.26l7.62 0c-3.48,-0.08 -2.54,-3.15 -2.54,-9.31l9.59 0c0,6.73 0.92,9.24 -2.26,9.31l7.34 0c-1.13,-0.03 -2.26,-0.33 -2.26,-1.41l0 -16.64c0,-1.14 1.02,-1.41 2.26,-1.41l-7.34 0c3.17,0.07 2.26,2.58 2.26,9.31l-9.59 0c0,-13.53 0.49,-7.08 2.54,-9.87l-7.62 0c1.01,1.38 2.54,-0.17 2.54,3.1zm21.72 -2.54c1.5,0.03 2.26,0.47 2.26,1.97l0 15.52c0,1.5 -0.76,1.94 -2.26,1.97l15.23 0.56 0 -5.08c0,-1.08 0.09,-0.1 -0.28,-0.85 -0.74,0.3 -0.56,-0.01 -0.79,1.19 -0.83,4.35 -0.95,3.89 -7.39,3.89 -0.76,0 -0.78,-0.14 -1.41,-0.28 -0.59,-2.54 -0.28,-6.3 -0.28,-9.03 2.88,0 4.51,0.05 4.51,3.95l0 -8.46c-0.1,4.23 -1.94,3.95 -4.51,3.95 0,-9.9 -1.13,-9.31 4.79,-9.31 2.44,0 3.33,1.12 3.62,3.16 0.21,1.48 -0.34,0.94 0.62,1.64 0.58,-1.02 0.28,-4.05 0.28,-5.36l-14.39 0.56zm-9.59 25.95c0.19,2.23 0.8,0.24 4.15,2.05 1.38,0.74 2.34,1.86 2.34,3.87l0 42.88c0,2.61 -2.13,4.44 -4.56,4.75 -1.44,0.18 -1.78,-0.16 -1.93,1.18 1.14,0.64 12.49,0.28 14.67,0.28l0 -1.13c-4.47,-1.04 -6.53,-1.14 -6.49,-7.33l0 -42.04c0.38,0.43 0.11,0.12 0.47,0.66l27.97 43.41c0.76,1.14 3.77,5.53 4.01,6.43l1.98 0 0 -9.31c0,-1.1 -0.96,-2.15 -1.53,-2.99l-11.06 -17.15c-0.72,-1.07 -1.24,-1.78 -1.9,-2.9 -2.95,-5 -7.73,-11.79 -10.97,-16.96 -0.76,-1.21 -3.37,-4.95 -3.61,-5.98 -1.97,0 -12.88,-0.46 -13.54,0.28zm63.47 0.56c0,0.6 14.38,17.87 15.48,19.22 0.87,1.07 1.75,2 2.58,3.06 0.63,0.8 2.32,2.58 2.54,3.39l-14.1 0 0 22.29c0,2.92 -2.14,4.63 -4.6,4.99 -1.61,0.24 -1.85,-0.31 -1.89,1.5l40.34 0 0 -15.52 -1.97 0c0,15.03 -6.97,13.82 -17.77,13.82 -4.85,0 -7.33,-1.3 -7.33,-6.21l0 -19.18c5.86,0 11.34,-0.81 12.35,6.27 0.21,1.52 -0.51,3.89 0.91,3.89 0.65,0 0.85,-0.2 0.85,-0.85l0 -20.88 -1.69 0c0,5.05 0.64,5.88 -3.99,0.04 -1.95,-2.46 -11.27,-13.44 -12.09,-14.99 17.81,0 27.08,-3.18 27.08,12.41l1.97 0 0 -14.1 -38.65 0 0 0.85zm-94.22 0.28c2.04,0.47 6.21,0.79 6.21,5.08l0 42.88c0,1.96 -1.05,3.2 -2.26,3.95 -2.87,1.77 -3.89,-0.33 -3.95,2.26l19.75 0 0 -1.13c-1.74,-0.41 -3.44,-0.51 -4.69,-1.51 -1.13,-0.9 -1.79,-2.48 -1.79,-4.41l0 -41.75c0,-4.75 4.53,-4.9 6.49,-5.36l0 -1.13 -19.75 0 0 1.13zm-44.86 1.13c3.45,0 4.02,4.31 2.34,8.55 -0.45,1.15 -0.96,2.98 -1.78,3.58l-2.26 -6.49c-0.36,-0.89 -0.97,-2.33 -0.7,-3.51 0.27,-1.16 1.24,-2.14 2.39,-2.14zm-38.93 -0.85c2.66,0.06 4.45,2.74 5.31,4.56l8.47 22c1.37,3.72 10.93,28.21 11.04,29.58l0.56 0c0.09,-1.07 0.9,-2.63 1.31,-3.77 1.22,-3.43 9.85,-25.11 9.98,-26.69l3.3 7.7c1,2.57 1.92,5.04 2.91,7.53 1,2.51 1.83,5.04 2.86,7.58 0.45,1.12 0.96,2.44 1.4,3.68 0.35,0.97 1.29,2.98 1.38,3.98l0.57 0c0.14,-1.67 15.22,-40.24 16.68,-44.26 1.43,-3.94 3.53,-11.77 8.43,-11.88l0 -1.13c-1.14,-0.64 -13,-0.28 -15.23,-0.28l0 1.41c11.25,0 5.6,9.8 3.56,15.69l-9.76 25.78c-0.32,0.78 -0.77,1.59 -0.85,2.54l-0.56 0c-0.09,-1.04 -9.01,-24.08 -9.88,-26.23 -0.43,-1.07 -0.9,-1.84 -0.59,-2.83l2.32 -5.88c1.27,-3.54 2.92,-8.7 7.3,-9.06l0 -1.41 -26.8 0 0 1.41c4.88,0.4 7.28,9.37 9.21,14.77 0.52,1.46 3.25,7.46 2.97,8.69 -0.19,0.87 -0.72,1.9 -1.07,2.87 -0.76,2.13 -1.5,3.81 -2.26,5.92l-4.34 11.74c-0.88,-0.64 -1.42,-2.9 -2.09,-4.68 -1.29,-3.39 -13.42,-34.45 -13.42,-35.38 0,-3.32 3.07,-3.95 5.93,-3.95l0 -1.41 -18.62 0 0 1.41zm69.96 62.34l0 16.93c0,2.58 -2.02,1.72 -2.82,2.82 1.15,0.65 14.28,0.28 16.64,0.28l0 -7.05 -0.85 0c0,1.79 -0.13,3.08 -0.78,4.3 -1.26,2.35 -3.85,1.91 -6.55,1.91 -2.02,0 -2.82,-0.8 -2.82,-2.82l0 -16.08c0,-1.9 1.44,-2.54 3.39,-2.54l-9.03 -0.56c0.84,1.14 2.82,0.33 2.82,2.82zm18.62 -2.26c2.09,0 2.82,0.78 2.82,2.82l0 16.36c0,0.89 -0.33,1.49 -0.95,1.87 -1.26,0.77 -1.07,-0.15 -1.87,0.95 1.14,0.64 13.77,0.28 16.08,0.28 1.39,0 0.85,-2.22 0.85,-5.92 0,-0.79 -0.12,-0.52 -0.57,-0.85 -1.64,1.2 0.99,5.93 -5.36,5.93 -6.41,0 -5.36,0.49 -5.36,-10.44 3.23,0 5.08,-0.23 5.08,4.23l0 -9.03c0,4.51 -2.1,3.95 -5.08,3.95 0,-7.87 -1.06,-10.16 3.39,-10.16 4.36,0 6.11,0.77 6.21,5.08l0.85 0 0 -5.64 -16.08 0.56zm30.47 3.39c0.77,1.11 2.75,7.4 3.67,9.31l-7.05 0 3.39 -9.31zm-9.03 18.05l0 0.85 6.21 0 0 -0.85c-4.44,0 -2.49,-3.5 -1.87,-5.25 0.21,-0.61 0.28,-0.89 0.51,-1.46 0.74,-1.81 0.6,-1.19 7.56,-1.19 0.95,0 1.02,0.93 1.31,1.79 0.89,2.69 2.98,6.02 -0.75,6.11l0 0.85 7.62 0 0 -0.85c-2.35,-0.63 -4.02,-7.01 -5.28,-10.24l-3.26 -8.58c-0.43,-1.06 -0.79,-1.79 -1.05,-2.9 -1.61,0.03 -1.59,0.72 -2.01,1.93l-5.64 14.95c-0.76,1.87 -1.13,4.32 -3.35,4.84zm27.93 -18.62l0 16.36c0,0.85 -0.38,1.55 -0.91,1.91 -1.32,0.88 -1.01,-0.32 -1.91,0.91 1.1,0.62 6.59,0.28 8.18,0.28 0.78,0 0.68,-0.22 0.85,-0.85 -4.38,0 -3.39,-1.96 -3.39,-10.16 3.82,0 5.36,-0.14 5.36,4.23l0.85 0 0 -9.03 -0.85 0c0,4.58 -2.09,4.23 -5.36,4.23 0,-9.27 -1.03,-10.72 3.95,-10.72 4.38,0 5.64,1.9 5.64,6.21l0.85 0 0 -6.77 -16.08 0c1,1.36 2.82,-0.07 2.82,3.39z"/>
   <path class="fil1 str2" d="M489.57 284.34c-2.49,0.06 -8.46,1.73 -14.38,1.7l-7.78 0.16c-2.49,-0.39 -5.39,-0.12 -8.03,-0.15 -1.6,-0.02 -1.95,-0.3 -3.65,-0.3 -1.32,-0 -2.66,0.04 -3.97,0.02 -1.6,-0.02 -1.95,-0.3 -3.65,-0.3 -5.48,-0.01 -13.58,-0.28 -17.67,-2.93 -3.25,-2.1 -2.64,-5.03 -2.65,-9.2l-0.58 -11.84c0.03,-5.45 -0.54,-13.8 -0.85,-19.47 -0.07,-1.34 0.01,-2.88 0.01,-4.24 -0,-1.7 -0.28,-2.05 -0.3,-3.65 -0.02,-1.37 0.08,-2.89 0.01,-4.24l-0.57 -7.9 -0.27 12.42c-0.02,1.63 -0.31,2.13 -0.3,3.93 0.02,5.88 -0.28,11.04 -0.28,16.65 0,5.64 0,11.28 0,16.93 0,6.67 -0.36,10.52 4.03,13.18 3.71,2.25 9.53,2.93 14.02,2.91l25.1 0.28 0.22 0c2.83,-0.01 5.15,-0.34 7.7,-0.56 2.49,-0.21 5.03,-0.63 7.27,-1.19 1.22,-0.3 5.49,-1.29 6.54,-2.2zm-102.97 -192.68l0.28 0 -0.24 -0.33 -0.05 0.33 -0.41 1c-3.46,10.4 -3.97,22.28 -3.25,33.12 0.44,6.63 2.51,14.79 5.08,20.6 0.69,1.55 1.27,2.86 2.06,4.43 0.76,1.51 1.54,2.66 2.35,4.14l4.88 7.81c5.74,9.61 10.39,14.95 12.02,26.63 0.94,6.68 2.39,22.69 2.38,29.5 -0.01,1.89 -0.16,4.66 0.04,6.45 0.79,7.09 -0.3,18.73 0.25,25.42l0.83 12.43 0.77 -11.93c0.51,-3.7 0.62,-26.08 0.64,-31.24l-0.83 -18.35c-1.02,-12.4 -0.01,-17.99 -7.79,-30.86l-9.95 -15.73c-3.55,-5.89 -5.97,-10.86 -8.2,-17.47 -3.42,-10.17 -3.82,-23.09 -2.37,-34.46l1.49 -11.48zm60.09 -66.01c0.97,-0.65 0.88,-0.68 1.41,-1.69 2.08,0 4.46,0.11 6.49,0 1.99,-0.11 3.68,-0.57 5.92,-0.57 -1.08,-1.47 -7.33,-1.69 -9.31,-1.69 -3,0 -4.51,0.91 -4.51,3.95zm0.28 20.31l0.28 -3.95c0,-3.77 -0.56,-6.3 -0.56,-10.44 0,-1.57 0.28,-1.67 0.28,-3.1 -1.39,1.6 -2.98,5.99 -2.64,8.54 0.25,1.84 0.6,2.98 1.12,4.54 0.3,0.88 0.45,1.31 0.67,2.15l0.85 2.26zm-58.4 40.34c2.5,-0.58 3.41,-1.43 6.76,-1.42l16.37 0.01c2.88,0.01 4.86,-0.28 7.9,-0.28 -0.22,-0.16 -0.12,-0.15 -0.54,-0.31l-2.9 -0.49c-7.11,-0.98 -7.55,-1.46 -15.47,-1.46 -3.46,0 -10.87,2.23 -12.13,3.95zm11.28 188.73c2.86,0 10.69,-0.11 12.98,-1.69 -3.92,-0.33 -8.35,-1.16 -13.26,-1.41 -3.11,-0.16 -7.16,-0.28 -10.28,-0.72 -1.03,-0.15 -2.41,-0.39 -3.26,-0.41 3.02,2.63 10.02,4.23 13.82,4.23zm47.39 -208.76c0,9.72 0.64,19.06 -3.57,27.46 -5.99,11.94 -12.41,8.15 -17.4,25.19 -1.68,5.72 -1.03,12.82 -1.03,19.85l0.72 -9.71c0.8,-5.56 1.07,-10.34 4.4,-15.91 1.37,-2.28 2.49,-3.94 4.59,-5.57 4.29,-3.35 7.2,-5.45 10.1,-10.21 4.64,-7.64 3.55,-19.9 3.05,-28.84l-1.14 -9.87c0,2.89 0.28,4.69 0.28,7.62z"/>
   <path class="fil1" d="M537.53 123.82c0,3.13 4.23,2.72 4.23,0.28 0,-3.22 -4.23,-2.7 -4.23,-0.28zm13.54 6.49l1.42 -0.56c1.09,-1.02 0.76,-3.68 -1.7,-3.68 -2.14,0 -2.85,4.23 0.28,4.23zm-9.03 2.26c0,2.49 4.23,2.86 4.23,0 0,-2.96 -4.23,-2.6 -4.23,0zm9.03 -10.72c2.65,0 2.65,-4.23 0,-4.23 -2.84,0 -2.84,4.23 0,4.23zm-4.51 10.72c0,2.49 4.23,2.86 4.23,0 0,-3.27 -4.23,-2.36 -4.23,0zm-0.49 -14.65l-0.35 -0.02c-1.54,0.42 -1.91,2.21 -0.79,3.33 1.46,1.46 2.59,0.17 3.61,-0.51l0 -1.97c-0.83,-0.56 -0.76,-0.65 -1.85,-1.2l-0.61 0.37zm7.26 8.16c2.49,0 2.86,-4.23 0,-4.23 -2.98,0 -2.73,4.23 0,4.23zm-9.03 10.44c0,2.6 4.23,3.15 4.23,0 0,-2.86 -4.23,-2.49 -4.23,0zm-4.51 -8.46c0,3.13 4.23,2.72 4.23,0.28 0,-3.13 -4.23,-2.72 -4.23,-0.28zm0 -8.46c0,2.82 4.23,3.33 4.23,-0.28 0,-2.07 -4.23,-2.38 -4.23,0.28zm6.77 4.23c0,2.62 4.23,3.47 4.23,-0.28 0,-2.24 -4.23,-2.31 -4.23,0.28zm-2.26 4.51c0,2.14 4.23,3.34 4.23,-0.57 0,-2.06 -4.23,-2.52 -4.23,0.57zm-2.26 -4.51c0,3.13 4.23,2.72 4.23,0.28 0,-3.22 -4.23,-2.7 -4.23,-0.28z"/>
   <polygon class="fil2 str3" points="489.57,284.34 490.18,284.18 "/>
   <path class="fil3" d="M388.42 307.6l5.8 12.76 -1.75 0 -1.43 -3.14 -5.22 0 -1.42 3.14 -1.74 0 5.76 -12.76zm0.01 3.86l-1.97 4.36 3.95 0 -1.98 -4.36zm23.47 -3.9l3.37 12.8 -1.63 0 -2.06 -7.85 -3.49 8.32 -3.51 -8.35 -2.06 7.87 -1.63 0 3.35 -12.8 3.85 9.16 3.81 -9.16zm5.62 0.51l1.68 0 0 7.55c0,1.12 0.27,1.98 0.81,2.59 0.54,0.61 1.3,0.92 2.28,0.92 0.97,0 1.74,-0.28 2.28,-0.84 0.54,-0.56 0.82,-1.36 0.82,-2.38l0 -7.84 1.68 0 0 7.72c0,1.5 -0.43,2.71 -1.29,3.61 -0.86,0.9 -2,1.35 -3.43,1.35 -1.46,0 -2.63,-0.46 -3.51,-1.37 -0.88,-0.91 -1.32,-2.26 -1.32,-4.04l0 -7.27zm12.82 0l1.68 0 0 10.61 3.99 0 0 1.68 -5.67 0 0 -12.29zm6.58 0l7.54 0 0 1.68 -2.94 0 0 10.61 -1.68 0 0 -10.61 -2.92 0 0 -1.68zm9.93 0l1.68 0 0 12.29 -1.68 0 0 -12.29zm10.15 7.49l4.48 0 0 1.64 -4.48 0 0 -1.64zm22.77 -7.07l0 1.9c-1.32,-0.64 -2.54,-0.97 -3.66,-0.97 -1.43,0 -2.63,0.46 -3.61,1.38 -0.98,0.92 -1.46,2.05 -1.46,3.39 0,1.37 0.5,2.5 1.5,3.42 1,0.91 2.25,1.37 3.76,1.37 1.09,0 2.25,-0.34 3.47,-1.03l0 1.92c-1.11,0.59 -2.32,0.89 -3.62,0.89 -1.91,0 -3.53,-0.64 -4.88,-1.93 -1.35,-1.29 -2.03,-2.84 -2.03,-4.66 0,-1.78 0.67,-3.31 1.99,-4.58 1.33,-1.27 2.93,-1.91 4.8,-1.91 1.2,0 2.45,0.27 3.73,0.81zm2.51 -0.41l1.68 0 0 7.55c0,1.12 0.27,1.98 0.81,2.59 0.54,0.61 1.3,0.92 2.28,0.92 0.97,0 1.74,-0.28 2.28,-0.84 0.54,-0.56 0.82,-1.36 0.82,-2.38l0 -7.84 1.68 0 0 7.72c0,1.5 -0.43,2.71 -1.29,3.61 -0.86,0.9 -2,1.35 -3.43,1.35 -1.46,0 -2.63,-0.46 -3.51,-1.37 -0.88,-0.91 -1.32,-2.26 -1.32,-4.04l0 -7.27zm20.06 1.36l-1.36 1.09c-0.36,-0.37 -0.68,-0.65 -0.98,-0.83 -0.29,-0.18 -0.71,-0.27 -1.26,-0.27 -0.6,0 -1.09,0.14 -1.46,0.41 -0.38,0.27 -0.56,0.62 -0.56,1.05 0,0.37 0.16,0.7 0.49,0.98 0.33,0.29 0.88,0.6 1.67,0.94 0.79,0.34 1.4,0.66 1.84,0.94 0.44,0.29 0.8,0.62 1.08,0.97 0.28,0.36 0.49,0.73 0.63,1.12 0.14,0.39 0.21,0.8 0.21,1.24 0,1.02 -0.37,1.89 -1.11,2.61 -0.74,0.72 -1.64,1.08 -2.7,1.08 -1.03,0 -1.94,-0.28 -2.73,-0.84 -0.79,-0.56 -1.39,-1.41 -1.82,-2.53l1.68 -0.48c0.61,1.38 1.54,2.07 2.79,2.07 0.61,0 1.12,-0.18 1.52,-0.54 0.41,-0.37 0.61,-0.82 0.61,-1.38 0,-0.33 -0.11,-0.67 -0.32,-1 -0.21,-0.34 -0.47,-0.61 -0.78,-0.83 -0.31,-0.22 -0.81,-0.47 -1.5,-0.76 -0.68,-0.29 -1.21,-0.55 -1.58,-0.79 -0.37,-0.23 -0.69,-0.51 -0.96,-0.84 -0.27,-0.32 -0.47,-0.64 -0.6,-0.97 -0.12,-0.32 -0.19,-0.67 -0.19,-1.03 0,-0.88 0.35,-1.63 1.06,-2.25 0.71,-0.62 1.57,-0.93 2.57,-0.93 0.67,0 1.35,0.15 2.04,0.44 0.68,0.29 1.26,0.73 1.71,1.32zm2.9 -1.36l1.68 0 0 12.29 -1.68 0 0 -12.29zm4.84 -0.49l9.09 9.33 0 -8.84 1.68 0 0 12.86 -9.09 -9.3 0 8.73 -1.68 0 0 -12.78zm13.71 0.49l6.81 0 0 1.68 -5.13 0 0 3.04 5.13 0 0 1.68 -5.13 0 0 4.21 5.13 0 0 1.68 -6.81 0 0 -12.29zm15.06 0l2.66 0c1.33,0 2.4,0.33 3.23,0.99 0.83,0.66 1.25,1.5 1.25,2.53 0,0.82 -0.27,1.55 -0.8,2.18 -0.54,0.63 -1.37,1.07 -2.51,1.33l3.55 5.26 -1.93 0 -3.41 -5.06 -0.37 0 0 5.06 -1.68 0 0 -12.29zm1.68 1.48l0 4.29c2.48,0.05 3.71,-0.67 3.71,-2.15 0,-0.52 -0.15,-0.95 -0.44,-1.28 -0.29,-0.33 -0.67,-0.56 -1.15,-0.67 -0.48,-0.12 -1.19,-0.18 -2.12,-0.18zm8.37 -1.48l6.81 0 0 1.68 -5.13 0 0 3.04 5.13 0 0 1.68 -5.13 0 0 4.21 5.13 0 0 1.68 -6.81 0 0 -12.29zm16.87 1.36l-1.36 1.09c-0.36,-0.37 -0.68,-0.65 -0.98,-0.83 -0.29,-0.18 -0.71,-0.27 -1.26,-0.27 -0.6,0 -1.09,0.14 -1.46,0.41 -0.37,0.27 -0.56,0.62 -0.56,1.05 0,0.37 0.16,0.7 0.49,0.98 0.33,0.29 0.89,0.6 1.68,0.94 0.79,0.34 1.4,0.66 1.84,0.94 0.44,0.29 0.8,0.62 1.08,0.97 0.28,0.36 0.49,0.73 0.63,1.12 0.14,0.39 0.21,0.8 0.21,1.24 0,1.02 -0.37,1.89 -1.11,2.61 -0.74,0.72 -1.64,1.08 -2.7,1.08 -1.03,0 -1.94,-0.28 -2.73,-0.84 -0.79,-0.56 -1.39,-1.41 -1.82,-2.53l1.68 -0.48c0.61,1.38 1.54,2.07 2.79,2.07 0.61,0 1.11,-0.18 1.52,-0.54 0.41,-0.37 0.61,-0.82 0.61,-1.38 0,-0.33 -0.11,-0.67 -0.32,-1 -0.21,-0.34 -0.47,-0.61 -0.78,-0.83 -0.31,-0.22 -0.81,-0.47 -1.49,-0.76 -0.68,-0.29 -1.21,-0.55 -1.58,-0.79 -0.37,-0.23 -0.69,-0.51 -0.97,-0.84 -0.27,-0.32 -0.47,-0.64 -0.59,-0.97 -0.12,-0.32 -0.19,-0.67 -0.19,-1.03 0,-0.88 0.35,-1.63 1.06,-2.25 0.71,-0.62 1.57,-0.93 2.57,-0.93 0.67,0 1.35,0.15 2.04,0.44 0.68,0.29 1.26,0.73 1.72,1.32zm2.19 -1.36l7.54 0 0 1.68 -2.94 0 0 10.61 -1.68 0 0 -10.61 -2.92 0 0 -1.68zm14.17 -0.47l5.8 12.76 -1.75 0 -1.42 -3.14 -5.22 0 -1.42 3.14 -1.74 0 5.76 -12.76zm0.01 3.86l-1.97 4.36 3.95 0 -1.98 -4.36zm7.25 -3.38l1.68 0 0 7.55c0,1.12 0.27,1.98 0.81,2.59 0.54,0.61 1.3,0.92 2.28,0.92 0.97,0 1.74,-0.28 2.28,-0.84 0.54,-0.56 0.82,-1.36 0.82,-2.38l0 -7.84 1.68 0 0 7.72c0,1.5 -0.43,2.71 -1.29,3.61 -0.86,0.9 -2,1.35 -3.43,1.35 -1.46,0 -2.63,-0.46 -3.51,-1.37 -0.88,-0.91 -1.32,-2.26 -1.32,-4.04l0 -7.27zm12.82 0l2.66 0c1.33,0 2.4,0.33 3.23,0.99 0.83,0.66 1.25,1.5 1.25,2.53 0,0.82 -0.27,1.55 -0.8,2.18 -0.54,0.63 -1.37,1.07 -2.51,1.33l3.55 5.26 -1.93 0 -3.41 -5.06 -0.37 0 0 5.06 -1.68 0 0 -12.29zm1.68 1.48l0 4.29c2.48,0.05 3.71,-0.67 3.71,-2.15 0,-0.52 -0.15,-0.95 -0.44,-1.28 -0.29,-0.33 -0.67,-0.56 -1.15,-0.67 -0.48,-0.12 -1.19,-0.18 -2.12,-0.18zm13.1 -1.96l5.8 12.76 -1.75 0 -1.43 -3.14 -5.22 0 -1.42 3.14 -1.74 0 5.76 -12.76zm0.01 3.86l-1.97 4.36 3.95 0 -1.98 -4.36zm7.8 -3.88l9.09 9.33 0 -8.84 1.68 0 0 12.86 -9.09 -9.3 0 8.73 -1.68 0 0 -12.78zm13.09 0.49l7.54 0 0 1.68 -2.94 0 0 10.61 -1.68 0 0 -10.61 -2.92 0 0 -1.68z"/>
  </g>
  <rect class="fil4" y="0" width="1028.07" height="342.62"/>
  <line class="fil4 str4" x1="1028.07" y1="27.91" x2="1028.07" y2= "312.97" />
 </g>
</svg>
