<?xml version="1.0" encoding="UTF-8"?>
<!DOCTYPE svg PUBLIC "-//W3C//DTD SVG 1.1//EN" "http://www.w3.org/Graphics/SVG/1.1/DTD/svg11.dtd">
<!-- Creator: CorelDRAW -->
<svg xmlns="http://www.w3.org/2000/svg" xml:space="preserve" width="59.4814mm" height="19.7646mm" version="1.1" style="shape-rendering:geometricPrecision; text-rendering:geometricPrecision; image-rendering:optimizeQuality; fill-rule:evenodd; clip-rule:evenodd"
viewBox="0 0 766.25 254.61"
 xmlns:xlink="http://www.w3.org/1999/xlink"
 xmlns:xodm="http://www.corel.com/coreldraw/odm/2003">
 <defs>
  <style type="text/css">
   <![CDATA[
    .str0 {stroke:#CCCCCC;stroke-width:4.54;stroke-linecap:round;stroke-linejoin:round;stroke-miterlimit:22.9256}
    .fil6 {fill:none}
    .fil3 {fill:#088099;fill-rule:nonzero}
    .fil2 {fill:#14C0C9;fill-rule:nonzero}
    .fil4 {fill:#16C0C9;fill-rule:nonzero}
    .fil1 {fill:#DE2854;fill-rule:nonzero}
    .fil5 {fill:#EBB829;fill-rule:nonzero}
    .fil0 {fill:#FF5475;fill-rule:nonzero}
   ]]>
  </style>
 </defs>
 <g id="Layer_x0020_1">
  <metadata id="CorelCorpID_0Corel-Layer"/>
  <g id="_2537850953776">
   <path class="fil0" d="M138.41 103.3c-6.94,0 -12.37,-0.12 -17.79,0.05 -3.05,0.1 -4.68,-0.56 -4.6,-4.1 0.18,-7.76 0.14,-15.52 -0.01,-23.28 -0.06,-3.26 1.24,-3.99 4.25,-3.49 11.88,2 20.2,8.42 24.81,19.57 0.37,0.89 0.66,1.82 0.94,2.75 0.26,0.88 0.18,1.93 1.63,2.63 2.45,-9.71 7.7,-17.22 16.62,-21.84 0.86,-0.45 1.75,-0.84 2.65,-1.2 10.26,-4.13 11.49,-3.34 11.5,7.38 0.01,5.63 -0.17,11.26 0.06,16.88 0.15,3.49 -0.93,4.88 -4.58,4.72 -5.53,-0.25 -11.09,-0.07 -17.69,-0.07 27.13,13.14 37.47,29.92 32.57,51.67 -4.36,19.39 -21.94,33.39 -41.74,33.26 -19.93,-0.13 -37.08,-14.1 -41.35,-33.68 -4.74,-21.72 5.84,-38.76 32.71,-51.24z"/>
   <path class="fil1" d="M176.24 103.17l-57.98 0c-1.51,-0.39 -2.29,-1.45 -2.23,-3.92 0.19,-7.76 0.14,-15.52 -0.01,-23.28 -0.06,-3.26 1.24,-3.99 4.25,-3.49 11.88,2 20.2,8.42 24.81,19.57 0.37,0.89 0.66,1.82 0.94,2.75 0.26,0.88 0.18,1.93 1.63,2.63 2.45,-9.7 7.7,-17.21 16.62,-21.84 0.86,-0.45 1.75,-0.84 2.65,-1.2 3.65,-1.47 6.15,-2.31 7.87,-2.31 3.11,0 3.63,2.78 3.63,9.69 0.01,5.63 -0.17,11.26 0.06,16.88 0.11,2.59 -0.46,4.03 -2.24,4.53z"/>
   <path class="fil2" d="M251.61 157.05c6.82,0 12.56,0.11 18.29,-0.05 2.94,-0.08 4.16,0.83 4.1,3.95 -0.17,7.75 -0.15,15.51 0,23.26 0.07,3.5 -1.17,4.27 -4.53,3.66 -11.84,-2.16 -20.09,-8.62 -24.64,-19.77 -0.36,-0.89 -0.6,-1.84 -0.92,-2.75 -0.23,-0.65 -0.03,-1.59 -1.55,-1.79 -1.39,3.58 -2.55,7.42 -4.83,10.75 -2.92,4.25 -6.57,7.6 -11.07,10.07 -12.52,6.87 -14.89,5.55 -14.88,-8.31 0,-5.04 0.16,-10.09 -0.04,-15.12 -0.12,-3.11 1.09,-4.02 4.06,-3.94 5.97,0.17 11.94,0.05 19,0.05 -26.29,-10.6 -37.68,-28.07 -33.62,-50.33 3.53,-19.37 20.68,-33.98 40.57,-34.56 20.04,-0.58 37.94,13.18 42.6,32.78 5.24,21.99 -5.45,39.54 -32.53,52.1z"/>
   <path class="fil3" d="M270.43 157l-0.36 0 -0.17 0c-5.73,0.15 -11.47,0.05 -18.29,0.05l0.1 -0.05 -17.28 0 0.16 0.06c-7.07,0 -13.04,0.12 -19.01,-0.05 -2.97,-0.09 -4.18,0.83 -4.06,3.94 0.2,5.03 0.04,10.08 0.04,15.12 -0,13.86 2.36,15.18 14.88,8.31 4.5,-2.47 8.15,-5.82 11.07,-10.07 2.29,-3.33 3.44,-7.17 4.83,-10.75 1.53,0.2 1.33,1.14 1.55,1.8 0.32,0.91 0.56,1.86 0.92,2.75 4.55,11.15 12.8,17.6 24.64,19.77 3.36,0.61 4.6,-0.16 4.53,-3.66 -0.16,-7.75 -0.17,-15.51 -0,-23.26 0.06,-2.92 -1,-3.91 -3.56,-3.96z"/>
   <path class="fil4" d="M370.91 171.4l0.54 16.39c0.02,0.34 -0.26,0.63 -0.59,0.63l-9.31 0c-0.34,0 -0.61,-0.29 -0.59,-0.63l1.27 -36.51c0.02,-0.31 0.29,-0.56 0.59,-0.56l8.63 0c0.22,0 0.44,0.14 0.54,0.34l10.19 21.05c0.25,0.53 1.05,0.39 1.12,-0.19l2.46 -18.76c0.03,-0.32 0.31,-0.54 0.63,-0.52l5.47 0.41c0.34,0.03 0.58,0.31 0.56,0.65l-2.33 34.18c-0.02,0.32 -0.29,0.56 -0.61,0.54l-8.95 -0.46c-0.22,-0.02 -0.41,-0.14 -0.51,-0.34l-8 -16.53c-0.29,-0.58 -1.17,-0.36 -1.12,0.31z"/>
   <path class="fil4" d="M331.9 153.38c-1.49,4.45 -2.28,9.04 -2.33,13.76 0,0.58 0.54,1 1.1,0.85l8.1 -2.31c0.56,-0.15 0.92,-0.7 0.83,-1.27 -0.27,-1.85 -2.94,-16.48 -7.22,-11.84 -0.22,0.24 -0.37,0.51 -0.49,0.82zm19.62 18.5l2.19 12.37c0.1,0.56 -0.32,1.09 -0.88,1.12l-10.98 0.53c-0.48,0.02 -0.87,-0.36 -0.87,-0.83l0 -9.73c0,-0.65 -0.61,-1.09 -1.22,-0.9l-8.07 2.56c-0.66,0.2 -1.09,0.87 -1.02,1.56l0.73 7.13c0.07,0.61 -0.34,1.17 -0.94,1.31l-6.34 1.41c-0.46,0.1 -0.9,-0.2 -0.95,-0.68l-0.75 -7.36c-0.05,-0.53 -0.61,-0.83 -1.09,-0.59l-2.82 1.43c-0.58,0.29 -1.29,-0.02 -1.48,-0.65l-2.01 -6.73c-0.14,-0.46 0.1,-0.95 0.56,-1.11l5.69 -1.95c0.54,-0.19 0.88,-0.71 0.85,-1.29 -0.29,-4.57 0.2,-9.7 1.48,-15.39 1.65,-7.37 8.58,-14.12 15.99,-8.85 5.16,3.67 7.66,11.57 9.29,16.68 0.15,0.51 0.75,0.76 1.22,0.51l2.27 -1.19c0.51,-0.25 1.12,-0.02 1.31,0.53l2.26 6.44c0.22,0.61 -0.12,1.29 -0.75,1.49l-2.99 0.99c-0.51,0.17 -0.82,0.68 -0.71,1.19z"/>
   <path class="fil4" d="M452.33 169.7l-10.74 0.94c-0.42,0.03 -0.73,0.41 -0.7,0.83l1.55 15.63c0.03,0.43 -0.29,0.82 -0.71,0.83l-6.34 0.49c-0.43,0.03 -0.78,-0.27 -0.81,-0.7l-1.6 -15.43c-0.03,-0.37 -0.36,-0.68 -0.73,-0.68l-2.56 -0.1c-0.39,0 -0.7,-0.31 -0.73,-0.7l-0.61 -6.86c-0.03,-0.39 0.24,-0.75 0.61,-0.81l1.87 -0.41c0.37,-0.07 0.63,-0.43 0.59,-0.82l-2.04 -21.12c-0.03,-0.43 0.27,-0.8 0.7,-0.83l7.12 -0.63c0.42,-0.03 0.8,0.27 0.83,0.7l1.85 21.15c0.04,0.42 0.41,0.73 0.83,0.7l11.31 -0.94c0.39,-0.03 0.7,-0.39 0.7,-0.8l-0.49 -17.99c-0.02,-0.41 0.29,-0.75 0.7,-0.78l5.08 -0.51c0.42,-0.03 0.81,0.29 0.85,0.71l3.57 45.66c0.03,0.43 -0.31,0.82 -0.73,0.82l-7.46 0.19c-0.43,0.02 -0.76,-0.32 -0.78,-0.75l-0.29 -17.06c-0.02,-0.44 -0.39,-0.78 -0.83,-0.75z"/>
   <path class="fil4" d="M413.55 173.4c-30.14,-8.51 -12.66,-33.33 7.37,-21.27 0.46,0.27 0.58,0.89 0.25,1.33l-3.91 5.08c-0.36,0.48 -1,0.58 -1.49,0.26 -3.01,-1.97 -6.25,-2.29 -9.7,-0.95 -1.96,0.77 -1.99,3.5 -0.07,4.32 6.9,2.92 20.16,6.66 16.39,17.35 -4.59,13.05 -15.37,9.19 -24.45,4.71 -0.42,-0.2 -0.58,-0.73 -0.34,-1.14l3.64 -6c0.29,-0.46 0.92,-0.58 1.34,-0.22 3.02,2.5 16.7,6.52 12.16,-2.45 -0.26,-0.49 -0.68,-0.85 -1.21,-1z"/>
   <path class="fil0" d="M501.08 153.38c-1.49,4.45 -2.28,9.04 -2.33,13.76 0,0.58 0.54,1 1.1,0.85l8.1 -2.31c0.56,-0.15 0.92,-0.7 0.83,-1.27 -0.27,-1.85 -2.94,-16.48 -7.22,-11.84 -0.22,0.24 -0.37,0.51 -0.49,0.82zm19.62 18.5l2.19 12.37c0.1,0.56 -0.32,1.09 -0.88,1.12l-10.98 0.53c-0.48,0.02 -0.87,-0.36 -0.87,-0.83l0 -9.73c0,-0.65 -0.61,-1.09 -1.22,-0.9l-8.07 2.56c-0.66,0.2 -1.09,0.87 -1.02,1.56l0.73 7.13c0.07,0.61 -0.34,1.17 -0.94,1.31l-6.34 1.41c-0.46,0.1 -0.9,-0.2 -0.95,-0.68l-0.75 -7.36c-0.05,-0.53 -0.61,-0.83 -1.09,-0.59l-2.82 1.43c-0.58,0.29 -1.29,-0.02 -1.48,-0.65l-2.01 -6.73c-0.14,-0.46 0.1,-0.95 0.56,-1.11l5.69 -1.95c0.54,-0.19 0.88,-0.71 0.85,-1.29 -0.29,-4.57 0.2,-9.7 1.48,-15.39 1.65,-7.37 8.58,-14.12 15.99,-8.85 5.16,3.67 7.66,11.57 9.29,16.68 0.15,0.51 0.75,0.76 1.22,0.51l2.28 -1.19c0.51,-0.25 1.12,-0.02 1.31,0.53l2.26 6.44c0.22,0.61 -0.12,1.29 -0.75,1.49l-2.99 0.99c-0.51,0.17 -0.82,0.68 -0.71,1.19z"/>
   <path class="fil0" d="M544.84 153.38c-1.49,4.45 -2.28,9.04 -2.33,13.76 0,0.58 0.54,1 1.1,0.85l8.1 -2.31c0.56,-0.15 0.92,-0.7 0.83,-1.27 -0.27,-1.85 -2.94,-16.48 -7.22,-11.84 -0.22,0.24 -0.37,0.51 -0.49,0.82zm19.62 18.5l2.19 12.37c0.1,0.56 -0.32,1.09 -0.88,1.12l-10.97 0.53c-0.48,0.02 -0.87,-0.36 -0.87,-0.83l0 -9.73c0,-0.65 -0.61,-1.09 -1.22,-0.9l-8.07 2.56c-0.66,0.2 -1.09,0.87 -1.02,1.56l0.73 7.13c0.07,0.61 -0.34,1.17 -0.94,1.31l-6.34 1.41c-0.46,0.1 -0.9,-0.2 -0.95,-0.68l-0.75 -7.36c-0.05,-0.53 -0.61,-0.83 -1.09,-0.59l-2.82 1.43c-0.58,0.29 -1.29,-0.02 -1.48,-0.65l-2.01 -6.73c-0.14,-0.46 0.1,-0.95 0.56,-1.11l5.69 -1.95c0.54,-0.19 0.88,-0.71 0.85,-1.29 -0.29,-4.57 0.2,-9.7 1.48,-15.39 1.65,-7.37 8.58,-14.12 15.99,-8.85 5.16,3.67 7.66,11.57 9.29,16.68 0.15,0.51 0.75,0.76 1.22,0.51l2.28 -1.19c0.51,-0.25 1.12,-0.02 1.31,0.53l2.26 6.44c0.22,0.61 -0.12,1.29 -0.75,1.49l-2.99 0.99c-0.51,0.17 -0.82,0.68 -0.71,1.19z"/>
   <path class="fil0" d="M625.52 169.7l-10.74 0.94c-0.43,0.03 -0.73,0.41 -0.7,0.83l1.55 15.63c0.03,0.43 -0.29,0.82 -0.71,0.83l-6.33 0.49c-0.43,0.03 -0.78,-0.27 -0.82,-0.7l-1.6 -15.43c-0.03,-0.37 -0.36,-0.68 -0.73,-0.68l-2.56 -0.1c-0.39,0 -0.7,-0.31 -0.73,-0.7l-0.61 -6.86c-0.03,-0.39 0.24,-0.75 0.61,-0.81l1.87 -0.41c0.37,-0.07 0.63,-0.43 0.6,-0.82l-2.04 -21.12c-0.03,-0.43 0.27,-0.8 0.7,-0.83l7.12 -0.63c0.43,-0.03 0.8,0.27 0.83,0.7l1.85 21.15c0.03,0.42 0.41,0.73 0.83,0.7l11.32 -0.94c0.39,-0.03 0.7,-0.39 0.7,-0.8l-0.49 -17.99c-0.02,-0.41 0.29,-0.75 0.7,-0.78l5.08 -0.51c0.43,-0.03 0.82,0.29 0.85,0.71l3.57 45.66c0.03,0.43 -0.31,0.82 -0.73,0.82l-7.46 0.19c-0.43,0.02 -0.76,-0.32 -0.78,-0.75l-0.29 -17.06c-0.02,-0.44 -0.39,-0.78 -0.83,-0.75z"/>
   <path class="fil0" d="M658.54 188.27c-5.1,0.48 -11.28,-0.24 -16.51,-0.53 -0.43,-0.03 -0.76,-0.41 -0.73,-0.83l0.32 -6.59c0.02,-0.41 0.31,-0.75 0.7,-0.87l1.63 -0.46c0.53,-0.15 0.88,-0.61 0.9,-1.16l0.31 -18.62c0.02,-0.6 -0.17,-1.17 -0.53,-1.67 -1.75,-2.43 -2.16,-5.28 -1.19,-8.58 0.12,-0.41 0.53,-0.66 0.95,-0.61l11.89 1.46c0.51,0.07 0.9,0.48 0.97,0.99l0.37 3.48c0.09,0.73 -0.41,1.41 -1.14,1.58l-1.65 0.37c-0.58,0.14 -0.99,0.64 -0.99,1.24l0 21.29c0,0.58 0.49,1.02 1.05,0.95l3.52 -0.41c0.51,-0.05 0.95,0.34 0.95,0.85l0 7.2c0,0.46 -0.36,0.85 -0.83,0.9z"/>
   <path class="fil0" d="M587.85 173.4c-30.14,-8.51 -12.66,-33.33 7.37,-21.27 0.46,0.27 0.58,0.89 0.26,1.33l-3.91 5.08c-0.36,0.48 -1,0.58 -1.49,0.26 -3.01,-1.97 -6.25,-2.29 -9.7,-0.95 -1.95,0.77 -1.99,3.5 -0.07,4.32 6.9,2.92 20.16,6.66 16.39,17.35 -4.59,13.05 -15.37,9.19 -24.45,4.71 -0.43,-0.2 -0.58,-0.73 -0.34,-1.14l3.64 -6c0.29,-0.46 0.92,-0.58 1.34,-0.22 3.02,2.5 16.7,6.52 12.16,-2.45 -0.25,-0.49 -0.68,-0.85 -1.21,-1z"/>
   <path class="fil5" d="M471.19 85.81l-5.47 -0.41c-0.32,-0.02 -0.6,0.2 -0.63,0.53l-2.46 18.75c-0.07,0.58 -0.87,0.71 -1.12,0.19l-10.19 -21.05c-0.1,-0.2 -0.32,-0.34 -0.54,-0.34l-8.63 0c-0.31,0 -0.58,0.25 -0.59,0.56l-1.28 36.51c-0.02,0.34 0.26,0.63 0.6,0.63l9.31 0c0.34,0 0.61,-0.29 0.6,-0.63l-0.54 -16.4c-0.05,-0.66 0.83,-0.88 1.12,-0.3l8 16.53c0.1,0.2 0.29,0.32 0.51,0.34l8.95 0.46c0.32,0.02 0.6,-0.22 0.61,-0.54l2.33 -34.18c0.02,-0.34 -0.22,-0.61 -0.56,-0.65z"/>
   <path class="fil5" d="M432.97 112.07l-3.52 0.41c-0.56,0.07 -1.05,-0.37 -1.05,-0.95l0 -21.29c0,-0.59 0.41,-1.11 0.98,-1.24l1.65 -0.37c0.73,-0.17 1.22,-0.85 1.14,-1.58l-0.37 -3.48c-0.07,-0.51 -0.46,-0.92 -0.97,-0.99l-11.89 -1.46c-0.42,-0.05 -0.83,0.2 -0.95,0.61 -0.97,3.3 -0.56,6.15 1.19,8.58 0.36,0.49 0.54,1.07 0.53,1.67l-0.31 18.62c-0.02,0.54 -0.37,1 -0.9,1.16l-1.63 0.46c-0.39,0.12 -0.68,0.46 -0.7,0.87l-0.32 6.59c-0.03,0.43 0.31,0.8 0.73,0.83 5.23,0.29 11.42,1 16.51,0.53 0.48,-0.05 0.83,-0.44 0.83,-0.9l0 -7.2c0,-0.51 -0.44,-0.9 -0.95,-0.85z"/>
   <path class="fil5" d="M352.67 66.19l-36.96 0.76c-0.7,0 -1.27,0.57 -1.27,1.27l0 8.12c0,0.66 0.51,1.21 1.17,1.26l2.69 0.12 1.27 0.05 1.4 0.06c0,0 0,0 0,0 5.34,1.46 6.14,3.53 6.14,3.53l0.41 25c0.02,0.81 -0.23,1.6 -0.72,2.27 -2.39,3.32 -2.95,7.21 -1.62,11.71 0.16,0.56 0.72,0.9 1.3,0.83l16.23 -1.99c0.7,-0.09 1.23,-0.65 1.32,-1.35l0.51 -4.75c0.12,-1 -0.56,-1.92 -1.55,-2.16l-2.25 -0.51c-0.79,-0.19 -1.34,-0.88 -1.34,-1.69l0 -28.5c0.4,-1.2 4.27,-1.33 6.07,-1.32l0.16 0.02c0.05,0.01 0.1,-0.01 0.15,-0.01 0.38,0.01 0.61,0.01 0.61,0.01l6.4 0.28c0.89,0.02 1.6,-0.71 1.6,-1.6l0 -9.82c0,-0.93 -0.79,-1.67 -1.72,-1.6z"/>
   <path class="fil5" d="M412.42 79.76l-8.46 -2.6c-0.48,-0.14 -0.99,0.14 -1.12,0.61 -2.87,9.46 -5.52,18.93 -7.97,28.35 -0.49,1.89 -1.51,6.81 -4.23,6.32 -0.59,-0.1 -1.04,-0.6 -1.1,-1.21l-1.87 -21.03c-0.07,-0.61 -0.53,-1.12 -1.14,-1.21l-6.05 -0.94c-0.56,-0.08 -1.1,0.2 -1.32,0.73l-8.95 21c-0.59,1.43 -0.98,1.38 -1.17,-0.17l-3.42 -29.51c-0.05,-0.49 -0.51,-0.85 -1,-0.78l-9 1.22c-0.56,0.07 -0.93,0.61 -0.85,1.17l6.64 37.29c0.12,0.65 0.7,1.09 1.34,1.05l12.49 -0.85c0.58,-0.03 1.07,-0.43 1.27,-0.97l2.9 -8.04c0.26,-0.71 1.33,-0.56 1.36,0.2l0.46 9.82c0.03,0.53 0.48,0.95 1,0.94l16.72 -0.56c0.58,-0.02 1.09,-0.41 1.26,-0.95l12.74 -38.9c0.13,-0.43 -0.1,-0.87 -0.53,-1z"/>
  </g>
  <rect class="fil6" y="0" width="763.98" height="254.61"/>
  <line class="fil6 str0" x1="763.98" y1="20.74" x2="763.98" y2= "232.58" />
 </g>
</svg>
